<?xml version="1.0" encoding="UTF-8" standalone="no"?>
<!DOCTYPE svg PUBLIC "-//W3C//DTD SVG 1.1//EN" "http://www.w3.org/Graphics/SVG/1.1/DTD/svg11.dtd">
<svg version="1.1" xmlns="http://www.w3.org/2000/svg" xmlns:xlink="http://www.w3.org/1999/xlink" preserveAspectRatio="xMidYMid meet" viewBox="0 0 640 640" width="640" height="640"><defs><path d="M567.35 272.01C566.89 272.96 566.43 273.91 565.97 274.84C560.85 285.3 556.07 294.57 552.01 302.18C544.49 316.23 529.93 325.06 514 325.22C507.98 325.29 477.88 325.61 423.69 326.2C423.63 326.2 423.31 326.2 422.74 326.2L415 326.29L408.38 326.36L388.07 326.58L387.25 326.58L376.91 326.69L376.59 326.69L312.88 327.38L255.99 327.97L249.37 328.05L208.29 328.5L208.24 328.5L181.59 328.79L181.3 328.79C130.74 329.33 102.65 329.63 97.03 329.69C81.91 329.85 73.5 329.95 71.83 329.96C66.45 330.03 61.09 329.26 55.95 327.69C46.99 324.99 38.94 319.89 32.66 312.96C21.83 301.02 13.95 287.11 8.65 272.01C7.5 268.74 6.72 266.04 6.5 265.38C-11.85 203.37 10.53 123.34 50.78 69.79C52.47 67.55 54.19 65.37 55.92 63.24C55.95 63.21 55.97 63.19 55.97 63.19C68.34 48 82.22 35.3 97.02 26.28C123.22 10.25 152.25 5.73 180.81 19.18C204.96 30.57 227.53 35.92 249.39 37.37C251.6 37.52 253.82 37.63 256 37.69C306.18 39.27 353.18 21.19 408.39 9.53C410.59 9.07 412.79 8.61 415.01 8.17C454.39 0.34 498.08 -3.8 550.04 4.89C555.43 5.77 560.76 7.05 565.97 8.7C569.41 9.81 571.93 10.84 572.59 11.08C597.39 21.17 610.91 39.82 616.67 63.17C617.48 66.43 617.93 69.12 618.07 69.78C628.26 125.97 598.42 205.66 572.59 260.97C571.55 263.21 570.73 264.94 570.53 265.38C568.91 268.76 567.67 271.35 567.35 272.01Z" id="a1fknSBK9r"></path><path d="M567.35 272.01C566.89 272.96 566.43 273.91 565.97 274.84C560.85 285.3 556.07 294.57 552.01 302.18C544.49 316.23 529.93 325.06 514 325.22C507.98 325.29 477.88 325.61 423.69 326.2C423.63 326.2 423.31 326.2 422.74 326.2L415 326.29L408.38 326.36L388.07 326.58L387.25 326.58L376.91 326.69L376.59 326.69L312.88 327.38L255.99 327.97L249.37 328.05L208.29 328.5L208.24 328.5L181.59 328.79L181.3 328.79C130.74 329.33 102.65 329.63 97.03 329.69C81.91 329.85 73.5 329.95 71.83 329.96C66.45 330.03 61.09 329.26 55.95 327.69C46.99 324.99 38.94 319.89 32.66 312.96C21.83 301.02 13.95 287.11 8.65 272.01C7.5 268.74 6.72 266.04 6.5 265.38C-11.85 203.37 10.53 123.34 50.78 69.79C52.47 67.55 54.19 65.37 55.92 63.24C55.95 63.21 55.97 63.19 55.97 63.19C68.34 48 82.22 35.3 97.02 26.28C123.22 10.25 152.25 5.73 180.81 19.18C204.96 30.57 227.53 35.92 249.39 37.37C251.6 37.52 253.82 37.63 256 37.69C306.18 39.27 353.18 21.19 408.39 9.53C410.59 9.07 412.79 8.61 415.01 8.17C454.39 0.34 498.08 -3.8 550.04 4.89C555.43 5.77 560.76 7.05 565.97 8.7C569.41 9.81 571.93 10.84 572.59 11.08C597.39 21.17 610.91 39.82 616.67 63.17C617.48 66.43 617.93 69.12 618.07 69.78C628.26 125.97 598.42 205.66 572.59 260.97C571.55 263.21 570.73 264.94 570.53 265.38C568.91 268.76 567.67 271.35 567.35 272.01Z" id="f1cgeFzJhU"></path><path d="M71.81 330.03C66.43 330.1 61.07 329.33 55.92 327.75C55.92 310.12 55.92 221.93 55.92 63.19C55.95 63.19 55.97 63.19 55.97 63.19C68.34 47.98 82.22 35.28 97.02 26.28C97.02 26.28 97.02 127.43 97.02 329.76C81.89 329.92 73.49 330.02 71.81 330.03Z" id="d1aIsmNVkZ"></path><path d="M71.81 330.03C66.43 330.1 61.07 329.33 55.92 327.75C55.92 310.12 55.92 221.93 55.92 63.19C55.95 63.19 55.97 63.19 55.97 63.19C68.34 47.98 82.22 35.28 97.02 26.28C97.02 26.28 97.02 127.43 97.02 329.76C81.89 329.92 73.49 330.02 71.81 330.03Z" id="b3vA8toCu9"></path><path d="M55.92 63.24C55.92 63.23 55.92 63.2 55.92 63.19C392.38 63.19 579.31 63.19 616.69 63.19C617.24 65.35 617.71 67.55 618.11 69.79C277.71 69.79 88.61 69.79 50.78 69.79C52.47 67.55 54.19 65.37 55.92 63.24Z" id="c3q3X8V9cC"></path><path d="M55.92 63.24C55.92 63.23 55.92 63.2 55.92 63.19C392.38 63.19 579.31 63.19 616.69 63.19C617.24 65.35 617.71 67.55 618.11 69.79C277.71 69.79 88.61 69.79 50.78 69.79C52.47 67.55 54.19 65.37 55.92 63.24Z" id="c11nRdgDoF"></path><path d="M570.53 265.37C568.91 268.75 567.67 271.33 567.35 271.99C566.89 272.96 566.43 273.9 565.97 274.84C565.97 248.22 565.97 35.3 565.97 8.69C568.27 9.42 570.47 10.23 572.59 11.1C572.59 28.05 572.59 112.81 572.59 265.37C571.31 265.37 570.62 265.37 570.53 265.37Z" id="adirl03H3"></path><path d="M570.53 265.37C568.91 268.75 567.67 271.33 567.35 271.99C566.89 272.96 566.43 273.9 565.97 274.84C565.97 248.22 565.97 35.3 565.97 8.69C568.27 9.42 570.47 10.23 572.59 11.1C572.59 28.05 572.59 112.81 572.59 265.37C571.31 265.37 570.62 265.37 570.53 265.37Z" id="f4Qd6hKKxq"></path><path d="M408.39 326.38C408.39 136.27 408.39 30.64 408.39 9.51C410.59 9.05 412.79 8.59 415.01 8.16C415.01 50.57 415.01 156.63 415.01 326.31C413.69 326.33 409.05 326.37 408.39 326.38Z" id="g1uUf2xXvN"></path><path d="M408.39 326.38C408.39 136.27 408.39 30.64 408.39 9.51C410.59 9.05 412.79 8.59 415.01 8.16C415.01 50.57 415.01 156.63 415.01 326.31C413.69 326.33 409.05 326.37 408.39 326.38Z" id="b4wwbgBufP"></path><path d="M249.39 328.11C249.39 153.66 249.39 56.75 249.39 37.36C251.6 37.51 253.82 37.58 256 37.67C256 76.39 256 173.18 256 328.04C254.68 328.05 250.06 328.1 249.39 328.11Z" id="d3ic4Z9BWW"></path><path d="M249.39 328.11C249.39 153.66 249.39 56.75 249.39 37.36C251.6 37.51 253.82 37.58 256 37.67C256 76.39 256 173.18 256 328.04C254.68 328.05 250.06 328.1 249.39 328.11Z" id="e1zppIg8X"></path><path d="M567.35 272.01C232.12 272.01 45.89 272.01 8.65 272.01C7.88 269.83 7.16 267.62 6.5 265.38C307.32 265.38 495.32 265.38 570.53 265.38C569.45 267.64 568.4 269.84 567.35 272.01Z" id="d235JTfEcn"></path><path d="M567.35 272.01C232.12 272.01 45.89 272.01 8.65 272.01C7.88 269.83 7.16 267.62 6.5 265.38C307.32 265.38 495.32 265.38 570.53 265.38C569.45 267.64 568.4 269.84 567.35 272.01Z" id="cbIEaovSO"></path><path d="M137.34 158.32C137.34 178.92 137.34 190.37 137.34 192.66C137.34 192.66 137.34 192.66 137.34 192.66C130.55 192.66 126.78 192.66 126.02 192.66C126.02 192.66 126.02 192.66 126.02 192.66C126.02 172.06 126.02 160.61 126.02 158.32C126.02 158.32 126.02 158.32 126.02 158.32C132.8 158.32 136.58 158.32 137.34 158.32C137.34 158.32 137.34 158.32 137.34 158.32Z" id="e5D5WKUwtz"></path><path d="M137.34 158.32C137.34 178.92 137.34 190.37 137.34 192.66C137.34 192.66 137.34 192.66 137.34 192.66C130.55 192.66 126.78 192.66 126.02 192.66C126.02 192.66 126.02 192.66 126.02 192.66C126.02 172.06 126.02 160.61 126.02 158.32C126.02 158.32 126.02 158.32 126.02 158.32C132.8 158.32 136.58 158.32 137.34 158.32C137.34 158.32 137.34 158.32 137.34 158.32Z" id="awQBcpz7x"></path><path d="M441.84 156.54C441.84 178.33 441.84 190.44 441.84 192.86C441.84 192.86 441.84 192.86 441.84 192.86C435.05 192.86 431.28 192.86 430.53 192.86C430.53 192.86 430.53 192.86 430.53 192.86C430.53 171.07 430.53 158.96 430.53 156.54C430.53 156.54 430.53 156.54 430.53 156.54C437.32 156.54 441.09 156.54 441.84 156.54C441.84 156.54 441.84 156.54 441.84 156.54Z" id="b1VZGgRaY1"></path><path d="M441.84 156.54C441.84 178.33 441.84 190.44 441.84 192.86C441.84 192.86 441.84 192.86 441.84 192.86C435.05 192.86 431.28 192.86 430.53 192.86C430.53 192.86 430.53 192.86 430.53 192.86C430.53 171.07 430.53 158.96 430.53 156.54C430.53 156.54 430.53 156.54 430.53 156.54C437.32 156.54 441.09 156.54 441.84 156.54C441.84 156.54 441.84 156.54 441.84 156.54Z" id="a10FeUmmf2"></path><path d="M423.54 326.39L422.57 326.41L388.18 326.72L387.36 326.73L376.91 326.82L376.6 326.82L312.89 327.41L208.31 328.38L208.22 328.38L181.63 328.63L181.35 328.64L63.19 329.72L63.19 320.79L90.97 304.11L146.71 303.65L147.91 303.64L148.29 303.64L149.49 303.62L176.25 303.4L177.45 303.4L177.83 303.39L179.02 303.39L187.61 303.31L187.83 303.3L209 303.12L209.18 303.12L374.37 301.74L378.41 301.71L378.82 301.71L381.9 301.67L404.33 301.49L405.52 301.47L406.62 301.46L407.19 301.46L414.16 301.41L415.55 301.39L417.4 301.38L423.21 301.32L432.41 301.24L433.61 301.23L435.68 301.22L436.07 301.22L480.56 300.84L514 317.81L514 317.81L514 325.55L423.54 326.39Z" id="a1KVBNCsOZ"></path><path d="M423.54 326.39L422.57 326.41L388.18 326.72L387.36 326.73L376.91 326.82L376.6 326.82L312.89 327.41L208.31 328.38L208.22 328.38L181.63 328.63L181.35 328.64L63.19 329.72L63.19 320.79L90.97 304.11L146.71 303.65L147.91 303.64L148.29 303.64L149.49 303.62L176.25 303.4L177.45 303.4L177.83 303.39L179.02 303.39L187.61 303.31L187.83 303.3L209 303.12L209.18 303.12L374.37 301.74L378.41 301.71L378.82 301.71L381.9 301.67L404.33 301.49L405.52 301.47L406.62 301.46L407.19 301.46L414.16 301.41L415.55 301.39L417.4 301.38L423.21 301.32L432.41 301.24L433.61 301.23L435.68 301.22L436.07 301.22L480.56 300.84L514 317.81L514 317.81L514 325.55L423.54 326.39Z" id="a6ifwVH12g"></path><path d="M423.54 326.39L422.57 326.41L388.18 326.72L387.36 326.73L376.91 326.82L376.6 326.82L312.89 327.41L208.31 328.38L208.22 328.38L181.63 328.63L181.35 328.64L63.19 329.72L63.19 320.79L90.97 304.11L146.71 303.65L147.91 303.64L148.29 303.64L149.49 303.62L176.25 303.4L177.45 303.4L177.83 303.39L179.02 303.39L187.61 303.31L187.83 303.3L209 303.12L209.18 303.12L374.37 301.74L378.41 301.71L378.82 301.71L381.9 301.67L404.33 301.49L405.52 301.47L406.62 301.46L407.19 301.46L414.16 301.41L415.55 301.39L417.4 301.38L423.21 301.32L432.41 301.24L433.61 301.23L435.68 301.22L436.07 301.22L480.56 300.84L514 317.81L514 317.81L514 325.55L423.54 326.39Z" id="bmkLqtsrS"></path><path d="M423.54 326.39L422.57 326.41L388.18 326.72L387.36 326.73L376.91 326.82L376.6 326.82L312.89 327.41L208.31 328.38L208.22 328.38L181.63 328.63L181.35 328.64L63.19 329.72L63.19 320.79L90.97 304.11L146.71 303.65L147.91 303.64L148.29 303.64L149.49 303.62L176.25 303.4L177.45 303.4L177.83 303.39L179.02 303.39L187.61 303.31L187.83 303.3L209 303.12L209.18 303.12L374.37 301.74L378.41 301.71L378.82 301.71L381.9 301.67L404.33 301.49L405.52 301.47L406.62 301.46L407.19 301.46L414.16 301.41L415.55 301.39L417.4 301.38L423.21 301.32L432.41 301.24L433.61 301.23L435.68 301.22L436.07 301.22L480.56 300.84L514 317.81L514 317.81L514 325.55L423.54 326.39Z" id="b1TBmn2L9Q"></path><path d="M176.34 302.63C176.34 304.04 175.53 305.32 174.25 305.93C173.79 306.15 173.28 306.27 172.77 306.28C170.69 306.33 154.07 306.68 151.99 306.72C151.43 306.73 150.88 306.62 150.37 306.38C149.08 305.79 148.25 304.5 148.25 303.07C148.25 302.07 148.25 297.05 148.25 288.04C150.12 288.04 159.49 288.04 176.34 288.04C176.34 297.11 176.34 301.98 176.34 302.63Z" id="b1OoGklhv"></path><path d="M176.34 302.63C176.34 304.04 175.53 305.32 174.25 305.93C173.79 306.15 173.28 306.27 172.77 306.28C170.69 306.33 154.07 306.68 151.99 306.72C151.43 306.73 150.88 306.62 150.37 306.38C149.08 305.79 148.25 304.5 148.25 303.07C148.25 302.07 148.25 297.05 148.25 288.04C150.12 288.04 159.49 288.04 176.34 288.04C176.34 297.11 176.34 301.98 176.34 302.63Z" id="a5WVDGlBg"></path><path d="M176.34 302.63C176.34 304.04 175.53 305.32 174.25 305.93C173.79 306.15 173.28 306.27 172.77 306.28C170.69 306.33 154.07 306.68 151.99 306.72C151.43 306.73 150.88 306.62 150.37 306.38C149.08 305.79 148.25 304.5 148.25 303.07C148.25 302.07 148.25 297.05 148.25 288.04C150.12 288.04 159.49 288.04 176.34 288.04C176.34 297.11 176.34 301.98 176.34 302.63Z" id="ajtESBK65"></path><path d="M176.34 302.63C176.34 304.04 175.53 305.32 174.25 305.93C173.79 306.15 173.28 306.27 172.77 306.28C170.69 306.33 154.07 306.68 151.99 306.72C151.43 306.73 150.88 306.62 150.37 306.38C149.08 305.79 148.25 304.5 148.25 303.07C148.25 302.07 148.25 297.05 148.25 288.04C150.12 288.04 159.49 288.04 176.34 288.04C176.34 297.11 176.34 301.98 176.34 302.63Z" id="b1AzZUBmYd"></path><path d="M177.53 302.63C177.53 304.04 176.72 305.32 175.45 305.93C174.98 306.15 174.47 306.27 173.96 306.28C171.88 306.33 155.25 306.68 153.18 306.72C152.61 306.73 152.06 306.62 151.57 306.38C150.27 305.79 149.44 304.5 149.44 303.07C149.44 302.07 149.44 297.05 149.44 288.04C151.31 288.04 160.67 288.04 177.53 288.04C177.53 297.11 177.53 301.98 177.53 302.63Z" id="a2ncmpT6rD"></path><path d="M177.53 302.63C177.53 304.04 176.72 305.32 175.45 305.93C174.98 306.15 174.47 306.27 173.96 306.28C171.88 306.33 155.25 306.68 153.18 306.72C152.61 306.73 152.06 306.62 151.57 306.38C150.27 305.79 149.44 304.5 149.44 303.07C149.44 302.07 149.44 297.05 149.44 288.04C151.31 288.04 160.67 288.04 177.53 288.04C177.53 297.11 177.53 301.98 177.53 302.63Z" id="b3UaYVx1n3"></path><path d="M433.61 288.04C433.61 299.3 433.61 305.56 433.61 306.8C433.61 306.8 433.61 306.8 433.61 306.8C416.75 306.8 407.39 306.8 405.52 306.8C405.52 306.8 405.52 306.8 405.52 306.8C405.52 295.55 405.52 289.3 405.52 288.04C405.52 288.04 405.52 288.04 405.52 288.04C422.37 288.04 431.73 288.04 433.61 288.04C433.61 288.04 433.61 288.04 433.61 288.04Z" id="bQeaXkmAZ"></path><path d="M433.61 288.04C433.61 299.3 433.61 305.56 433.61 306.8C433.61 306.8 433.61 306.8 433.61 306.8C416.75 306.8 407.39 306.8 405.52 306.8C405.52 306.8 405.52 306.8 405.52 306.8C405.52 295.55 405.52 289.3 405.52 288.04C405.52 288.04 405.52 288.04 405.52 288.04C422.37 288.04 431.73 288.04 433.61 288.04C433.61 288.04 433.61 288.04 433.61 288.04Z" id="a1jZwdzNBq"></path><path d="M433.61 288.04C433.61 299.3 433.61 305.56 433.61 306.8C433.61 306.8 433.61 306.8 433.61 306.8C416.75 306.8 407.39 306.8 405.52 306.8C405.52 306.8 405.52 306.8 405.52 306.8C405.52 295.55 405.52 289.3 405.52 288.04C405.52 288.04 405.52 288.04 405.52 288.04C422.37 288.04 431.73 288.04 433.61 288.04C433.61 288.04 433.61 288.04 433.61 288.04Z" id="a5fNcGuqZ"></path><path d="M433.61 288.04C433.61 299.3 433.61 305.56 433.61 306.8C433.61 306.8 433.61 306.8 433.61 306.8C416.75 306.8 407.39 306.8 405.52 306.8C405.52 306.8 405.52 306.8 405.52 306.8C405.52 295.55 405.52 289.3 405.52 288.04C405.52 288.04 405.52 288.04 405.52 288.04C422.37 288.04 431.73 288.04 433.61 288.04C433.61 288.04 433.61 288.04 433.61 288.04Z" id="a1u4x6REcR"></path><path d="M432.41 288.04C432.41 299.3 432.41 305.56 432.41 306.8C432.41 306.8 432.41 306.8 432.41 306.8C415.56 306.8 406.2 306.8 404.33 306.8C404.33 306.8 404.33 306.8 404.33 306.8C404.33 295.55 404.33 289.3 404.33 288.04C404.33 288.04 404.33 288.04 404.33 288.04C421.18 288.04 430.54 288.04 432.41 288.04C432.41 288.04 432.41 288.04 432.41 288.04Z" id="bpwWKk3d"></path><path d="M432.41 288.04C432.41 299.3 432.41 305.56 432.41 306.8C432.41 306.8 432.41 306.8 432.41 306.8C415.56 306.8 406.2 306.8 404.33 306.8C404.33 306.8 404.33 306.8 404.33 306.8C404.33 295.55 404.33 289.3 404.33 288.04C404.33 288.04 404.33 288.04 404.33 288.04C421.18 288.04 430.54 288.04 432.41 288.04C432.41 288.04 432.41 288.04 432.41 288.04Z" id="bSXioKDCt"></path><path d="M126.02 161.43L126.02 158.32L137.34 158.32L137.34 158.32L137.34 161.73L126.02 161.43Z" id="c32YrLhuh"></path><path d="M126.02 161.43L126.02 158.32L137.34 158.32L137.34 158.32L137.34 161.73L126.02 161.43Z" id="b4QxIz3t8"></path><path d="M195.61 162.06C188.35 161.87 152.06 160.93 86.75 159.23C85.51 159.21 84.82 159.19 84.68 159.19C83.27 159.16 82.15 157.98 82.18 156.56C82.18 156.47 82.19 156.37 82.2 156.29C83.73 146.06 95.94 64.27 97.47 54.05C97.67 52.73 98.85 51.8 100.18 51.88C111.1 52.62 198.51 58.54 209.43 59.28C210.84 59.36 211.92 60.57 211.83 61.98C211.83 62.05 211.82 62.11 211.81 62.19C209.09 81.72 199.57 150.08 198.21 159.85C198.03 161.15 196.91 162.09 195.61 162.06Z" id="d6C3d8B3RZ"></path><path d="M193.32 152.36L205.61 65.41L104.78 59.07L104.78 59.07L93.27 149.19L193.32 152.36Z" id="c2VPHP50Hf"></path><path d="M193.32 152.36L205.61 65.41L104.78 59.07L104.78 59.07L93.27 149.19L193.32 152.36Z" id="a1uoeiPHy5"></path><path d="M350.94 60.85C350.94 118.97 350.94 151.26 350.94 157.72C350.94 159.84 349.87 160.89 347.76 160.89C278.43 160.89 239.92 160.89 232.22 160.89C230.1 160.89 229.04 159.84 229.04 157.72C229.04 99.59 229.04 67.31 229.04 60.85C229.04 58.73 230.1 57.67 232.22 57.67C301.55 57.67 340.06 57.67 347.76 57.67C349.87 57.67 350.94 58.73 350.94 60.85Z" id="fxMnzuhID"></path><path d="M345.57 64.62C345.57 116.19 345.57 144.85 345.57 150.58C345.57 150.58 345.57 150.58 345.57 150.58C279.11 150.58 242.18 150.58 234.8 150.58C234.8 150.58 234.8 150.58 234.8 150.58C234.8 99.01 234.8 70.35 234.8 64.62C234.8 64.62 234.8 64.62 234.8 64.62C301.26 64.62 338.18 64.62 345.57 64.62C345.57 64.62 345.57 64.62 345.57 64.62Z" id="c15QDEQ3T"></path><path d="M345.57 64.62C345.57 116.19 345.57 144.85 345.57 150.58C345.57 150.58 345.57 150.58 345.57 150.58C279.11 150.58 242.18 150.58 234.8 150.58C234.8 150.58 234.8 150.58 234.8 150.58C234.8 99.01 234.8 70.35 234.8 64.62C234.8 64.62 234.8 64.62 234.8 64.62C301.26 64.62 338.18 64.62 345.57 64.62C345.57 64.62 345.57 64.62 345.57 64.62Z" id="caI21HvaW"></path><path d="M430.53 159.01L430.53 156.53L441.84 156.53L441.84 156.53L441.84 158.78L430.53 159.01Z" id="fyTJyHfxk"></path><path d="M430.53 159.01L430.53 156.53L441.84 156.53L441.84 156.53L441.84 158.78L430.53 159.01Z" id="cbXlBN6I"></path><path d="M491.19 156.57C491.17 156.57 491.14 156.57 491.11 156.57C479.97 156.8 390.78 158.65 379.64 158.88C378.67 158.9 377.85 158.18 377.77 157.22C376.81 147.25 369.14 67.56 368.18 57.6C368.09 56.59 368.82 55.7 369.83 55.6C369.87 55.6 369.89 55.59 369.92 55.59C377.3 55.23 414.18 53.39 480.56 50.09C481.28 50.06 481.67 50.04 481.75 50.04C482.74 49.98 483.59 50.72 483.66 51.7C485.51 72.29 491.06 134.04 492.9 154.62C492.97 155.64 492.2 156.51 491.19 156.57Z" id="cuAU9HA1O"></path><path d="M484.13 147L383.88 149.38L374.55 61.44L374.55 61.44L475.59 56.48L484.13 147Z" id="b1L6b6LkfA"></path><path d="M484.13 147L383.88 149.38L374.55 61.44L374.55 61.44L475.59 56.48L484.13 147Z" id="a1gE5NIvmo"></path><path d="M491.19 156.57C491.17 156.57 491.14 156.57 491.11 156.57C490.41 149.48 486.89 113.98 480.56 50.09C481.28 50.06 481.67 50.04 481.75 50.04C482.74 49.98 483.59 50.72 483.66 51.7C485.51 72.29 491.06 134.04 492.9 154.62C492.97 155.64 492.2 156.51 491.19 156.57Z" id="a2uwcnFHlf"></path><path d="M491.19 156.57C491.17 156.57 491.14 156.57 491.11 156.57C490.41 149.48 486.89 113.98 480.56 50.09C481.28 50.06 481.67 50.04 481.75 50.04C482.74 49.98 483.59 50.72 483.66 51.7C485.51 72.29 491.06 134.04 492.9 154.62C492.97 155.64 492.2 156.51 491.19 156.57Z" id="bbmOG40hO"></path><path d="M84.68 159.19C83.27 159.16 82.15 157.98 82.18 156.56C82.18 156.47 82.19 156.37 82.2 156.29C83.73 146.06 95.94 64.27 97.47 54.05C97.67 52.72 98.86 51.77 100.19 51.87C100.19 51.87 95.71 87.67 86.75 159.23C85.51 159.21 84.82 159.19 84.68 159.19Z" id="d1Ry0h4U6a"></path><path d="M84.68 159.19C83.27 159.16 82.15 157.98 82.18 156.56C82.18 156.47 82.19 156.37 82.2 156.29C83.73 146.06 95.94 64.27 97.47 54.05C97.67 52.72 98.86 51.77 100.19 51.87C100.19 51.87 95.71 87.67 86.75 159.23C85.51 159.21 84.82 159.19 84.68 159.19Z" id="c2Hey8Po2v"></path><path d="M137.34 182.49C137.34 188.59 137.34 191.98 137.34 192.66C137.34 192.66 137.34 192.66 137.34 192.66C130.55 192.66 126.78 192.66 126.02 192.66C126.02 192.66 126.02 192.66 126.02 192.66C126.02 186.56 126.02 183.17 126.02 182.49C126.02 182.49 126.02 182.49 126.02 182.49C132.8 182.49 136.58 182.49 137.34 182.49C137.34 182.49 137.34 182.49 137.34 182.49Z" id="eINcpIWQq"></path><path d="M137.34 182.49C137.34 188.59 137.34 191.98 137.34 192.66C137.34 192.66 137.34 192.66 137.34 192.66C130.55 192.66 126.78 192.66 126.02 192.66C126.02 192.66 126.02 192.66 126.02 192.66C126.02 186.56 126.02 183.17 126.02 182.49C126.02 182.49 126.02 182.49 126.02 182.49C132.8 182.49 136.58 182.49 137.34 182.49C137.34 182.49 137.34 182.49 137.34 182.49Z" id="jJHGxt6NH"></path><path d="M149.44 291.75L149.44 288.03L177.53 288.03L177.53 288.03L177.53 290.99L149.44 291.75Z" id="c2awVHPP9"></path><path d="M149.44 291.75L149.44 288.03L177.53 288.03L177.53 288.03L177.53 290.99L149.44 291.75Z" id="ccCuwNgVw"></path><path d="M224.82 288.55C217.21 288.75 179.16 289.76 110.68 291.59C110.66 291.59 110.66 291.59 110.65 291.59C109.36 291.57 108.32 290.53 108.31 289.23C108.31 278.91 108.31 196.35 108.31 186.03C108.32 184.74 109.36 183.7 110.65 183.68C122.07 183.68 213.35 183.68 224.75 183.68C226.05 183.7 227.1 184.74 227.11 186.03C227.11 206.06 227.11 276.19 227.11 286.2C227.1 287.47 226.08 288.51 224.82 288.55Z" id="dgXwlysrs"></path><path d="M110.65 291.59C109.36 291.57 108.32 290.53 108.31 289.23C108.31 278.91 108.31 196.35 108.31 186.03C108.32 184.74 109.36 183.7 110.65 183.68C110.66 183.68 110.67 219.65 110.68 291.59C110.66 291.59 110.66 291.59 110.65 291.59Z" id="gr7gd3kTO"></path><path d="M110.65 291.59C109.36 291.57 108.32 290.53 108.31 289.23C108.31 278.91 108.31 196.35 108.31 186.03C108.32 184.74 109.36 183.7 110.65 183.68C110.66 183.68 110.67 219.65 110.68 291.59C110.66 291.59 110.66 291.59 110.65 291.59Z" id="b3Le10SgT"></path><path d="M221.6 278.36L115.9 280.74L115.9 190.08L115.9 190.08L221.6 190.08L221.6 278.36Z" id="h3QsMNpMD"></path><path d="M221.6 278.36L115.9 280.74L115.9 190.08L115.9 190.08L221.6 190.08L221.6 278.36Z" id="aTWX95nQ2"></path><path d="M441.84 182.49C441.84 188.71 441.84 192.17 441.84 192.86C441.84 192.86 441.84 192.86 441.84 192.86C435.05 192.86 431.28 192.86 430.53 192.86C430.53 192.86 430.53 192.86 430.53 192.86C430.53 186.63 430.53 183.18 430.53 182.49C430.53 182.49 430.53 182.49 430.53 182.49C437.32 182.49 441.09 182.49 441.84 182.49C441.84 182.49 441.84 182.49 441.84 182.49Z" id="ail5Q8PE2"></path><path d="M441.84 182.49C441.84 188.71 441.84 192.17 441.84 192.86C441.84 192.86 441.84 192.86 441.84 192.86C435.05 192.86 431.28 192.86 430.53 192.86C430.53 192.86 430.53 192.86 430.53 192.86C430.53 186.63 430.53 183.18 430.53 182.49C430.53 182.49 430.53 182.49 430.53 182.49C437.32 182.49 441.09 182.49 441.84 182.49C441.84 182.49 441.84 182.49 441.84 182.49Z" id="b98oLAMRp"></path><path d="M404.33 291.1L404.33 288.03L432.41 288.03L432.41 288.03L432.41 291.85L404.33 291.1Z" id="a6APV7y59Q"></path><path d="M404.33 291.1L404.33 288.03L432.41 288.03L432.41 288.03L432.41 291.85L404.33 291.1Z" id="d3j3DaOkoE"></path><path d="M353.04 291.59C353.04 291.59 353.04 291.59 353.04 291.59C421.53 289.76 459.58 288.75 467.2 288.55C468.46 288.51 469.47 287.47 469.48 286.2C469.48 276.19 469.48 196.05 469.48 186.03C469.47 184.74 468.43 183.7 467.13 183.68C455.72 183.68 364.44 183.68 353.04 183.68C351.73 183.69 350.67 184.73 350.66 186.03C350.66 206.68 350.66 278.91 350.66 289.23C350.67 290.54 351.74 291.59 353.04 291.59Z" id="cWKurGam0"></path><path d="M467.11 291.59C467.11 291.59 467.11 291.59 467.11 291.59C467.11 280.79 467.11 194.47 467.11 183.68C467.11 183.68 467.11 183.68 467.11 183.68C468.41 183.68 469.47 184.73 469.48 186.03C469.48 206.68 469.48 278.91 469.48 289.23C469.47 290.54 468.41 291.59 467.11 291.59Z" id="g165FfdUM"></path><path d="M467.11 291.59C467.11 291.59 467.11 291.59 467.11 291.59C467.11 280.79 467.11 194.47 467.11 183.68C467.11 183.68 467.11 183.68 467.11 183.68C468.41 183.68 469.47 184.73 469.48 186.03C469.48 206.68 469.48 278.91 469.48 289.23C469.47 290.54 468.41 291.59 467.11 291.59Z" id="ecXbalPEV"></path><path d="M356.19 278.36L461.89 280.74L461.89 190.08L461.89 190.08L356.19 190.08L356.19 278.36Z" id="dCOG3iH9V"></path><path d="M356.19 278.36L461.89 280.74L461.89 190.08L461.89 190.08L356.19 190.08L356.19 278.36Z" id="b60kGkc8sp"></path><path d="M345.41 288.55C337.8 288.75 299.75 289.76 231.28 291.59C231.28 291.59 231.28 291.59 231.28 291.59C229.98 291.59 228.91 290.54 228.9 289.23C228.9 278.91 228.9 196.35 228.9 186.03C228.91 184.74 229.96 183.7 231.24 183.68C242.66 183.68 333.94 183.68 345.35 183.68C346.65 183.7 347.69 184.74 347.7 186.03C347.7 206.06 347.7 276.19 347.7 286.2C347.69 287.47 346.68 288.51 345.41 288.55Z" id="bB3NGWr73"></path><path d="M342.19 278.36L236.49 280.74L236.49 190.08L236.49 190.08L342.19 190.08L342.19 278.36Z" id="aY3YgfrvU"></path><path d="M342.19 278.36L236.49 280.74L236.49 190.08L236.49 190.08L342.19 190.08L342.19 278.36Z" id="brLp8pjOH"></path><path d="M423.54 326.39L422.57 326.41L388.18 326.72L387.36 326.73L376.91 326.82L376.6 326.82L312.89 327.41L208.31 328.38L208.22 328.38L181.63 328.63L181.35 328.64L63.19 329.72L63.19 320.79L183.79 320L184.08 320L208.48 319.83L208.61 319.83L377.18 318.72L377.36 318.72L377.46 318.71L377.73 318.71L380.59 318.69L381.46 318.69L425.81 318.39L428.44 318.38L429.03 318.38L514 317.81L514 317.81L514 325.55L423.54 326.39Z" id="aLg7ehhbU"></path><path d="M423.54 326.39L422.57 326.41L388.18 326.72L387.36 326.73L376.91 326.82L376.6 326.82L312.89 327.41L208.31 328.38L208.22 328.38L181.63 328.63L181.35 328.64L63.19 329.72L63.19 320.79L183.79 320L184.08 320L208.48 319.83L208.61 319.83L377.18 318.72L377.36 318.72L377.46 318.71L377.73 318.71L380.59 318.69L381.46 318.69L425.81 318.39L428.44 318.38L429.03 318.38L514 317.81L514 317.81L514 325.55L423.54 326.39Z" id="c35VVlz9aG"></path><path d="M259.61 162.09C259.61 178.98 273.3 192.66 290.18 192.66C307.07 192.66 320.75 178.98 320.75 162.09C320.75 145.21 307.07 131.52 290.18 131.52C273.3 131.52 259.61 145.21 259.61 162.09Z" id="aaDfcfmuF"></path><path d="M259.61 162.09C259.61 178.98 273.3 192.66 290.18 192.66C307.07 192.66 320.75 178.98 320.75 162.09C320.75 145.21 307.07 131.52 290.18 131.52C273.3 131.52 259.61 145.21 259.61 162.09Z" id="a3uq2OotP"></path><path d="M181.35 328.64C181.94 326.5 183 322.89 183.79 320C183.89 319.64 183.99 319.29 184.08 318.95C184.96 315.7 186.66 308.07 187.61 303.31C187.94 301.64 188.2 300.33 188.26 299.68C188.37 298.67 190.16 294.37 192.19 289.42C193.61 285.94 195.17 282.14 196.31 278.94C197.06 277.03 197.64 275.07 198.06 273.07C198.14 272.65 198.14 272.23 198.06 271.81C197.87 271.13 197.78 270.42 197.77 269.72C197.77 269.72 197.77 269.72 197.77 269.72C197.63 266.02 198.73 260.19 200.43 257.74C202.52 254.77 204.01 243.66 204.01 243.66C204.01 243.66 207.1 244.1 207.58 241.55C207.64 241.27 207.65 241 207.64 240.72C207.64 240.49 207.63 240.27 207.58 240.06C207.05 236.34 216.35 232.38 221.59 231.54C222.17 231.44 222.77 231.38 223.37 231.37C224.64 231.23 225.89 230.94 227.1 230.51C227.92 230.25 228.7 229.97 228.88 229.92C231.07 229.17 233.69 228.2 236.47 227.13C246.93 223.07 259.59 217.6 259.59 217.6C259.68 217.18 259.78 216.77 259.89 216.37C261.16 211.29 264.77 207.09 269.63 205.1C269.63 205.1 269.63 205.1 269.63 205.1C269.63 204.71 269.63 204.31 269.63 203.9C269.63 201.86 269.55 199.74 269.45 197.63C269.45 197.22 269.41 196.81 269.39 196.4C269.39 196.28 269.39 196.15 269.39 196.04C269.39 195.92 269.39 195.83 269.39 195.72C269.39 195.31 269.35 194.9 269.33 194.48C269.32 194.48 269.23 194.41 269.22 194.4C268.3 193.71 267.52 192.86 266.9 191.89C266.55 191.33 266.27 190.74 266.05 190.11C265.31 188.09 265.14 185.84 264.63 183.71C264.62 183.66 264.54 183.31 264.53 183.27C263.87 181.11 263.08 179.01 262.14 176.97C260.82 173.74 259.81 170.42 258.81 167.05C258.19 165.02 257.58 162.97 256.96 160.93C256.39 159.06 256.08 158.01 256.02 157.81C255.84 157.21 255.66 156.62 255.52 156.02C255.52 156.02 255.52 156.02 255.52 156.02C255.45 155.75 255.4 155.47 255.37 155.19C255.2 154.27 255.25 153.34 255.51 152.45C255.74 151.83 256 151.24 256.29 150.65C256.42 150.39 256.52 150.11 256.6 149.84C256.6 149.84 256.6 149.84 256.6 149.84C256.61 149.77 256.63 149.71 256.64 149.64C256.69 149.43 256.71 149.21 256.71 149C256.69 148.22 256.59 147.44 256.4 146.68C256.39 146.67 256.39 146.66 256.4 146.66C256.39 146.61 256.38 146.55 256.37 146.5C256.26 145.9 256.19 145.31 256.15 144.7C255.94 141.48 256.66 138.27 258.22 135.44C258.23 135.42 258.33 135.24 258.34 135.22C258.66 134.65 259.03 134.09 259.43 133.57C259.43 133.57 259.43 133.57 259.43 133.57C259.61 133.32 259.8 133.08 260.02 132.84C259.2 133.64 257.82 133.28 257.05 132.43C256.92 132.29 256.81 132.14 256.72 131.99C256.66 131.9 256.62 131.81 256.58 131.71C256.55 131.65 256.53 131.57 256.5 131.49C256.09 130.03 256.82 128.48 257.77 127.29C258.71 126.13 259.87 125.18 261.19 124.5C261.19 124.5 261.19 124.5 261.19 124.5C261.26 124.44 261.34 124.41 261.43 124.36C261.93 124.11 262.45 123.9 263 123.74C263 123.74 263 123.74 263 123.74C263.31 123.63 263.64 123.54 263.97 123.47C263.82 123.46 263.08 123.4 261.76 123.27C261.22 123.22 260.92 123.19 260.87 123.19C261.77 119.58 264.89 116.96 268.61 116.68C268.67 116.68 269.18 116.68 269.25 116.68C269.56 116.7 269.88 116.72 270.18 116.76C269.17 116.32 268.55 115.29 268.61 114.19C270.16 115.41 272.1 116.05 274.08 116.01C274.1 116.01 274.29 116.01 274.31 116.01C274.2 115.36 274.13 114.72 274.1 114.07C274.1 114.07 274.1 114.07 274.1 114.07C274.05 113.18 274.05 112.28 274.1 111.4C275.18 112.43 276.66 112.92 278.14 112.75C278.02 112.58 277.03 111.2 276.91 111.02C278.01 111.91 279.4 112.34 280.81 112.24C280.83 112.24 281.06 112.22 281.1 112.22C281.34 112.19 281.57 112.14 281.8 112.08C281.81 112.08 281.86 112.08 281.86 112.08C281.75 111.93 281.65 111.79 281.54 111.64C281.54 111.62 281.5 111.57 281.5 111.56C281.26 111.17 281.05 110.76 280.91 110.32C280.85 110.15 280.8 109.97 280.77 109.8C280.77 109.8 280.77 109.8 280.77 109.8C280.5 108.72 280.6 107.58 281.03 106.55C282.96 108.16 285.07 110.36 287.59 108.7C290.11 107.04 290.18 103.99 294.13 104.3C296.34 104.51 298.27 105.9 299.15 107.94C300.29 106.65 302.13 106.23 303.71 106.89C305.27 107.64 306.2 109.28 306.02 111C307.66 110.59 309.42 110.18 310.99 110.8C312.57 111.43 313.58 113.43 312.69 114.77C312.67 114.81 312.63 114.85 312.6 114.89C311.87 115.84 310.25 116.35 310.42 117.54C310.44 117.55 310.52 117.62 310.68 117.73C311.14 118.06 311.4 118.25 311.45 118.28C316 121.57 319.43 124.51 320.32 125.19C321.8 126.43 323.37 127.92 323.47 129.85C323.49 130.33 323.45 130.81 323.33 131.27C323.33 131.27 323.33 131.27 323.33 131.27C323.24 131.73 323.11 132.2 323.01 132.66C322.74 133.85 322.68 135.06 322.8 136.27C322.8 136.27 322.8 136.27 322.8 136.27C322.84 136.62 322.9 136.96 322.96 137.31C323.88 141.92 327.55 145.71 327.91 150.41C327.91 150.44 327.91 150.71 327.91 150.74C327.93 151.25 327.92 151.75 327.87 152.25C327.59 155.11 326.27 157.86 325.21 160.59C325.14 160.76 325.07 160.93 325.01 161.09C322.95 166.45 321.75 172.16 320.85 177.86C320.55 179.88 320.16 181.88 319.65 183.87C319.11 186.14 318.08 188.25 316.63 190.08C316.04 190.77 315.37 191.36 314.62 191.87C314.12 192.19 313.59 192.46 313.04 192.71C313.04 192.71 313.04 192.71 313.04 192.74C313.11 193.1 313.16 193.47 313.23 193.83C313.26 194.03 313.29 194.21 313.33 194.42C313.33 194.42 313.33 194.42 313.33 194.42C313.33 194.44 313.33 194.46 313.33 194.47C313.83 197.28 314.4 200.03 315 202.66C315.03 202.79 315.27 203.83 315.31 203.96C322.81 206.68 323.7 212.22 323.75 214.34C323.78 214.63 323.78 214.92 323.75 215.2C323.75 215.2 335.06 215.5 339.53 218.78C340.36 219.34 341.27 219.8 342.22 220.14C344.02 220.82 345.85 221.39 347.72 221.87C348.68 222.11 349.68 222.36 350.71 222.59C352.49 223.01 354.39 223.41 356.22 223.78C361.09 224.77 365.69 225.57 368.01 226.17C373.56 227.58 386.28 239.75 386.28 239.75C386.28 239.75 387.76 252.05 389.25 253.84C390.75 255.64 393.42 261.94 393.42 261.94C394.08 263.11 397.37 268.94 403.27 279.45C403.69 280.19 407.03 286.08 407.44 286.81C409.05 286.81 409.94 286.81 410.12 286.81C410.49 286.81 411.22 287.34 412.03 288.07C412.75 288.69 413.53 289.48 414.22 290.2C414.3 290.28 414.67 290.68 415.36 291.42C415.79 291.89 416.02 292.16 416.08 292.21C416.08 292.21 420.4 292.32 421.58 295.74C425.11 295.64 429.43 295.88 432.47 297.23C432.88 297.42 433.27 297.62 433.66 297.88C434.91 298.6 435.8 299.82 436.12 301.24C436.18 301.53 436.21 301.82 436.22 302.1C436.22 302.44 436.22 302.78 436.22 303.11C436.01 307.62 433.07 311.37 430.38 313.9C430.39 313.94 430.54 314.2 430.57 314.23C430.57 314.23 430.48 314.45 430.3 314.84C430.26 314.95 430.19 315.07 430.13 315.21C430.13 315.21 430.13 315.21 430.13 315.21C429.79 315.96 429.22 317.09 428.49 318.4C426.94 321.25 425.02 323.89 422.79 326.25C422.78 326.27 422.72 326.32 422.61 326.43C420.32 326.45 408.86 326.56 388.23 326.74L388.13 326.63L381.46 318.67L378.14 314.72L378.04 314.59L377.94 315.53L377.62 318.69L376.85 326.32L376.81 326.71L376.81 326.81L376.72 327.69L376.79 326.81L376.61 326.81L312.89 327.4L208.3 328.56L208.3 329.05L208.22 329.05L208.22 328.56C192.23 328.73 183.34 328.82 181.57 328.84C181.41 328.84 181.33 328.84 181.28 328.84C181.28 328.79 181.31 328.71 181.35 328.64Z" id="aaoRkEaMD"></path><linearGradient id="gradienta2Ub50fJfB" gradientUnits="userSpaceOnUse" x1="308.73" y1="329.05" x2="308.73" y2="104.1"><stop style="stop-color: #808080;stop-opacity: 0.25" offset="0%"></stop><stop style="stop-color: #808080;stop-opacity: 0.12" offset="54%"></stop><stop style="stop-color: #808080;stop-opacity: 0.1" offset="100%"></stop></linearGradient><path d="M181.35 328.64C181.94 326.5 183 322.89 183.79 320C183.89 319.64 183.99 319.29 184.08 318.95C184.96 315.7 186.66 308.07 187.61 303.31C187.94 301.64 188.2 300.33 188.26 299.68C188.37 298.67 190.16 294.37 192.19 289.42C193.61 285.94 195.17 282.14 196.31 278.94C197.06 277.03 197.64 275.07 198.06 273.07C198.14 272.65 198.14 272.23 198.06 271.81C197.87 271.13 197.78 270.42 197.77 269.72C197.77 269.72 197.77 269.72 197.77 269.72C197.63 266.02 198.73 260.19 200.43 257.74C202.52 254.77 204.01 243.66 204.01 243.66C204.01 243.66 207.1 244.1 207.58 241.55C207.64 241.27 207.65 241 207.64 240.72C207.64 240.49 207.63 240.27 207.58 240.06C207.05 236.34 216.35 232.38 221.59 231.54C222.17 231.44 222.77 231.38 223.37 231.37C224.64 231.23 225.89 230.94 227.1 230.51C227.92 230.25 228.7 229.97 228.88 229.92C231.07 229.17 233.69 228.2 236.47 227.13C246.93 223.07 259.59 217.6 259.59 217.6C259.68 217.18 259.78 216.77 259.89 216.37C261.16 211.29 264.77 207.09 269.63 205.1C269.63 205.1 269.63 205.1 269.63 205.1C269.63 204.71 269.63 204.31 269.63 203.9C269.63 201.86 269.55 199.74 269.45 197.63C269.45 197.22 269.41 196.81 269.39 196.4C269.39 196.28 269.39 196.15 269.39 196.04C269.39 195.92 269.39 195.83 269.39 195.72C269.39 195.31 269.35 194.9 269.33 194.48C269.32 194.48 269.23 194.41 269.22 194.4C268.3 193.71 267.52 192.86 266.9 191.89C266.55 191.33 266.27 190.74 266.05 190.11C265.31 188.09 265.14 185.84 264.63 183.71C264.62 183.66 264.54 183.31 264.53 183.27C263.87 181.11 263.08 179.01 262.14 176.97C260.82 173.74 259.81 170.42 258.81 167.05C258.19 165.02 257.58 162.97 256.96 160.93C256.39 159.06 256.08 158.01 256.02 157.81C255.84 157.21 255.66 156.62 255.52 156.02C255.52 156.02 255.52 156.02 255.52 156.02C255.45 155.75 255.4 155.47 255.37 155.19C255.2 154.27 255.25 153.34 255.51 152.45C255.74 151.83 256 151.24 256.29 150.65C256.42 150.39 256.52 150.11 256.6 149.84C256.6 149.84 256.6 149.84 256.6 149.84C256.61 149.77 256.63 149.71 256.64 149.64C256.69 149.43 256.71 149.21 256.71 149C256.69 148.22 256.59 147.44 256.4 146.68C256.39 146.67 256.39 146.66 256.4 146.66C256.39 146.61 256.38 146.55 256.37 146.5C256.26 145.9 256.19 145.31 256.15 144.7C255.94 141.48 256.66 138.27 258.22 135.44C258.23 135.42 258.33 135.24 258.34 135.22C258.66 134.65 259.03 134.09 259.43 133.57C259.43 133.57 259.43 133.57 259.43 133.57C259.61 133.32 259.8 133.08 260.02 132.84C259.2 133.64 257.82 133.28 257.05 132.43C256.92 132.29 256.81 132.14 256.72 131.99C256.66 131.9 256.62 131.81 256.58 131.71C256.55 131.65 256.53 131.57 256.5 131.49C256.09 130.03 256.82 128.48 257.77 127.29C258.71 126.13 259.87 125.18 261.19 124.5C261.19 124.5 261.19 124.5 261.19 124.5C261.26 124.44 261.34 124.41 261.43 124.36C261.93 124.11 262.45 123.9 263 123.74C263 123.74 263 123.74 263 123.74C263.31 123.63 263.64 123.54 263.97 123.47C263.82 123.46 263.08 123.4 261.76 123.27C261.22 123.22 260.92 123.19 260.87 123.19C261.77 119.58 264.89 116.96 268.61 116.68C268.67 116.68 269.18 116.68 269.25 116.68C269.56 116.7 269.88 116.72 270.18 116.76C269.17 116.32 268.55 115.29 268.61 114.19C270.16 115.41 272.1 116.05 274.08 116.01C274.1 116.01 274.29 116.01 274.31 116.01C274.2 115.36 274.13 114.72 274.1 114.07C274.1 114.07 274.1 114.07 274.1 114.07C274.05 113.18 274.05 112.28 274.1 111.4C275.18 112.43 276.66 112.92 278.14 112.75C278.02 112.58 277.03 111.2 276.91 111.02C278.01 111.91 279.4 112.34 280.81 112.24C280.83 112.24 281.06 112.22 281.1 112.22C281.34 112.19 281.57 112.14 281.8 112.08C281.81 112.08 281.86 112.08 281.86 112.08C281.75 111.93 281.65 111.79 281.54 111.64C281.54 111.62 281.5 111.57 281.5 111.56C281.26 111.17 281.05 110.76 280.91 110.32C280.85 110.15 280.8 109.97 280.77 109.8C280.77 109.8 280.77 109.8 280.77 109.8C280.5 108.72 280.6 107.58 281.03 106.55C282.96 108.16 285.07 110.36 287.59 108.7C290.11 107.04 290.18 103.99 294.13 104.3C296.34 104.51 298.27 105.9 299.15 107.94C300.29 106.65 302.13 106.23 303.71 106.89C305.27 107.64 306.2 109.28 306.02 111C307.66 110.59 309.42 110.18 310.99 110.8C312.57 111.43 313.58 113.43 312.69 114.77C312.67 114.81 312.63 114.85 312.6 114.89C311.87 115.84 310.25 116.35 310.42 117.54C310.44 117.55 310.52 117.62 310.68 117.73C311.14 118.06 311.4 118.25 311.45 118.28C316 121.57 319.43 124.51 320.32 125.19C321.8 126.43 323.37 127.92 323.47 129.85C323.49 130.33 323.45 130.81 323.33 131.27C323.33 131.27 323.33 131.27 323.33 131.27C323.24 131.73 323.11 132.2 323.01 132.66C322.74 133.85 322.68 135.06 322.8 136.27C322.8 136.27 322.8 136.27 322.8 136.27C322.84 136.62 322.9 136.96 322.96 137.31C323.88 141.92 327.55 145.71 327.91 150.41C327.91 150.44 327.91 150.71 327.91 150.74C327.93 151.25 327.92 151.75 327.87 152.25C327.59 155.11 326.27 157.86 325.21 160.59C325.14 160.76 325.07 160.93 325.01 161.09C322.95 166.45 321.75 172.16 320.85 177.86C320.55 179.88 320.16 181.88 319.65 183.87C319.11 186.14 318.08 188.25 316.63 190.08C316.04 190.77 315.37 191.36 314.62 191.87C314.12 192.19 313.59 192.46 313.04 192.71C313.04 192.71 313.04 192.71 313.04 192.74C313.11 193.1 313.16 193.47 313.23 193.83C313.26 194.03 313.29 194.21 313.33 194.42C313.33 194.42 313.33 194.42 313.33 194.42C313.33 194.44 313.33 194.46 313.33 194.47C313.83 197.28 314.4 200.03 315 202.66C315.03 202.79 315.27 203.83 315.31 203.96C322.81 206.68 323.7 212.22 323.75 214.34C323.78 214.63 323.78 214.92 323.75 215.2C323.75 215.2 335.06 215.5 339.53 218.78C340.36 219.34 341.27 219.8 342.22 220.14C344.02 220.82 345.85 221.39 347.72 221.87C348.68 222.11 349.68 222.36 350.71 222.59C352.49 223.01 354.39 223.41 356.22 223.78C361.09 224.77 365.69 225.57 368.01 226.17C373.56 227.58 386.28 239.75 386.28 239.75C386.28 239.75 387.76 252.05 389.25 253.84C390.75 255.64 393.42 261.94 393.42 261.94C394.08 263.11 397.37 268.94 403.27 279.45C403.69 280.19 407.03 286.08 407.44 286.81C409.05 286.81 409.94 286.81 410.12 286.81C410.49 286.81 411.22 287.34 412.03 288.07C412.75 288.69 413.53 289.48 414.22 290.2C414.3 290.28 414.67 290.68 415.36 291.42C415.79 291.89 416.02 292.16 416.08 292.21C416.08 292.21 420.4 292.32 421.58 295.74C425.11 295.64 429.43 295.88 432.47 297.23C432.88 297.42 433.27 297.62 433.66 297.88C434.91 298.6 435.8 299.82 436.12 301.24C436.18 301.53 436.21 301.82 436.22 302.1C436.22 302.44 436.22 302.78 436.22 303.11C436.01 307.62 433.07 311.37 430.38 313.9C430.39 313.94 430.54 314.2 430.57 314.23C430.57 314.23 430.48 314.45 430.3 314.84C430.26 314.95 430.19 315.07 430.13 315.21C430.13 315.21 430.13 315.21 430.13 315.21C429.79 315.96 429.22 317.09 428.49 318.4C426.94 321.25 425.02 323.89 422.79 326.25C422.78 326.27 422.72 326.32 422.61 326.43C420.32 326.45 408.86 326.56 388.23 326.74L388.13 326.63L381.46 318.67L378.14 314.72L378.04 314.59L377.94 315.53L377.62 318.69L376.85 326.32L376.81 326.71L376.81 326.81L376.72 327.69L376.79 326.81L376.61 326.81L312.89 327.4L208.3 328.56L208.3 329.05L208.22 329.05L208.22 328.56C192.23 328.73 183.34 328.82 181.57 328.84C181.41 328.84 181.33 328.84 181.28 328.84C181.28 328.79 181.31 328.71 181.35 328.64Z" id="hdGpssT3l"></path><path d="M269.66 205.65C269.62 203 269.52 200.25 269.39 197.52C268.73 184.42 267.16 171.62 267.16 171.62C267.16 171.62 318.97 147.2 313.02 166.56C310.63 174.38 311.41 185.36 313.23 195.67C313.76 198.67 314.37 201.62 315.01 204.42C316.58 211.25 318.5 217.98 320.75 224.62C320.75 224.62 261.51 231.77 267.16 224.62C269.21 222.03 269.78 214.38 269.66 205.65Z" id="cyzw1uwPu"></path><path d="M269.66 205.65C269.62 203 269.52 200.25 269.39 197.52C268.73 184.42 267.16 171.62 267.16 171.62C267.16 171.62 318.97 147.2 313.02 166.56C310.63 174.38 311.41 185.36 313.23 195.67C313.76 198.67 314.37 201.62 315.01 204.42C316.58 211.25 318.5 217.98 320.75 224.62C320.75 224.62 261.51 231.77 267.16 224.62C269.21 222.03 269.78 214.38 269.66 205.65Z" id="a234LePb3l"></path><path d="M269.66 205.65C278.7 201.79 290.18 204.67 290.18 204.67C302.29 202.25 310.05 202.73 315.01 204.42C316.58 211.25 318.5 217.98 320.75 224.62C320.75 224.62 261.51 231.77 267.16 224.62C269.21 222.03 269.78 214.38 269.66 205.65Z" id="a1FpnvlJXA"></path><path d="M269.66 205.65C278.7 201.79 290.18 204.67 290.18 204.67C302.29 202.25 310.05 202.73 315.01 204.42C316.58 211.25 318.5 217.98 320.75 224.62C320.75 224.62 261.51 231.77 267.16 224.62C269.21 222.03 269.78 214.38 269.66 205.65Z" id="a3iPYGl6re"></path><path d="M312.88 327.42L376.59 326.82L376.78 326.82L376.71 327.71L376.8 326.82L376.91 326.82L376.91 326.72L377.72 318.71L378.03 315.68L378.13 314.73L378.22 313.94L381.89 301.67L385.58 289.41C387.43 283.22 388.46 279.78 388.67 279.09C391.5 269.63 393.09 264.37 393.4 263.33C393.4 263.33 390.72 257.07 389.23 255.29C389.23 255.29 386.26 241.29 386.26 241.29C386.26 241.29 373.54 229.18 367.99 227.79C365.65 227.19 361.06 226.4 356.18 225.41C354.35 225.04 352.48 224.64 350.67 224.21C349.65 223.98 348.65 223.74 347.69 223.5C345.82 223.03 343.98 222.46 342.18 221.79C341.23 221.45 340.34 220.99 339.51 220.43C335.13 217.21 324.16 216.85 323.73 216.85C323.73 216.85 323.73 216.85 323.73 216.85C323.73 216.84 323.73 216.83 323.73 216.82C323.73 216.81 323.73 216.76 323.73 216.76C323.74 216.51 323.74 216.26 323.73 216C323.73 215.77 323.73 215.49 323.68 215.18C323.68 215.08 323.68 214.98 323.63 214.88C323.61 214.66 323.57 214.43 323.52 214.2C323.5 214.09 323.48 213.99 323.45 213.88C323.27 213.17 323.03 212.47 322.7 211.8C322.67 211.71 322.61 211.6 322.56 211.52C322.27 210.97 321.93 210.44 321.54 209.94C321.47 209.84 321.39 209.73 321.3 209.64C320.81 209.06 320.27 208.54 319.67 208.06C319.52 207.94 319.35 207.81 319.18 207.69C319.08 207.61 318.98 207.53 318.87 207.48C318.84 207.46 318.66 207.34 318.34 207.13C318.05 206.96 317.88 206.86 317.85 206.84C317.42 206.61 316.96 206.37 316.46 206.15C316.3 206.08 316.13 206.02 315.97 205.95C315.8 205.88 315.54 205.79 315.32 205.7C315.32 205.7 315.31 205.7 315.28 205.7C315.02 205.6 314.87 205.53 314.83 205.52C314.49 205.41 314.15 205.31 313.79 205.2C313.76 205.19 313.57 205.15 313.24 205.06C313.18 205.05 312.69 204.94 312.63 204.93C312.28 204.85 312.08 204.81 312.04 204.81C311.45 204.69 310.81 204.58 310.15 204.49C310.1 204.49 309.87 204.45 309.47 204.41C309.42 204.41 309.19 204.38 308.77 204.33L308.05 204.28C307.43 204.24 307.09 204.22 307.02 204.21C306.31 204.19 305.91 204.18 305.84 204.18C300.58 204.18 295.34 204.73 290.2 205.84C286.64 205.05 282.99 204.71 279.34 204.84C279.29 204.84 279.13 204.84 278.81 204.84C278.77 204.84 278.57 204.85 278.21 204.87C277.99 204.87 277.87 204.87 277.84 204.87C277.38 204.92 277.11 204.94 277.07 204.95C276.82 204.95 276.55 204.99 276.29 205.04C276.04 205.07 275.77 205.1 275.52 205.14C275.48 205.15 275.16 205.2 275.12 205.2C274.74 205.27 274.34 205.35 273.94 205.42C273.74 205.47 273.57 205.51 273.54 205.52C273.02 205.63 272.51 205.76 271.99 205.92C271.74 205.99 271.47 206.07 271.22 206.17C271.09 206.2 270.97 206.25 270.84 206.29C270.81 206.3 270.69 206.35 270.46 206.43C270.42 206.45 270.12 206.56 270.09 206.58C269.81 206.69 269.67 206.75 269.63 206.76C269.41 206.85 269.19 206.96 268.97 207.06C268.84 207.12 268.72 207.18 268.6 207.25C268.48 207.3 268.36 207.36 268.24 207.42C266.9 208.13 265.65 209 264.54 210.03C264.52 210.05 264.42 210.15 264.24 210.33C264.06 210.52 263.96 210.61 263.95 210.64C263.84 210.74 263.75 210.85 263.65 210.94C263.27 211.37 262.9 211.81 262.57 212.29C262.47 212.41 262.39 212.54 262.3 212.67C261.91 213.22 261.57 213.8 261.27 214.41C261.19 214.55 261.12 214.7 261.04 214.84C260.56 215.85 260.16 216.9 259.86 217.97C259.69 218.57 259.58 219.04 259.56 219.16C259.42 219.76 246.94 224.72 236.49 228.74C233.71 229.82 231.09 230.79 228.9 231.53C228.26 231.73 227.66 231.93 227.11 232.12C225.91 232.55 224.65 232.85 223.39 232.98C222.78 232.99 222.19 233.04 221.6 233.14C216.79 233.92 208.56 237.31 207.66 240.71C207.58 240.99 207.57 241.26 207.6 241.55C207.6 241.55 207.6 241.59 207.6 241.61C208.2 245.78 204.03 245.19 204.03 245.19C204.03 245.19 202.53 256.2 200.45 259.18C198.95 261.32 197.91 266.1 197.78 269.72C197.78 269.72 197.78 269.72 197.78 269.72C197.72 270.84 197.8 271.96 198.05 273.06C198.05 273.09 198.05 273.13 198.05 273.15C198.29 273.94 197.72 276.13 196.75 278.92C195.69 281.98 194.15 285.8 192.68 289.4C190.44 294.83 188.35 299.76 188.22 300.84C188.17 301.32 188.01 302.19 187.79 303.3C186.92 307.83 185 316.48 184.04 319.98C183.34 322.58 182.3 326.16 181.6 328.61C181.6 328.68 181.56 328.75 181.53 328.82C183.32 328.8 192.22 328.71 208.24 328.56C208.24 328.59 208.24 328.75 208.24 329.05L208.32 329.05L208.29 328.56L312.88 327.42Z" id="dORAzJXLu"></path><path d="M312.88 327.42L376.59 326.82L376.78 326.82L376.71 327.71L376.8 326.82L376.91 326.82L376.91 326.72L377.72 318.71L378.03 315.68L378.13 314.73L378.22 313.94L381.89 301.67L385.58 289.41C387.43 283.22 388.46 279.78 388.67 279.09C391.5 269.63 393.09 264.37 393.4 263.33C393.4 263.33 390.72 257.07 389.23 255.29C389.23 255.29 386.26 241.29 386.26 241.29C386.26 241.29 373.54 229.18 367.99 227.79C365.65 227.19 361.06 226.4 356.18 225.41C354.35 225.04 352.48 224.64 350.67 224.21C349.65 223.98 348.65 223.74 347.69 223.5C345.82 223.03 343.98 222.46 342.18 221.79C341.23 221.45 340.34 220.99 339.51 220.43C335.13 217.21 324.16 216.85 323.73 216.85C323.73 216.85 323.73 216.85 323.73 216.85C323.73 216.84 323.73 216.83 323.73 216.82C323.73 216.81 323.73 216.76 323.73 216.76C323.74 216.51 323.74 216.26 323.73 216C323.73 215.77 323.73 215.49 323.68 215.18C323.68 215.08 323.68 214.98 323.63 214.88C323.61 214.66 323.57 214.43 323.52 214.2C323.5 214.09 323.48 213.99 323.45 213.88C323.27 213.17 323.03 212.47 322.7 211.8C322.67 211.71 322.61 211.6 322.56 211.52C322.27 210.97 321.93 210.44 321.54 209.94C321.47 209.84 321.39 209.73 321.3 209.64C320.81 209.06 320.27 208.54 319.67 208.06C319.52 207.94 319.35 207.81 319.18 207.69C319.08 207.61 318.98 207.53 318.87 207.48C318.84 207.46 318.66 207.34 318.34 207.13C318.05 206.96 317.88 206.86 317.85 206.84C317.42 206.61 316.96 206.37 316.46 206.15C316.3 206.08 316.13 206.02 315.97 205.95C315.8 205.88 315.54 205.79 315.32 205.7C315.32 205.7 315.31 205.7 315.28 205.7C315.02 205.6 314.87 205.53 314.83 205.52C314.49 205.41 314.15 205.31 313.79 205.2C313.76 205.19 313.57 205.15 313.24 205.06C313.18 205.05 312.69 204.94 312.63 204.93C312.28 204.85 312.08 204.81 312.04 204.81C311.45 204.69 310.81 204.58 310.15 204.49C310.1 204.49 309.87 204.45 309.47 204.41C309.42 204.41 309.19 204.38 308.77 204.33L308.05 204.28C307.43 204.24 307.09 204.22 307.02 204.21C306.31 204.19 305.91 204.18 305.84 204.18C300.58 204.18 295.34 204.73 290.2 205.84C286.64 205.05 282.99 204.71 279.34 204.84C279.29 204.84 279.13 204.84 278.81 204.84C278.77 204.84 278.57 204.85 278.21 204.87C277.99 204.87 277.87 204.87 277.84 204.87C277.38 204.92 277.11 204.94 277.07 204.95C276.82 204.95 276.55 204.99 276.29 205.04C276.04 205.07 275.77 205.1 275.52 205.14C275.48 205.15 275.16 205.2 275.12 205.2C274.74 205.27 274.34 205.35 273.94 205.42C273.74 205.47 273.57 205.51 273.54 205.52C273.02 205.63 272.51 205.76 271.99 205.92C271.74 205.99 271.47 206.07 271.22 206.17C271.09 206.2 270.97 206.25 270.84 206.29C270.81 206.3 270.69 206.35 270.46 206.43C270.42 206.45 270.12 206.56 270.09 206.58C269.81 206.69 269.67 206.75 269.63 206.76C269.41 206.85 269.19 206.96 268.97 207.06C268.84 207.12 268.72 207.18 268.6 207.25C268.48 207.3 268.36 207.36 268.24 207.42C266.9 208.13 265.65 209 264.54 210.03C264.52 210.05 264.42 210.15 264.24 210.33C264.06 210.52 263.96 210.61 263.95 210.64C263.84 210.74 263.75 210.85 263.65 210.94C263.27 211.37 262.9 211.81 262.57 212.29C262.47 212.41 262.39 212.54 262.3 212.67C261.91 213.22 261.57 213.8 261.27 214.41C261.19 214.55 261.12 214.7 261.04 214.84C260.56 215.85 260.16 216.9 259.86 217.97C259.69 218.57 259.58 219.04 259.56 219.16C259.42 219.76 246.94 224.72 236.49 228.74C233.71 229.82 231.09 230.79 228.9 231.53C228.26 231.73 227.66 231.93 227.11 232.12C225.91 232.55 224.65 232.85 223.39 232.98C222.78 232.99 222.19 233.04 221.6 233.14C216.79 233.92 208.56 237.31 207.66 240.71C207.58 240.99 207.57 241.26 207.6 241.55C207.6 241.55 207.6 241.59 207.6 241.61C208.2 245.78 204.03 245.19 204.03 245.19C204.03 245.19 202.53 256.2 200.45 259.18C198.95 261.32 197.91 266.1 197.78 269.72C197.78 269.72 197.78 269.72 197.78 269.72C197.72 270.84 197.8 271.96 198.05 273.06C198.05 273.09 198.05 273.13 198.05 273.15C198.29 273.94 197.72 276.13 196.75 278.92C195.69 281.98 194.15 285.8 192.68 289.4C190.44 294.83 188.35 299.76 188.22 300.84C188.17 301.32 188.01 302.19 187.79 303.3C186.92 307.83 185 316.48 184.04 319.98C183.34 322.58 182.3 326.16 181.6 328.61C181.6 328.68 181.56 328.75 181.53 328.82C183.32 328.8 192.22 328.71 208.24 328.56C208.24 328.59 208.24 328.75 208.24 329.05L208.32 329.05L208.29 328.56L312.88 327.42Z" id="a4GQemIGv"></path><path d="M264.18 274.35C264.18 274.35 218.03 258.86 218.03 258.86C227.26 261.96 251.97 276.43 264.18 274.35Z" id="a2mIwQImZZ"></path><path d="M264.18 274.35C264.18 274.35 218.03 258.86 218.03 258.86C227.26 261.96 251.97 276.43 264.18 274.35Z" id="b7gMuvWAT"></path><path d="M287.11 251.72C295.92 254.15 320.16 262.44 331.18 263.92C342.19 265.42 295.93 254.16 287.11 251.72Z" id="aVoW0KhlG"></path><path d="M287.11 251.72C295.92 254.15 320.16 262.44 331.18 263.92C342.19 265.42 295.93 254.16 287.11 251.72Z" id="asZHc8nOj"></path><path d="M290.2 207.05C321.29 200.85 323.68 213.73 323.77 217.23C306.5 220.4 273.98 219.72 259.93 219.24C265.08 200.78 284.15 209.49 290.2 207.05Z" id="e1m9Yb65Rf"></path><path d="M290.2 207.05C321.29 200.85 323.68 213.73 323.77 217.23C306.5 220.4 273.98 219.72 259.93 219.24C265.08 200.78 284.15 209.49 290.2 207.05Z" id="hHrCOwTqz"></path><path d="M290.2 205.86C321.29 199.66 323.68 212.53 323.77 216.04C306.5 219.22 273.98 218.52 259.93 218.05C265.08 199.58 284.15 208.3 290.2 205.86Z" id="auhBIxFl3"></path><path d="M290.2 205.86C321.29 199.66 323.68 212.53 323.77 216.04C306.5 219.22 273.98 218.52 259.93 218.05C265.08 199.58 284.15 208.3 290.2 205.86Z" id="ba5I0z6Yf"></path><path d="M436.19 303.22C436.19 303.22 425.81 318.4 425.81 318.4C423.73 314.2 417.52 301.62 415.44 297.43C419.59 298.59 435.79 294.29 436.19 303.22Z" id="c15xUpdcPL"></path><path d="M436.19 303.22C436.19 303.22 425.81 318.4 425.81 318.4C423.73 314.2 417.52 301.62 415.44 297.43C419.59 298.59 435.79 294.29 436.19 303.22Z" id="a3oT1qUgiN"></path><path d="M290.89 201.96C284.13 202.77 277.04 202.06 271.14 198.69C270.53 198.34 269.93 197.95 269.36 197.52C268.7 184.42 267.13 171.62 267.13 171.62C267.13 171.62 318.94 147.2 312.97 166.56C310.61 174.38 311.41 185.36 313.23 195.67C312.35 196.06 311.46 196.4 310.54 196.7C304.12 198.92 297.65 201.15 290.89 201.96Z" id="f4D9z0blsm"></path><path d="M290.89 201.96C284.13 202.77 277.04 202.06 271.14 198.69C270.53 198.34 269.93 197.95 269.36 197.52C268.7 184.42 267.13 171.62 267.13 171.62C267.13 171.62 318.94 147.2 312.97 166.56C310.61 174.38 311.41 185.36 313.23 195.67C312.35 196.06 311.46 196.4 310.54 196.7C304.12 198.92 297.65 201.15 290.89 201.96Z" id="a2m0Grzf17"></path><path d="M278.08 114.99C276.61 115.17 275.12 114.67 274.05 113.65C273.94 115.19 273.99 116.74 274.23 118.27C272.19 118.37 270.16 117.73 268.55 116.48C268.48 117.58 269.11 118.61 270.11 119.05C265.85 118.53 261.88 121.27 260.82 125.43C261.13 125.45 263.62 125.68 263.94 125.71C261.48 126.23 259.29 127.58 257.71 129.5C256.76 130.7 256.04 132.22 256.46 133.67C256.86 135.12 258.88 136.06 259.98 135.02C256.82 138.78 255.49 143.76 256.35 148.59C256.62 149.61 256.72 150.68 256.62 151.72C256.42 152.71 255.81 153.56 255.49 154.51C254.89 156.25 255.47 158.14 255.99 159.87C256.27 160.8 258.5 168.14 258.79 169.06C259.8 172.38 260.8 175.7 262.12 178.91C263.07 180.94 263.86 183.03 264.51 185.17C265.26 188.05 265.29 191.21 266.9 193.73C267.98 195.31 269.46 196.6 271.16 197.49C277.06 200.87 284.18 201.58 290.92 200.77C297.65 199.96 304.12 197.72 310.53 195.51C311.96 195.08 313.33 194.48 314.61 193.73C319.05 190.81 320.04 184.87 320.86 179.64C321.79 173.81 323.02 167.98 325.21 162.49C326.5 159.22 328.19 155.9 327.9 152.4C327.53 147.75 323.85 143.98 322.94 139.41C322.63 137.88 322.65 136.3 322.98 134.78C323.27 133.88 323.42 132.93 323.46 131.99C323.35 130.06 321.79 128.59 320.3 127.36C315.49 123.34 311.38 120.52 310.38 119.76C310.21 118.58 311.83 118.06 312.56 117.12C313.6 115.79 312.52 113.68 310.95 113.07C309.38 112.45 307.62 112.86 305.98 113.26C306.25 111.12 304.74 109.15 302.58 108.87C301.27 108.71 299.96 109.22 299.1 110.22C298.21 108.19 296.3 106.81 294.09 106.6C290.14 106.29 290.06 109.31 287.54 110.98C285.01 112.64 282.93 110.44 280.99 108.84C280.26 110.68 280.57 112.77 281.8 114.31C280.07 114.77 278.24 114.39 276.84 113.27C276.97 113.44 277.96 114.81 278.08 114.99Z" id="aGmME8TSt"></path><path d="M278.08 114.99C276.61 115.17 275.12 114.67 274.05 113.65C273.94 115.19 273.99 116.74 274.23 118.27C272.19 118.37 270.16 117.73 268.55 116.48C268.48 117.58 269.11 118.61 270.11 119.05C265.85 118.53 261.88 121.27 260.82 125.43C261.13 125.45 263.62 125.68 263.94 125.71C261.48 126.23 259.29 127.58 257.71 129.5C256.76 130.7 256.04 132.22 256.46 133.67C256.86 135.12 258.88 136.06 259.98 135.02C256.82 138.78 255.49 143.76 256.35 148.59C256.62 149.61 256.72 150.68 256.62 151.72C256.42 152.71 255.81 153.56 255.49 154.51C254.89 156.25 255.47 158.14 255.99 159.87C256.27 160.8 258.5 168.14 258.79 169.06C259.8 172.38 260.8 175.7 262.12 178.91C263.07 180.94 263.86 183.03 264.51 185.17C265.26 188.05 265.29 191.21 266.9 193.73C267.98 195.31 269.46 196.6 271.16 197.49C277.06 200.87 284.18 201.58 290.92 200.77C297.65 199.96 304.12 197.72 310.53 195.51C311.96 195.08 313.33 194.48 314.61 193.73C319.05 190.81 320.04 184.87 320.86 179.64C321.79 173.81 323.02 167.98 325.21 162.49C326.5 159.22 328.19 155.9 327.9 152.4C327.53 147.75 323.85 143.98 322.94 139.41C322.63 137.88 322.65 136.3 322.98 134.78C323.27 133.88 323.42 132.93 323.46 131.99C323.35 130.06 321.79 128.59 320.3 127.36C315.49 123.34 311.38 120.52 310.38 119.76C310.21 118.58 311.83 118.06 312.56 117.12C313.6 115.79 312.52 113.68 310.95 113.07C309.38 112.45 307.62 112.86 305.98 113.26C306.25 111.12 304.74 109.15 302.58 108.87C301.27 108.71 299.96 109.22 299.1 110.22C298.21 108.19 296.3 106.81 294.09 106.6C290.14 106.29 290.06 109.31 287.54 110.98C285.01 112.64 282.93 110.44 280.99 108.84C280.26 110.68 280.57 112.77 281.8 114.31C280.07 114.77 278.24 114.39 276.84 113.27C276.97 113.44 277.96 114.81 278.08 114.99Z" id="caOPtb4cpP"></path><path d="M429.03 318.38C427.54 321.19 425.75 323.83 423.67 326.22C423.66 326.24 423.6 326.29 423.5 326.39C423.44 326.39 423.12 326.39 422.54 326.39L388.15 326.71L387.34 326.71L387.23 326.59L380.56 318.68L378.05 315.7L377.94 315.57L377.73 315.31L377.61 315.17L377.46 314.99L372.56 309.19L374.36 301.75L377.4 289.21L377.48 288.9L378.07 286.51L378.49 284.73L379.91 278.9L384.77 258.87L393.41 263.34L402.52 279.41C405.45 284.59 407.07 287.47 407.4 288.04C409.01 288.04 409.9 288.04 410.08 288.04C410.59 288.04 411.74 289.02 412.91 290.16C413.33 290.55 413.75 290.97 414.11 291.34C415.17 292.43 416 293.38 416 293.38C416 293.38 420.35 293.48 421.51 296.89C421.58 297.05 421.62 297.23 421.67 297.39C422.05 298.75 422.56 300.04 423.17 301.31C423.93 302.98 424.9 304.87 425.88 306.78C427.69 310.26 429.54 313.57 430.23 314.78C430.23 314.8 430.26 314.84 430.3 314.93C430.42 315.13 430.5 315.24 430.53 315.29C430.23 315.91 430.01 316.56 429.03 318.38Z" id="atRG0ychP"></path><path d="M429.03 318.38C427.54 321.19 425.75 323.83 423.67 326.22C423.66 326.24 423.6 326.29 423.5 326.39C423.44 326.39 423.12 326.39 422.54 326.39L388.15 326.71L387.34 326.71L387.23 326.59L380.56 318.68L378.05 315.7L377.94 315.57L377.73 315.31L377.61 315.17L377.46 314.99L372.56 309.19L374.36 301.75L377.4 289.21L377.48 288.9L378.07 286.51L378.49 284.73L379.91 278.9L384.77 258.87L393.41 263.34L402.52 279.41C405.45 284.59 407.07 287.47 407.4 288.04C409.01 288.04 409.9 288.04 410.08 288.04C410.59 288.04 411.74 289.02 412.91 290.16C413.33 290.55 413.75 290.97 414.11 291.34C415.17 292.43 416 293.38 416 293.38C416 293.38 420.35 293.48 421.51 296.89C421.58 297.05 421.62 297.23 421.67 297.39C422.05 298.75 422.56 300.04 423.17 301.31C423.93 302.98 424.9 304.87 425.88 306.78C427.69 310.26 429.54 313.57 430.23 314.78C430.23 314.8 430.26 314.84 430.3 314.93C430.42 315.13 430.5 315.24 430.53 315.29C430.23 315.91 430.01 316.56 429.03 318.38Z" id="j33jdn96lS"></path><path d="M379.32 289.31L379.22 290.68L378.43 301.71L377.46 314.98L377.19 318.72L376.59 326.73L376.59 326.83L312.88 327.42L208.3 328.56L208.3 329.05L208.22 329.05L208.22 328.56L208.22 328.39L208.48 319.83L209 303.12C209.27 294.62 209.41 289.9 209.44 288.96C209.46 288.11 209.47 287.65 209.49 287.55C209.58 284.08 212.48 281.37 215.94 281.48C216.05 281.48 216.17 281.49 216.28 281.49C219.09 281.73 222.74 282.03 227.11 282.33C227.28 282.35 228.71 282.44 228.9 282.47C254.1 284.22 300.69 286.48 347.7 283.65C348.69 283.6 349.68 283.54 350.68 283.47C357.98 283.01 365.26 282.42 372.46 281.69C375.91 281.32 379 283.82 379.36 287.26C379.39 287.64 379.4 288 379.37 288.37C379.37 288.37 379.35 288.67 379.32 289.25C379.32 289.26 379.32 289.28 379.32 289.31Z" id="bn7Ru9s0E"></path><path d="M379.32 289.31L379.22 290.68L378.43 301.71L377.46 314.98L377.19 318.72L376.59 326.73L376.59 326.83L312.88 327.42L208.3 328.56L208.3 329.05L208.22 329.05L208.22 328.56L208.22 328.39L208.48 319.83L209 303.12C209.27 294.62 209.41 289.9 209.44 288.96C209.46 288.11 209.47 287.65 209.49 287.55C209.58 284.08 212.48 281.37 215.94 281.48C216.05 281.48 216.17 281.49 216.28 281.49C219.09 281.73 222.74 282.03 227.11 282.33C227.28 282.35 228.71 282.44 228.9 282.47C254.1 284.22 300.69 286.48 347.7 283.65C348.69 283.6 349.68 283.54 350.68 283.47C357.98 283.01 365.26 282.42 372.46 281.69C375.91 281.32 379 283.82 379.36 287.26C379.39 287.64 379.4 288 379.37 288.37C379.37 288.37 379.35 288.67 379.32 289.25C379.32 289.26 379.32 289.28 379.32 289.31Z" id="cvuZLqQPc"></path><path d="M312.88 327.42L376.59 326.82L376.78 326.82L376.78 326.72L377.37 318.72L377.62 315.15L378.6 301.68C379.06 295.29 379.32 291.74 379.37 291.02C379.37 290.86 379.37 290.77 379.37 290.76C379.4 290.27 379.38 289.77 379.31 289.29C379.31 289.26 379.31 289.24 379.31 289.23C379.14 288.22 378.73 287.27 378.11 286.46C376.78 284.75 374.65 283.85 372.5 284.08C365.29 284.82 358.01 285.41 350.72 285.87C349.73 285.94 348.73 286 347.74 286.05C300.73 288.85 254.13 286.58 228.93 284.86C228.76 284.85 227.33 284.74 227.14 284.73C222.78 284.42 219.13 284.14 216.32 283.9C213.12 283.62 210.22 285.81 209.63 288.97C209.56 289.3 209.53 289.62 209.52 289.95C209.49 290.83 209.35 295.23 209.11 303.15C209.07 304.26 208.89 309.83 208.56 319.87L208.3 328.41L208.3 328.58L208.3 329.08L208.29 328.56L312.88 327.42Z" id="a1nww8ybd"></path><path d="M312.88 327.42L376.59 326.82L376.78 326.82L376.78 326.72L377.37 318.72L377.62 315.15L378.6 301.68C379.06 295.29 379.32 291.74 379.37 291.02C379.37 290.86 379.37 290.77 379.37 290.76C379.4 290.27 379.38 289.77 379.31 289.29C379.31 289.26 379.31 289.24 379.31 289.23C379.14 288.22 378.73 287.27 378.11 286.46C376.78 284.75 374.65 283.85 372.5 284.08C365.29 284.82 358.01 285.41 350.72 285.87C349.73 285.94 348.73 286 347.74 286.05C300.73 288.85 254.13 286.58 228.93 284.86C228.76 284.85 227.33 284.74 227.14 284.73C222.78 284.42 219.13 284.14 216.32 283.9C213.12 283.62 210.22 285.81 209.63 288.97C209.56 289.3 209.53 289.62 209.52 289.95C209.49 290.83 209.35 295.23 209.11 303.15C209.07 304.26 208.89 309.83 208.56 319.87L208.3 328.41L208.3 328.58L208.3 329.08L208.29 328.56L312.88 327.42Z" id="d2Jjexfq6y"></path><path d="M377.73 315.31L377.46 318.72L376.86 326.35L376.83 326.73L376.83 326.83L376.83 326.83L376.73 327.71L376.8 326.83L376.63 326.83L312.91 327.42L208.3 328.56L208.3 328.39L208.59 319.83C208.95 309.81 209.15 304.24 209.19 303.12C209.42 296.46 209.54 292.76 209.57 292.03C209.61 290.74 210.3 289.56 211.39 288.89C212.07 288.48 212.85 288.3 213.64 288.36C214.9 288.46 216.43 288.58 218.22 288.71C221.13 288.92 224.73 289.18 228.91 289.44C236.64 289.92 246.36 290.45 257.49 290.88C288.46 292.07 330.27 292.47 369.98 288.99C371.76 288.84 373.61 288.66 375.41 288.49C376.13 288.42 376.85 288.55 377.49 288.88C377.67 288.97 377.84 289.08 378 289.21C378.51 289.58 378.93 290.09 379.18 290.67C379.25 290.78 379.31 290.9 379.34 291.04C379.51 291.53 379.59 292.05 379.55 292.58C379.46 293.8 379.21 296.83 378.82 301.71C378.68 303.52 378.31 308.06 377.73 315.31Z" id="b2HmB3SpV"></path><path d="M377.73 315.31L377.46 318.72L376.86 326.35L376.83 326.73L376.83 326.83L376.83 326.83L376.73 327.71L376.8 326.83L376.63 326.83L312.91 327.42L208.3 328.56L208.3 328.39L208.59 319.83C208.95 309.81 209.15 304.24 209.19 303.12C209.42 296.46 209.54 292.76 209.57 292.03C209.61 290.74 210.3 289.56 211.39 288.89C212.07 288.48 212.85 288.3 213.64 288.36C214.9 288.46 216.43 288.58 218.22 288.71C221.13 288.92 224.73 289.18 228.91 289.44C236.64 289.92 246.36 290.45 257.49 290.88C288.46 292.07 330.27 292.47 369.98 288.99C371.76 288.84 373.61 288.66 375.41 288.49C376.13 288.42 376.85 288.55 377.49 288.88C377.67 288.97 377.84 289.08 378 289.21C378.51 289.58 378.93 290.09 379.18 290.67C379.25 290.78 379.31 290.9 379.34 291.04C379.51 291.53 379.59 292.05 379.55 292.58C379.46 293.8 379.21 296.83 378.82 301.71C378.68 303.52 378.31 308.06 377.73 315.31Z" id="aj5XymU5i"></path><path d="M177.53 302.63C177.53 304.04 176.72 305.32 175.45 305.93C173.06 305.97 153.96 306.34 151.57 306.38C150.27 305.79 149.44 304.5 149.44 303.07C149.44 302.95 149.44 302.35 149.44 301.28C151.31 301.24 160.67 301.06 177.53 300.73C177.53 301.91 177.53 302.54 177.53 302.63Z" id="a55NEaGKk"></path><path d="M177.53 302.63C177.53 304.04 176.72 305.32 175.45 305.93C173.06 305.97 153.96 306.34 151.57 306.38C150.27 305.79 149.44 304.5 149.44 303.07C149.44 302.95 149.44 302.35 149.44 301.28C151.31 301.24 160.67 301.06 177.53 300.73C177.53 301.91 177.53 302.54 177.53 302.63Z" id="c12bINf0xg"></path><path d="M146.71 302.48L177.83 301.88L177.83 307.04L177.83 307.04L146.71 307.65L146.71 302.48Z" id="f2fcFqcQUe"></path><path d="M146.71 302.48L177.83 301.88L177.83 307.04L177.83 307.04L146.71 307.65L146.71 302.48Z" id="a3LJPZcokT"></path><path d="M146.71 302.48L177.83 301.88L177.83 307.04L177.83 307.04L146.71 307.65L146.71 302.48Z" id="a5FlFwXmat"></path><path d="M146.71 302.48L177.83 301.88L177.83 307.04L177.83 307.04L146.71 307.65L146.71 302.48Z" id="d4F6kbhhWE"></path><path d="M147.91 302.48L179.02 301.88L179.02 307.04L179.02 307.04L147.91 307.65L147.91 302.48Z" id="b1K2sWgBnB"></path><path d="M147.91 302.48L179.02 301.88L179.02 307.04L179.02 307.04L147.91 307.65L147.91 302.48Z" id="a2RwgAbwKr"></path><path d="M281.16 112.52C281.46 112.48 281.76 112.44 282.04 112.36C281.46 111.6 281.07 110.71 280.92 109.78C280.78 110.69 280.85 111.64 281.16 112.52Z" id="b2DrhdRLAN"></path><path d="M281.16 112.52C281.46 112.48 281.76 112.44 282.04 112.36C281.46 111.6 281.07 110.71 280.92 109.78C280.78 110.69 280.85 111.64 281.16 112.52Z" id="b2zEWDp36O"></path><path d="M274.25 114.11C274.25 114.84 274.25 115.58 274.25 116.32C274.3 116.32 274.43 116.31 274.47 116.31C274.36 115.58 274.29 114.85 274.25 114.11Z" id="e6IgOcaeN"></path><path d="M274.25 114.11C274.25 114.84 274.25 115.58 274.25 116.32C274.3 116.32 274.43 116.31 274.47 116.31C274.36 115.58 274.29 114.85 274.25 114.11Z" id="ajBLfJPXB"></path><path d="M323.7 131.81C323.69 131.6 323.66 131.39 323.61 131.18C323.51 131.73 323.35 132.28 323.23 132.82C322.98 133.92 322.92 135.06 323.02 136.19C323.05 135.66 323.12 135.13 323.23 134.6C323.51 133.7 323.67 132.77 323.7 131.81Z" id="b9yTrXZDO"></path><path d="M323.7 131.81C323.69 131.6 323.66 131.39 323.61 131.18C323.51 131.73 323.35 132.28 323.23 132.82C322.98 133.92 322.92 135.06 323.02 136.19C323.05 135.66 323.12 135.13 323.23 134.6C323.51 133.7 323.67 132.77 323.7 131.81Z" id="auut94Uxg"></path><path d="M312.81 116.94C313.26 116.3 313.35 115.47 313.03 114.76C312.97 114.9 312.9 115.02 312.81 115.14C312.07 116.09 310.46 116.61 310.63 117.78C310.75 117.87 311.21 118.2 311.28 118.26C311.82 117.86 312.34 117.41 312.81 116.94Z" id="aHITLQWC9"></path><path d="M312.81 116.94C313.26 116.3 313.35 115.47 313.03 114.76C312.97 114.9 312.9 115.02 312.81 115.14C312.07 116.09 310.46 116.61 310.63 117.78C310.75 117.87 311.21 118.2 311.28 118.26C311.82 117.86 312.34 117.41 312.81 116.94Z" id="gUvEzKnYy"></path><path d="M261.18 124.87C262.11 124.35 263.11 123.97 264.16 123.75C263.66 123.7 262.19 123.56 261.69 123.52C261.47 123.95 261.3 124.41 261.18 124.87Z" id="d2IOIpZla7"></path><path d="M261.18 124.87C262.11 124.35 263.11 123.97 264.16 123.75C263.66 123.7 262.19 123.56 261.69 123.52C261.47 123.95 261.3 124.41 261.18 124.87Z" id="e5HD1vSaNM"></path><path d="M268.84 117C269.19 116.98 269.55 116.99 269.91 117.04C269.51 116.82 269.14 116.57 268.79 116.3C268.77 116.54 268.79 116.77 268.84 117Z" id="h7c5v0Wgv"></path><path d="M268.84 117C269.19 116.98 269.55 116.99 269.91 117.04C269.51 116.82 269.14 116.57 268.79 116.3C268.77 116.54 268.79 116.77 268.84 117Z" id="adzXV5GNE"></path><path d="M321.1 177.69C320.28 182.93 319.32 188.87 314.86 191.76C313.58 192.53 312.22 193.12 310.79 193.55C304.37 195.78 297.89 198 291.14 198.81C284.37 199.63 277.28 198.91 271.38 195.54C269.68 194.65 268.22 193.36 267.12 191.77C265.52 189.25 265.49 186.1 264.73 183.21C264.08 181.07 263.29 178.98 262.35 176.95C261.03 173.74 260.02 170.4 259.01 167.11C257.61 162.51 256.5 158.84 256.21 157.91C255.92 156.99 255.69 156.04 255.54 155.09C255.31 156.62 255.76 158.21 256.21 159.71C257.61 164.3 258.73 167.97 259.01 168.89C260.02 172.21 261.03 175.54 262.35 178.74C263.29 180.77 264.08 182.86 264.73 185C265.48 187.88 265.51 191.03 267.12 193.55C268.22 195.14 269.68 196.44 271.38 197.33C277.28 200.7 284.4 201.41 291.14 200.59C297.87 199.79 304.34 197.56 310.79 195.34C312.22 194.92 313.58 194.31 314.86 193.55C319.29 190.65 320.28 184.71 321.1 179.47C322.03 173.63 323.26 167.81 325.45 162.31C326.75 159.06 328.43 155.74 328.14 152.23C328.14 152.19 328.13 152.16 328.13 152.13C327.88 155.01 326.54 157.79 325.45 160.53C323.26 166.02 322.03 171.85 321.1 177.69Z" id="g90UUR7wN"></path><path d="M321.1 177.69C320.28 182.93 319.32 188.87 314.86 191.76C313.58 192.53 312.22 193.12 310.79 193.55C304.37 195.78 297.89 198 291.14 198.81C284.37 199.63 277.28 198.91 271.38 195.54C269.68 194.65 268.22 193.36 267.12 191.77C265.52 189.25 265.49 186.1 264.73 183.21C264.08 181.07 263.29 178.98 262.35 176.95C261.03 173.74 260.02 170.4 259.01 167.11C257.61 162.51 256.5 158.84 256.21 157.91C255.92 156.99 255.69 156.04 255.54 155.09C255.31 156.62 255.76 158.21 256.21 159.71C257.61 164.3 258.73 167.97 259.01 168.89C260.02 172.21 261.03 175.54 262.35 178.74C263.29 180.77 264.08 182.86 264.73 185C265.48 187.88 265.51 191.03 267.12 193.55C268.22 195.14 269.68 196.44 271.38 197.33C277.28 200.7 284.4 201.41 291.14 200.59C297.87 199.79 304.34 197.56 310.79 195.34C312.22 194.92 313.58 194.31 314.86 193.55C319.29 190.65 320.28 184.71 321.1 179.47C322.03 173.63 323.26 167.81 325.45 162.31C326.75 159.06 328.43 155.74 328.14 152.23C328.14 152.19 328.13 152.16 328.13 152.13C327.88 155.01 326.54 157.79 325.45 160.53C323.26 166.02 322.03 171.85 321.1 177.69Z" id="b2OOuTg16b"></path><path d="M256.58 146.63C256.46 145.97 256.38 145.31 256.35 144.65C256.28 145.91 256.36 147.17 256.58 148.41C256.68 148.87 256.77 149.34 256.85 149.82C256.85 149.81 256.85 149.77 256.85 149.75C256.96 148.71 256.86 147.64 256.58 146.63Z" id="bIOnuoqfY"></path><path d="M256.58 146.63C256.46 145.97 256.38 145.31 256.35 144.65C256.28 145.91 256.36 147.17 256.58 148.41C256.68 148.87 256.77 149.34 256.85 149.82C256.85 149.81 256.85 149.77 256.85 149.75C256.96 148.71 256.86 147.64 256.58 146.63Z" id="gS1XmTqoH"></path><path d="M256.7 131.73C256.54 132.32 256.54 132.93 256.7 133.52C256.99 134.41 257.74 135.07 258.67 135.25C259.13 134.48 259.65 133.75 260.22 133.06C259.13 134.11 257.12 133.17 256.7 131.73Z" id="b6vc8kx4K7"></path><path d="M256.7 131.73C256.54 132.32 256.54 132.93 256.7 133.52C256.99 134.41 257.74 135.07 258.67 135.25C259.13 134.48 259.65 133.75 260.22 133.06C259.13 134.11 257.12 133.17 256.7 131.73Z" id="ag5ofU2eC"></path><path d="M407.41 288.04C407.41 290.61 409.29 294.9 407.41 300.85C405.52 306.8 407.41 290.6 407.41 288.04Z" id="b3XOJ481lw"></path><path d="M407.41 288.04C407.41 290.61 409.29 294.9 407.41 300.85C405.52 306.8 407.41 290.6 407.41 288.04Z" id="byfEWBMaP"></path><path d="M415.44 295.03C415.24 297.07 416.23 303.72 414.45 305.27C412.67 306.81 415.24 297.08 415.44 295.03Z" id="d14lfZnvlf"></path><path d="M415.44 295.03C415.24 297.07 416.23 303.72 414.45 305.27C412.67 306.81 415.24 297.08 415.44 295.03Z" id="a1jJyADuSS"></path><path d="M118.5 204.19L179.02 203.6" id="ac4Ah8U0d"></path><path d="M118.5 204.19L179.02 203.6" id="dauSDLfHz"></path><path d="M118.5 211.62L179.02 211.03" id="bYfB9W2o"></path><path d="M118.5 211.62L179.02 211.03" id="akqpkefz"></path><path d="M118.5 219.05L179.02 218.46" id="b5U2tC4vJ"></path><path d="M118.5 219.05L179.02 218.46" id="a4uo2fXUVi"></path></defs><g><g><g><use xlink:href="#a1fknSBK9r" opacity="1" fill="#3771a6" fill-opacity="1"></use><g><use xlink:href="#a1fknSBK9r" opacity="1" fill-opacity="0" stroke="#000000" stroke-width="1" stroke-opacity="0"></use></g></g><g><use xlink:href="#f1cgeFzJhU" opacity="1" fill="#000000" fill-opacity="0"></use><g><use xlink:href="#f1cgeFzJhU" opacity="1" fill-opacity="0" stroke="#000000" stroke-width="1" stroke-opacity="0"></use></g></g><g><use xlink:href="#d1aIsmNVkZ" opacity="1" fill="#3771a6" fill-opacity="1"></use><g><use xlink:href="#d1aIsmNVkZ" opacity="1" fill-opacity="0" stroke="#000000" stroke-width="1" stroke-opacity="0"></use></g></g><g><use xlink:href="#b3vA8toCu9" opacity="1" fill="#000000" fill-opacity="0"></use><g><use xlink:href="#b3vA8toCu9" opacity="1" fill-opacity="0" stroke="#000000" stroke-width="1" stroke-opacity="0"></use></g></g><g><use xlink:href="#c3q3X8V9cC" opacity="1" fill="#3771a6" fill-opacity="1"></use><g><use xlink:href="#c3q3X8V9cC" opacity="1" fill-opacity="0" stroke="#000000" stroke-width="1" stroke-opacity="0"></use></g></g><g><use xlink:href="#c11nRdgDoF" opacity="1" fill="#000000" fill-opacity="0"></use><g><use xlink:href="#c11nRdgDoF" opacity="1" fill-opacity="0" stroke="#000000" stroke-width="1" stroke-opacity="0"></use></g></g><g><use xlink:href="#adirl03H3" opacity="1" fill="#3771a6" fill-opacity="1"></use><g><use xlink:href="#adirl03H3" opacity="1" fill-opacity="0" stroke="#000000" stroke-width="1" stroke-opacity="0"></use></g></g><g><use xlink:href="#f4Qd6hKKxq" opacity="1" fill="#000000" fill-opacity="0"></use><g><use xlink:href="#f4Qd6hKKxq" opacity="1" fill-opacity="0" stroke="#000000" stroke-width="1" stroke-opacity="0"></use></g></g><g><use xlink:href="#g1uUf2xXvN" opacity="1" fill="#3771a6" fill-opacity="1"></use><g><use xlink:href="#g1uUf2xXvN" opacity="1" fill-opacity="0" stroke="#000000" stroke-width="1" stroke-opacity="0"></use></g></g><g><use xlink:href="#b4wwbgBufP" opacity="1" fill="#000000" fill-opacity="0"></use><g><use xlink:href="#b4wwbgBufP" opacity="1" fill-opacity="0" stroke="#000000" stroke-width="1" stroke-opacity="0"></use></g></g><g><use xlink:href="#d3ic4Z9BWW" opacity="1" fill="#3771a6" fill-opacity="1"></use><g><use xlink:href="#d3ic4Z9BWW" opacity="1" fill-opacity="0" stroke="#000000" stroke-width="1" stroke-opacity="0"></use></g></g><g><use xlink:href="#e1zppIg8X" opacity="1" fill="#000000" fill-opacity="0"></use><g><use xlink:href="#e1zppIg8X" opacity="1" fill-opacity="0" stroke="#000000" stroke-width="1" stroke-opacity="0"></use></g></g><g><use xlink:href="#d235JTfEcn" opacity="1" fill="#3771a6" fill-opacity="1"></use><g><use xlink:href="#d235JTfEcn" opacity="1" fill-opacity="0" stroke="#000000" stroke-width="1" stroke-opacity="0"></use></g></g><g><use xlink:href="#cbIEaovSO" opacity="1" fill="#000000" fill-opacity="0"></use><g><use xlink:href="#cbIEaovSO" opacity="1" fill-opacity="0" stroke="#000000" stroke-width="1" stroke-opacity="0"></use></g></g><g><use xlink:href="#e5D5WKUwtz" opacity="1" fill="#3f3d56" fill-opacity="1"></use><g><use xlink:href="#e5D5WKUwtz" opacity="1" fill-opacity="0" stroke="#000000" stroke-width="1" stroke-opacity="0"></use></g></g><g><use xlink:href="#awQBcpz7x" opacity="1" fill="#000000" fill-opacity="0"></use><g><use xlink:href="#awQBcpz7x" opacity="1" fill-opacity="0" stroke="#000000" stroke-width="1" stroke-opacity="0"></use></g></g><g><use xlink:href="#b1VZGgRaY1" opacity="1" fill="#3f3d56" fill-opacity="1"></use><g><use xlink:href="#b1VZGgRaY1" opacity="1" fill-opacity="0" stroke="#000000" stroke-width="1" stroke-opacity="0"></use></g></g><g><use xlink:href="#a10FeUmmf2" opacity="1" fill="#000000" fill-opacity="0"></use><g><use xlink:href="#a10FeUmmf2" opacity="1" fill-opacity="0" stroke="#000000" stroke-width="1" stroke-opacity="0"></use></g></g><g><use xlink:href="#a1KVBNCsOZ" opacity="1" fill="#65617d" fill-opacity="1"></use><g><use xlink:href="#a1KVBNCsOZ" opacity="1" fill-opacity="0" stroke="#000000" stroke-width="1" stroke-opacity="0"></use></g></g><g><use xlink:href="#a6ifwVH12g" opacity="1" fill="#000000" fill-opacity="0"></use><g><use xlink:href="#a6ifwVH12g" opacity="1" fill-opacity="0" stroke="#000000" stroke-width="1" stroke-opacity="0"></use></g></g><g><use xlink:href="#bmkLqtsrS" opacity="1" fill="#000000" fill-opacity="1"></use><g><use xlink:href="#bmkLqtsrS" opacity="1" fill-opacity="0" stroke="#000000" stroke-width="1" stroke-opacity="0"></use></g></g><g><use xlink:href="#b1TBmn2L9Q" opacity="1" fill="#000000" fill-opacity="0"></use><g><use xlink:href="#b1TBmn2L9Q" opacity="1" fill-opacity="0" stroke="#000000" stroke-width="1" stroke-opacity="0"></use></g></g><g><use xlink:href="#b1OoGklhv" opacity="1" fill="#3f3d56" fill-opacity="1"></use><g><use xlink:href="#b1OoGklhv" opacity="1" fill-opacity="0" stroke="#000000" stroke-width="1" stroke-opacity="0"></use></g></g><g><use xlink:href="#a5WVDGlBg" opacity="1" fill="#000000" fill-opacity="0"></use><g><use xlink:href="#a5WVDGlBg" opacity="1" fill-opacity="0" stroke="#000000" stroke-width="1" stroke-opacity="0"></use></g></g><g><use xlink:href="#ajtESBK65" opacity="1" fill="#000000" fill-opacity="1"></use><g><use xlink:href="#ajtESBK65" opacity="1" fill-opacity="0" stroke="#000000" stroke-width="1" stroke-opacity="0"></use></g></g><g><use xlink:href="#b1AzZUBmYd" opacity="1" fill="#000000" fill-opacity="0"></use><g><use xlink:href="#b1AzZUBmYd" opacity="1" fill-opacity="0" stroke="#000000" stroke-width="1" stroke-opacity="0"></use></g></g><g><use xlink:href="#a2ncmpT6rD" opacity="1" fill="#3f3d56" fill-opacity="1"></use><g><use xlink:href="#a2ncmpT6rD" opacity="1" fill-opacity="0" stroke="#000000" stroke-width="1" stroke-opacity="0"></use></g></g><g><use xlink:href="#b3UaYVx1n3" opacity="1" fill="#000000" fill-opacity="0"></use><g><use xlink:href="#b3UaYVx1n3" opacity="1" fill-opacity="0" stroke="#000000" stroke-width="1" stroke-opacity="0"></use></g></g><g><use xlink:href="#bQeaXkmAZ" opacity="1" fill="#3f3d56" fill-opacity="1"></use><g><use xlink:href="#bQeaXkmAZ" opacity="1" fill-opacity="0" stroke="#000000" stroke-width="1" stroke-opacity="0"></use></g></g><g><use xlink:href="#a1jZwdzNBq" opacity="1" fill="#000000" fill-opacity="0"></use><g><use xlink:href="#a1jZwdzNBq" opacity="1" fill-opacity="0" stroke="#000000" stroke-width="1" stroke-opacity="0"></use></g></g><g><use xlink:href="#a5fNcGuqZ" opacity="1" fill="#000000" fill-opacity="1"></use><g><use xlink:href="#a5fNcGuqZ" opacity="1" fill-opacity="0" stroke="#000000" stroke-width="1" stroke-opacity="0"></use></g></g><g><use xlink:href="#a1u4x6REcR" opacity="1" fill="#000000" fill-opacity="0"></use><g><use xlink:href="#a1u4x6REcR" opacity="1" fill-opacity="0" stroke="#000000" stroke-width="1" stroke-opacity="0"></use></g></g><g><use xlink:href="#bpwWKk3d" opacity="1" fill="#3f3d56" fill-opacity="1"></use><g><use xlink:href="#bpwWKk3d" opacity="1" fill-opacity="0" stroke="#000000" stroke-width="1" stroke-opacity="0"></use></g></g><g><use xlink:href="#bSXioKDCt" opacity="1" fill="#000000" fill-opacity="0"></use><g><use xlink:href="#bSXioKDCt" opacity="1" fill-opacity="0" stroke="#000000" stroke-width="1" stroke-opacity="0"></use></g></g><g><use xlink:href="#c32YrLhuh" opacity="1" fill="#000000" fill-opacity="1"></use><g><use xlink:href="#c32YrLhuh" opacity="1" fill-opacity="0" stroke="#000000" stroke-width="1" stroke-opacity="0"></use></g></g><g><use xlink:href="#b4QxIz3t8" opacity="1" fill="#000000" fill-opacity="0"></use><g><use xlink:href="#b4QxIz3t8" opacity="1" fill-opacity="0" stroke="#000000" stroke-width="1" stroke-opacity="0"></use></g></g><g><use xlink:href="#d6C3d8B3RZ" opacity="1" fill="#949494" fill-opacity="1"></use><g><use xlink:href="#d6C3d8B3RZ" opacity="1" fill-opacity="0" stroke="#000000" stroke-width="1" stroke-opacity="0"></use></g></g><g><use xlink:href="#c2VPHP50Hf" opacity="1" fill="#3771a6" fill-opacity="1"></use><g><use xlink:href="#c2VPHP50Hf" opacity="1" fill-opacity="0" stroke="#000000" stroke-width="1" stroke-opacity="0"></use></g></g><g><use xlink:href="#a1uoeiPHy5" opacity="1" fill="#000000" fill-opacity="0"></use><g><use xlink:href="#a1uoeiPHy5" opacity="1" fill-opacity="0" stroke="#000000" stroke-width="1" stroke-opacity="0"></use></g></g><g><use xlink:href="#fxMnzuhID" opacity="1" fill="#949494" fill-opacity="1"></use><g><use xlink:href="#fxMnzuhID" opacity="1" fill-opacity="0" stroke="#000000" stroke-width="1" stroke-opacity="0"></use></g></g><g><use xlink:href="#c15QDEQ3T" opacity="1" fill="#3771a6" fill-opacity="1"></use><g><use xlink:href="#c15QDEQ3T" opacity="1" fill-opacity="0" stroke="#000000" stroke-width="1" stroke-opacity="0"></use></g></g><g><use xlink:href="#caI21HvaW" opacity="1" fill="#000000" fill-opacity="0"></use><g><use xlink:href="#caI21HvaW" opacity="1" fill-opacity="0" stroke="#000000" stroke-width="1" stroke-opacity="0"></use></g></g><g><use xlink:href="#fyTJyHfxk" opacity="1" fill="#000000" fill-opacity="1"></use><g><use xlink:href="#fyTJyHfxk" opacity="1" fill-opacity="0" stroke="#000000" stroke-width="1" stroke-opacity="0"></use></g></g><g><use xlink:href="#cbXlBN6I" opacity="1" fill="#000000" fill-opacity="0"></use><g><use xlink:href="#cbXlBN6I" opacity="1" fill-opacity="0" stroke="#000000" stroke-width="1" stroke-opacity="0"></use></g></g><g><use xlink:href="#cuAU9HA1O" opacity="1" fill="#949494" fill-opacity="1"></use><g><use xlink:href="#cuAU9HA1O" opacity="1" fill-opacity="0" stroke="#000000" stroke-width="1" stroke-opacity="0"></use></g></g><g><use xlink:href="#b1L6b6LkfA" opacity="1" fill="#3771a6" fill-opacity="1"></use><g><use xlink:href="#b1L6b6LkfA" opacity="1" fill-opacity="0" stroke="#000000" stroke-width="1" stroke-opacity="0"></use></g></g><g><use xlink:href="#a1gE5NIvmo" opacity="1" fill="#000000" fill-opacity="0"></use><g><use xlink:href="#a1gE5NIvmo" opacity="1" fill-opacity="0" stroke="#000000" stroke-width="1" stroke-opacity="0"></use></g></g><g><use xlink:href="#a2uwcnFHlf" opacity="1" fill="#000000" fill-opacity="1"></use><g><use xlink:href="#a2uwcnFHlf" opacity="1" fill-opacity="0" stroke="#000000" stroke-width="1" stroke-opacity="0"></use></g></g><g><use xlink:href="#bbmOG40hO" opacity="1" fill="#000000" fill-opacity="0"></use><g><use xlink:href="#bbmOG40hO" opacity="1" fill-opacity="0" stroke="#000000" stroke-width="1" stroke-opacity="0"></use></g></g><g><use xlink:href="#d1Ry0h4U6a" opacity="1" fill="#000000" fill-opacity="1"></use><g><use xlink:href="#d1Ry0h4U6a" opacity="1" fill-opacity="0" stroke="#000000" stroke-width="1" stroke-opacity="0"></use></g></g><g><use xlink:href="#c2Hey8Po2v" opacity="1" fill="#000000" fill-opacity="0"></use><g><use xlink:href="#c2Hey8Po2v" opacity="1" fill-opacity="0" stroke="#000000" stroke-width="1" stroke-opacity="0"></use></g></g><g><use xlink:href="#eINcpIWQq" opacity="1" fill="#000000" fill-opacity="1"></use><g><use xlink:href="#eINcpIWQq" opacity="1" fill-opacity="0" stroke="#000000" stroke-width="1" stroke-opacity="0"></use></g></g><g><use xlink:href="#jJHGxt6NH" opacity="1" fill="#000000" fill-opacity="0"></use><g><use xlink:href="#jJHGxt6NH" opacity="1" fill-opacity="0" stroke="#000000" stroke-width="1" stroke-opacity="0"></use></g></g><g><use xlink:href="#c2awVHPP9" opacity="1" fill="#000000" fill-opacity="1"></use><g><use xlink:href="#c2awVHPP9" opacity="1" fill-opacity="0" stroke="#000000" stroke-width="1" stroke-opacity="0"></use></g></g><g><use xlink:href="#ccCuwNgVw" opacity="1" fill="#000000" fill-opacity="0"></use><g><use xlink:href="#ccCuwNgVw" opacity="1" fill-opacity="0" stroke="#000000" stroke-width="1" stroke-opacity="0"></use></g></g><g><use xlink:href="#dgXwlysrs" opacity="1" fill="#949494" fill-opacity="1"></use><g><use xlink:href="#dgXwlysrs" opacity="1" fill-opacity="0" stroke="#000000" stroke-width="1" stroke-opacity="0"></use></g></g><g><use xlink:href="#gr7gd3kTO" opacity="1" fill="#000000" fill-opacity="1"></use><g><use xlink:href="#gr7gd3kTO" opacity="1" fill-opacity="0" stroke="#000000" stroke-width="1" stroke-opacity="0"></use></g></g><g><use xlink:href="#b3Le10SgT" opacity="1" fill="#000000" fill-opacity="0"></use><g><use xlink:href="#b3Le10SgT" opacity="1" fill-opacity="0" stroke="#000000" stroke-width="1" stroke-opacity="0"></use></g></g><g><use xlink:href="#h3QsMNpMD" opacity="1" fill="#d4dfec" fill-opacity="1"></use><g><use xlink:href="#h3QsMNpMD" opacity="1" fill-opacity="0" stroke="#000000" stroke-width="1" stroke-opacity="0"></use></g></g><g><use xlink:href="#aTWX95nQ2" opacity="1" fill="#000000" fill-opacity="0"></use><g><use xlink:href="#aTWX95nQ2" opacity="1" fill-opacity="0" stroke="#000000" stroke-width="1" stroke-opacity="0"></use></g></g><g><use xlink:href="#ail5Q8PE2" opacity="1" fill="#000000" fill-opacity="1"></use><g><use xlink:href="#ail5Q8PE2" opacity="1" fill-opacity="0" stroke="#000000" stroke-width="1" stroke-opacity="0"></use></g></g><g><use xlink:href="#b98oLAMRp" opacity="1" fill="#000000" fill-opacity="0"></use><g><use xlink:href="#b98oLAMRp" opacity="1" fill-opacity="0" stroke="#000000" stroke-width="1" stroke-opacity="0"></use></g></g><g><use xlink:href="#a6APV7y59Q" opacity="1" fill="#000000" fill-opacity="1"></use><g><use xlink:href="#a6APV7y59Q" opacity="1" fill-opacity="0" stroke="#000000" stroke-width="1" stroke-opacity="0"></use></g></g><g><use xlink:href="#d3j3DaOkoE" opacity="1" fill="#000000" fill-opacity="0"></use><g><use xlink:href="#d3j3DaOkoE" opacity="1" fill-opacity="0" stroke="#000000" stroke-width="1" stroke-opacity="0"></use></g></g><g><use xlink:href="#cWKurGam0" opacity="1" fill="#949494" fill-opacity="1"></use><g><use xlink:href="#cWKurGam0" opacity="1" fill-opacity="0" stroke="#000000" stroke-width="1" stroke-opacity="0"></use></g></g><g><use xlink:href="#g165FfdUM" opacity="1" fill="#000000" fill-opacity="1"></use><g><use xlink:href="#g165FfdUM" opacity="1" fill-opacity="0" stroke="#000000" stroke-width="1" stroke-opacity="0"></use></g></g><g><use xlink:href="#ecXbalPEV" opacity="1" fill="#000000" fill-opacity="0"></use><g><use xlink:href="#ecXbalPEV" opacity="1" fill-opacity="0" stroke="#000000" stroke-width="1" stroke-opacity="0"></use></g></g><g><use xlink:href="#dCOG3iH9V" opacity="1" fill="#d4dfec" fill-opacity="1"></use><g><use xlink:href="#dCOG3iH9V" opacity="1" fill-opacity="0" stroke="#000000" stroke-width="1" stroke-opacity="0"></use></g></g><g><use xlink:href="#b60kGkc8sp" opacity="1" fill="#000000" fill-opacity="0"></use><g><use xlink:href="#b60kGkc8sp" opacity="1" fill-opacity="0" stroke="#000000" stroke-width="1" stroke-opacity="0"></use></g></g><g><use xlink:href="#bB3NGWr73" opacity="1" fill="#949494" fill-opacity="1"></use><g><use xlink:href="#bB3NGWr73" opacity="1" fill-opacity="0" stroke="#000000" stroke-width="1" stroke-opacity="0"></use></g></g><g><use xlink:href="#aY3YgfrvU" opacity="1" fill="#d4dfec" fill-opacity="1"></use><g><use xlink:href="#aY3YgfrvU" opacity="1" fill-opacity="0" stroke="#000000" stroke-width="1" stroke-opacity="0"></use></g></g><g><use xlink:href="#brLp8pjOH" opacity="1" fill="#000000" fill-opacity="0"></use><g><use xlink:href="#brLp8pjOH" opacity="1" fill-opacity="0" stroke="#000000" stroke-width="1" stroke-opacity="0"></use></g></g><g><use xlink:href="#aLg7ehhbU" opacity="1" fill="#000000" fill-opacity="1"></use><g><use xlink:href="#aLg7ehhbU" opacity="1" fill-opacity="0" stroke="#000000" stroke-width="1" stroke-opacity="0"></use></g></g><g><use xlink:href="#c35VVlz9aG" opacity="1" fill="#000000" fill-opacity="0"></use><g><use xlink:href="#c35VVlz9aG" opacity="1" fill-opacity="0" stroke="#000000" stroke-width="1" stroke-opacity="0"></use></g></g><g><use xlink:href="#aaDfcfmuF" opacity="1" fill="#fbbebe" fill-opacity="1"></use><g><use xlink:href="#aaDfcfmuF" opacity="1" fill-opacity="0" stroke="#000000" stroke-width="1" stroke-opacity="0"></use></g></g><g><use xlink:href="#a3uq2OotP" opacity="1" fill="#000000" fill-opacity="0"></use><g><use xlink:href="#a3uq2OotP" opacity="1" fill-opacity="0" stroke="#000000" stroke-width="1" stroke-opacity="0"></use></g></g><g><use xlink:href="#aaoRkEaMD" opacity="1" fill="url(#gradienta2Ub50fJfB)"></use><g><use xlink:href="#aaoRkEaMD" opacity="1" fill-opacity="0" stroke="#000000" stroke-width="1" stroke-opacity="0"></use></g></g><g><use xlink:href="#hdGpssT3l" opacity="1" fill="#000000" fill-opacity="0"></use><g><use xlink:href="#hdGpssT3l" opacity="1" fill-opacity="0" stroke="#000000" stroke-width="1" stroke-opacity="0"></use></g></g><g><use xlink:href="#cyzw1uwPu" opacity="1" fill="#fbbebe" fill-opacity="1"></use><g><use xlink:href="#cyzw1uwPu" opacity="1" fill-opacity="0" stroke="#000000" stroke-width="1" stroke-opacity="0"></use></g></g><g><use xlink:href="#a234LePb3l" opacity="1" fill="#000000" fill-opacity="0"></use><g><use xlink:href="#a234LePb3l" opacity="1" fill-opacity="0" stroke="#000000" stroke-width="1" stroke-opacity="0"></use></g></g><g><use xlink:href="#a1FpnvlJXA" opacity="1" fill="#000000" fill-opacity="1"></use><g><use xlink:href="#a1FpnvlJXA" opacity="1" fill-opacity="0" stroke="#000000" stroke-width="1" stroke-opacity="0"></use></g></g><g><use xlink:href="#a3iPYGl6re" opacity="1" fill="#000000" fill-opacity="0"></use><g><use xlink:href="#a3iPYGl6re" opacity="1" fill-opacity="0" stroke="#000000" stroke-width="1" stroke-opacity="0"></use></g></g><g><use xlink:href="#dORAzJXLu" opacity="1" fill="#3771a6" fill-opacity="1"></use><g><use xlink:href="#dORAzJXLu" opacity="1" fill-opacity="0" stroke="#000000" stroke-width="1" stroke-opacity="0"></use></g></g><g><use xlink:href="#a4GQemIGv" opacity="1" fill="#000000" fill-opacity="0"></use><g><use xlink:href="#a4GQemIGv" opacity="1" fill-opacity="0" stroke="#000000" stroke-width="1" stroke-opacity="0"></use></g></g><g><use xlink:href="#a2mIwQImZZ" opacity="1" fill="#000000" fill-opacity="1"></use><g><use xlink:href="#a2mIwQImZZ" opacity="1" fill-opacity="0" stroke="#000000" stroke-width="1" stroke-opacity="0"></use></g></g><g><use xlink:href="#b7gMuvWAT" opacity="1" fill="#000000" fill-opacity="0"></use><g><use xlink:href="#b7gMuvWAT" opacity="1" fill-opacity="0" stroke="#000000" stroke-width="1" stroke-opacity="0"></use></g></g><g><use xlink:href="#aVoW0KhlG" opacity="1" fill="#000000" fill-opacity="1"></use><g><use xlink:href="#aVoW0KhlG" opacity="1" fill-opacity="0" stroke="#000000" stroke-width="1" stroke-opacity="0"></use></g></g><g><use xlink:href="#asZHc8nOj" opacity="1" fill="#000000" fill-opacity="0"></use><g><use xlink:href="#asZHc8nOj" opacity="1" fill-opacity="0" stroke="#000000" stroke-width="1" stroke-opacity="0"></use></g></g><g><use xlink:href="#e1m9Yb65Rf" opacity="1" fill="#000000" fill-opacity="1"></use><g><use xlink:href="#e1m9Yb65Rf" opacity="1" fill-opacity="0" stroke="#000000" stroke-width="1" stroke-opacity="0"></use></g></g><g><use xlink:href="#hHrCOwTqz" opacity="1" fill="#000000" fill-opacity="0"></use><g><use xlink:href="#hHrCOwTqz" opacity="1" fill-opacity="0" stroke="#000000" stroke-width="1" stroke-opacity="0"></use></g></g><g><use xlink:href="#auhBIxFl3" opacity="1" fill="#3771a6" fill-opacity="1"></use><g><use xlink:href="#auhBIxFl3" opacity="1" fill-opacity="0" stroke="#000000" stroke-width="1" stroke-opacity="0"></use></g></g><g><use xlink:href="#ba5I0z6Yf" opacity="1" fill="#000000" fill-opacity="0"></use><g><use xlink:href="#ba5I0z6Yf" opacity="1" fill-opacity="0" stroke="#000000" stroke-width="1" stroke-opacity="0"></use></g></g><g><use xlink:href="#c15xUpdcPL" opacity="1" fill="#fbbebe" fill-opacity="1"></use><g><use xlink:href="#c15xUpdcPL" opacity="1" fill-opacity="0" stroke="#000000" stroke-width="1" stroke-opacity="0"></use></g></g><g><use xlink:href="#a3oT1qUgiN" opacity="1" fill="#000000" fill-opacity="0"></use><g><use xlink:href="#a3oT1qUgiN" opacity="1" fill-opacity="0" stroke="#000000" stroke-width="1" stroke-opacity="0"></use></g></g><g><use xlink:href="#f4D9z0blsm" opacity="1" fill="#000000" fill-opacity="1"></use><g><use xlink:href="#f4D9z0blsm" opacity="1" fill-opacity="0" stroke="#000000" stroke-width="1" stroke-opacity="0"></use></g></g><g><use xlink:href="#a2m0Grzf17" opacity="1" fill="#000000" fill-opacity="0"></use><g><use xlink:href="#a2m0Grzf17" opacity="1" fill-opacity="0" stroke="#000000" stroke-width="1" stroke-opacity="0"></use></g></g><g><use xlink:href="#aGmME8TSt" opacity="1" fill="#604206" fill-opacity="1"></use><g><use xlink:href="#aGmME8TSt" opacity="1" fill-opacity="0" stroke="#000000" stroke-width="1" stroke-opacity="0"></use></g></g><g><use xlink:href="#caOPtb4cpP" opacity="1" fill="#000000" fill-opacity="0"></use><g><use xlink:href="#caOPtb4cpP" opacity="1" fill-opacity="0" stroke="#000000" stroke-width="1" stroke-opacity="0"></use></g></g><g><use xlink:href="#atRG0ychP" opacity="1" fill="#3771a6" fill-opacity="1"></use><g><use xlink:href="#atRG0ychP" opacity="1" fill-opacity="0" stroke="#000000" stroke-width="1" stroke-opacity="0"></use></g></g><g><use xlink:href="#j33jdn96lS" opacity="1" fill="#000000" fill-opacity="0"></use><g><use xlink:href="#j33jdn96lS" opacity="1" fill-opacity="0" stroke="#000000" stroke-width="1" stroke-opacity="0"></use></g></g><g><use xlink:href="#bn7Ru9s0E" opacity="1" fill="#000000" fill-opacity="1"></use><g><use xlink:href="#bn7Ru9s0E" opacity="1" fill-opacity="0" stroke="#000000" stroke-width="1" stroke-opacity="0"></use></g></g><g><use xlink:href="#cvuZLqQPc" opacity="1" fill="#000000" fill-opacity="0"></use><g><use xlink:href="#cvuZLqQPc" opacity="1" fill-opacity="0" stroke="#000000" stroke-width="1" stroke-opacity="0"></use></g></g><g><use xlink:href="#a1nww8ybd" opacity="1" fill="#3f3d56" fill-opacity="1"></use><g><use xlink:href="#a1nww8ybd" opacity="1" fill-opacity="0" stroke="#000000" stroke-width="1" stroke-opacity="0"></use></g></g><g><use xlink:href="#d2Jjexfq6y" opacity="1" fill="#000000" fill-opacity="0"></use><g><use xlink:href="#d2Jjexfq6y" opacity="1" fill-opacity="0" stroke="#000000" stroke-width="1" stroke-opacity="0"></use></g></g><g><use xlink:href="#b2HmB3SpV" opacity="1" fill="#000000" fill-opacity="1"></use><g><use xlink:href="#b2HmB3SpV" opacity="1" fill-opacity="0" stroke="#000000" stroke-width="1" stroke-opacity="0"></use></g></g><g><use xlink:href="#aj5XymU5i" opacity="1" fill="#000000" fill-opacity="0"></use><g><use xlink:href="#aj5XymU5i" opacity="1" fill-opacity="0" stroke="#000000" stroke-width="1" stroke-opacity="0"></use></g></g><g><use xlink:href="#a55NEaGKk" opacity="1" fill="#000000" fill-opacity="1"></use><g><use xlink:href="#a55NEaGKk" opacity="1" fill-opacity="0" stroke="#000000" stroke-width="1" stroke-opacity="0"></use></g></g><g><use xlink:href="#c12bINf0xg" opacity="1" fill="#000000" fill-opacity="0"></use><g><use xlink:href="#c12bINf0xg" opacity="1" fill-opacity="0" stroke="#000000" stroke-width="1" stroke-opacity="0"></use></g></g><g><use xlink:href="#f2fcFqcQUe" opacity="1" fill="#3f3d56" fill-opacity="1"></use><g><use xlink:href="#f2fcFqcQUe" opacity="1" fill-opacity="0" stroke="#000000" stroke-width="1" stroke-opacity="0"></use></g></g><g><use xlink:href="#a3LJPZcokT" opacity="1" fill="#000000" fill-opacity="0"></use><g><use xlink:href="#a3LJPZcokT" opacity="1" fill-opacity="0" stroke="#000000" stroke-width="1" stroke-opacity="0"></use></g></g><g><use xlink:href="#a5FlFwXmat" opacity="1" fill="#000000" fill-opacity="1"></use><g><use xlink:href="#a5FlFwXmat" opacity="1" fill-opacity="0" stroke="#000000" stroke-width="1" stroke-opacity="0"></use></g></g><g><use xlink:href="#d4F6kbhhWE" opacity="1" fill="#000000" fill-opacity="0"></use><g><use xlink:href="#d4F6kbhhWE" opacity="1" fill-opacity="0" stroke="#000000" stroke-width="1" stroke-opacity="0"></use></g></g><g><use xlink:href="#b1K2sWgBnB" opacity="1" fill="#3f3d56" fill-opacity="1"></use><g><use xlink:href="#b1K2sWgBnB" opacity="1" fill-opacity="0" stroke="#000000" stroke-width="1" stroke-opacity="0"></use></g></g><g><use xlink:href="#a2RwgAbwKr" opacity="1" fill="#000000" fill-opacity="0"></use><g><use xlink:href="#a2RwgAbwKr" opacity="1" fill-opacity="0" stroke="#000000" stroke-width="1" stroke-opacity="0"></use></g></g><g><use xlink:href="#b2DrhdRLAN" opacity="1" fill="#000000" fill-opacity="1"></use><g><use xlink:href="#b2DrhdRLAN" opacity="1" fill-opacity="0" stroke="#000000" stroke-width="1" stroke-opacity="0"></use></g></g><g><use xlink:href="#b2zEWDp36O" opacity="1" fill="#000000" fill-opacity="0"></use><g><use xlink:href="#b2zEWDp36O" opacity="1" fill-opacity="0" stroke="#000000" stroke-width="1" stroke-opacity="0"></use></g></g><g><use xlink:href="#e6IgOcaeN" opacity="1" fill="#000000" fill-opacity="1"></use><g><use xlink:href="#e6IgOcaeN" opacity="1" fill-opacity="0" stroke="#000000" stroke-width="1" stroke-opacity="0"></use></g></g><g><use xlink:href="#ajBLfJPXB" opacity="1" fill="#000000" fill-opacity="0"></use><g><use xlink:href="#ajBLfJPXB" opacity="1" fill-opacity="0" stroke="#000000" stroke-width="1" stroke-opacity="0"></use></g></g><g><use xlink:href="#b9yTrXZDO" opacity="1" fill="#000000" fill-opacity="1"></use><g><use xlink:href="#b9yTrXZDO" opacity="1" fill-opacity="0" stroke="#000000" stroke-width="1" stroke-opacity="0"></use></g></g><g><use xlink:href="#auut94Uxg" opacity="1" fill="#000000" fill-opacity="0"></use><g><use xlink:href="#auut94Uxg" opacity="1" fill-opacity="0" stroke="#000000" stroke-width="1" stroke-opacity="0"></use></g></g><g><use xlink:href="#aHITLQWC9" opacity="1" fill="#000000" fill-opacity="1"></use><g><use xlink:href="#aHITLQWC9" opacity="1" fill-opacity="0" stroke="#000000" stroke-width="1" stroke-opacity="0"></use></g></g><g><use xlink:href="#gUvEzKnYy" opacity="1" fill="#000000" fill-opacity="0"></use><g><use xlink:href="#gUvEzKnYy" opacity="1" fill-opacity="0" stroke="#000000" stroke-width="1" stroke-opacity="0"></use></g></g><g><use xlink:href="#d2IOIpZla7" opacity="1" fill="#000000" fill-opacity="1"></use><g><use xlink:href="#d2IOIpZla7" opacity="1" fill-opacity="0" stroke="#000000" stroke-width="1" stroke-opacity="0"></use></g></g><g><use xlink:href="#e5HD1vSaNM" opacity="1" fill="#000000" fill-opacity="0"></use><g><use xlink:href="#e5HD1vSaNM" opacity="1" fill-opacity="0" stroke="#000000" stroke-width="1" stroke-opacity="0"></use></g></g><g><use xlink:href="#h7c5v0Wgv" opacity="1" fill="#000000" fill-opacity="1"></use><g><use xlink:href="#h7c5v0Wgv" opacity="1" fill-opacity="0" stroke="#000000" stroke-width="1" stroke-opacity="0"></use></g></g><g><use xlink:href="#adzXV5GNE" opacity="1" fill="#000000" fill-opacity="0"></use><g><use xlink:href="#adzXV5GNE" opacity="1" fill-opacity="0" stroke="#000000" stroke-width="1" stroke-opacity="0"></use></g></g><g><use xlink:href="#g90UUR7wN" opacity="1" fill="#604206" fill-opacity="1"></use><g><use xlink:href="#g90UUR7wN" opacity="1" fill-opacity="0" stroke="#000000" stroke-width="1" stroke-opacity="0"></use></g></g><g><use xlink:href="#b2OOuTg16b" opacity="1" fill="#000000" fill-opacity="0"></use><g><use xlink:href="#b2OOuTg16b" opacity="1" fill-opacity="0" stroke="#000000" stroke-width="1" stroke-opacity="0"></use></g></g><g><use xlink:href="#bIOnuoqfY" opacity="1" fill="#000000" fill-opacity="1"></use><g><use xlink:href="#bIOnuoqfY" opacity="1" fill-opacity="0" stroke="#000000" stroke-width="1" stroke-opacity="0"></use></g></g><g><use xlink:href="#gS1XmTqoH" opacity="1" fill="#000000" fill-opacity="0"></use><g><use xlink:href="#gS1XmTqoH" opacity="1" fill-opacity="0" stroke="#000000" stroke-width="1" stroke-opacity="0"></use></g></g><g><use xlink:href="#b6vc8kx4K7" opacity="1" fill="#000000" fill-opacity="1"></use><g><use xlink:href="#b6vc8kx4K7" opacity="1" fill-opacity="0" stroke="#000000" stroke-width="1" stroke-opacity="0"></use></g></g><g><use xlink:href="#ag5ofU2eC" opacity="1" fill="#000000" fill-opacity="0"></use><g><use xlink:href="#ag5ofU2eC" opacity="1" fill-opacity="0" stroke="#000000" stroke-width="1" stroke-opacity="0"></use></g></g><g><use xlink:href="#b3XOJ481lw" opacity="1" fill="#000000" fill-opacity="1"></use><g><use xlink:href="#b3XOJ481lw" opacity="1" fill-opacity="0" stroke="#000000" stroke-width="1" stroke-opacity="0"></use></g></g><g><use xlink:href="#byfEWBMaP" opacity="1" fill="#000000" fill-opacity="0"></use><g><use xlink:href="#byfEWBMaP" opacity="1" fill-opacity="0" stroke="#000000" stroke-width="1" stroke-opacity="0"></use></g></g><g><use xlink:href="#d14lfZnvlf" opacity="1" fill="#000000" fill-opacity="1"></use><g><use xlink:href="#d14lfZnvlf" opacity="1" fill-opacity="0" stroke="#000000" stroke-width="1" stroke-opacity="0"></use></g></g><g><use xlink:href="#a1jJyADuSS" opacity="1" fill="#000000" fill-opacity="0"></use><g><use xlink:href="#a1jJyADuSS" opacity="1" fill-opacity="0" stroke="#000000" stroke-width="1" stroke-opacity="0"></use></g></g><g><use xlink:href="#ac4Ah8U0d" opacity="1" fill="#000000" fill-opacity="0"></use><g><use xlink:href="#ac4Ah8U0d" opacity="1" fill-opacity="0" stroke="#000000" stroke-width="1" stroke-opacity="0"></use></g></g><g><use xlink:href="#dauSDLfHz" opacity="1" fill="#000000" fill-opacity="0"></use><g><use xlink:href="#dauSDLfHz" opacity="1" fill-opacity="0" stroke="#3771a6" stroke-width="2" stroke-opacity="1"></use></g></g><g><use xlink:href="#bYfB9W2o" opacity="1" fill="#000000" fill-opacity="0"></use><g><use xlink:href="#bYfB9W2o" opacity="1" fill-opacity="0" stroke="#000000" stroke-width="1" stroke-opacity="0"></use></g></g><g><use xlink:href="#akqpkefz" opacity="1" fill="#000000" fill-opacity="0"></use><g><use xlink:href="#akqpkefz" opacity="1" fill-opacity="0" stroke="#3771a6" stroke-width="2" stroke-opacity="1"></use></g></g><g><use xlink:href="#b5U2tC4vJ" opacity="1" fill="#000000" fill-opacity="0"></use><g><use xlink:href="#b5U2tC4vJ" opacity="1" fill-opacity="0" stroke="#000000" stroke-width="1" stroke-opacity="0"></use></g></g><g><use xlink:href="#a4uo2fXUVi" opacity="1" fill="#000000" fill-opacity="0"></use><g><use xlink:href="#a4uo2fXUVi" opacity="1" fill-opacity="0" stroke="#3771a6" stroke-width="2" stroke-opacity="1"></use></g></g></g></g></svg>