<?xml version="1.0" encoding="UTF-8" standalone="no"?>
<!DOCTYPE svg PUBLIC "-//W3C//DTD SVG 1.1//EN" "http://www.w3.org/Graphics/SVG/1.1/DTD/svg11.dtd">
<svg version="1.1" xmlns="http://www.w3.org/2000/svg" xmlns:xlink="http://www.w3.org/1999/xlink" preserveAspectRatio="xMidYMid meet" viewBox="0 0 640 640" width="640" height="640"><defs><path d="M153.91 46.31C158.47 52.39 163.39 59.35 168.25 66.94C168.29 64.61 168.52 52.94 168.94 31.94C169.17 32.09 169.3 32.17 169.32 32.19C164.14 28.4 158.45 25.36 152.43 23.16C152.45 23.17 152.58 23.24 152.81 23.37C153.4 35.6 153.76 43.25 153.91 46.31Z" id="f2ryUkGpYc"></path><path d="M152.04 23.02C145.79 20.89 139.72 20.18 134.17 21.17C133.88 21.22 133.6 21.28 133.32 21.34C134.73 22.85 142.94 31.78 153.11 45.24C152.89 40.8 152.25 27.47 152.04 23.02Z" id="b27MjOq7Tq"></path><path d="M188.64 105.19C189.38 106.97 190.09 108.75 190.77 110.51L203.6 72.61C203.83 72.82 203.95 72.94 203.97 72.96C202.46 70.11 200.85 67.34 199.15 64.65L188.81 105.34C188.72 105.26 188.66 105.21 188.64 105.19Z" id="giIZlLe49"></path><path d="M187.85 49.47C188.08 49.65 188.2 49.76 188.23 49.78C182.76 43.3 176.55 37.49 169.71 32.47C169.64 36.04 169.07 64.57 169 68.13C173.52 75.26 177.57 82.29 181.14 89.21L187.85 49.47Z" id="b2oE6HwzF0"></path><path d="M112.98 61.09C112.88 60.8 112.83 60.64 112.82 60.6C113.4 66.62 114.59 72.55 116.36 78.32C122.53 78.96 171.87 84.05 178.04 84.69C174.82 78.75 171.5 73.18 168.27 68.1C160.9 67.17 142.47 64.83 112.98 61.09Z" id="dKfFx1wdK"></path><path d="M116.67 79.29C116.57 79 116.52 78.84 116.51 78.81C117.13 80.84 117.83 82.9 118.61 84.98L118.44 84.5C155.9 87.83 176.7 89.67 180.86 90.04C180.11 88.57 179.35 87.11 178.58 85.68L116.67 79.29Z" id="b7OCJn6SK"></path><path d="M198.45 63.8C198.68 64 198.8 64.11 198.83 64.13C195.73 59.26 192.31 54.61 188.59 50.2C187.91 54.23 182.47 86.44 181.79 90.47C184.15 95.1 186.28 99.66 188.19 104.15L198.45 63.8Z" id="akwhZ7EsL"></path><path d="M130.06 106.68C133.36 111.13 136.96 115.36 140.83 119.32C140.82 119.29 140.77 119.11 140.68 118.79C173.99 125.64 192.5 129.45 196.2 130.21C194.76 124.21 192.96 118.31 190.8 112.53C190.8 112.53 136.13 107.27 130.06 106.68Z" id="e3mw7zKCsz"></path><path d="M132.96 21.42C124.61 23.32 118.71 29 115.47 37.22C119.18 38.06 148.91 44.78 152.63 45.62C141.62 31.06 132.94 21.86 132.82 21.73C132.84 21.67 132.94 21.45 132.96 21.42Z" id="d3UuNKMYFG"></path><path d="M196.75 129.46C197.72 127.04 202.54 114.95 211.22 93.18C211.43 93.4 211.55 93.51 211.57 93.54C210.65 88.49 209.1 83.58 206.95 78.92C206.1 77.09 205.21 75.29 204.27 73.52C196.48 96.53 192.15 109.32 191.28 111.87C191.49 112.42 191.7 112.97 191.89 113.51C193.8 118.74 195.42 124.06 196.75 129.46Z" id="aqztGdLhP"></path><path d="M167.62 67.09C162.82 59.59 157.95 52.71 153.45 46.7C150.91 46.13 138.24 43.27 115.43 38.11C115.36 37.83 115.31 37.67 115.3 37.63C112.93 43.88 112.06 51.56 112.78 60.14C123.75 61.53 156.66 65.7 167.62 67.09Z" id="a6hhRP2L55"></path><path d="M190.41 111.56C190.42 111.53 190.43 111.52 190.43 111.52C187.78 104.53 184.75 97.69 181.37 91.03C175.11 90.48 125.05 86.03 118.79 85.47C120.38 89.69 122.03 93.15 122.39 94C124.34 98.09 126.66 102 129.32 105.67C137.47 106.46 157.83 108.42 190.41 111.56Z" id="aVVp37RH6"></path><path d="M276.97 117.52C277.05 117.78 277.1 117.93 277.11 117.96C275.53 111.73 273.09 105.76 269.85 100.22C269.87 100.25 269.92 100.39 270.01 100.63C261.74 111.65 257.15 117.77 256.23 119C255.86 126.59 255.21 135.09 254.11 144.03C257.16 140.5 264.78 131.66 276.97 117.52Z" id="cRh72uXP"></path><path d="M269.64 99.87C266.19 94.24 261.97 89.83 257.06 87.05C256.81 86.91 256.55 86.77 256.29 86.64C256.42 88.7 257.05 100.82 256.29 117.67C258.96 114.11 266.97 103.43 269.64 99.87Z" id="bV0a4LIkh"></path><path d="M245.42 186.5C244.86 188.35 244.28 190.17 243.67 191.95L277.73 170.95C277.77 171.26 277.79 171.43 277.79 171.46C278.44 168.3 278.97 165.14 279.38 161.98L245.46 186.73C245.44 186.6 245.43 186.53 245.42 186.5Z" id="awgw54dWB"></path><path d="M280.35 143.08C280.41 143.37 280.45 143.53 280.45 143.56C280.37 135.08 279.29 126.64 277.23 118.42C274.9 121.12 256.27 142.73 253.94 145.44C252.87 153.81 251.5 161.8 249.84 169.41L280.35 143.08Z" id="aMYGnQ0Fo"></path><path d="M249.54 170.8C248.4 175.86 247.14 180.74 245.74 185.42L279.38 160.88C279.43 161.18 279.46 161.34 279.46 161.37C280.18 155.65 280.52 149.89 280.46 144.12C280.46 144.12 252.63 168.13 249.54 170.8Z" id="a2wPMGMq1S"></path><path d="M220.86 232.93C226.37 226.37 231.07 219.16 234.86 211.47C232.99 209.15 218.05 190.53 216.18 188.2C215.94 187.41 215.68 186.61 215.41 185.82C227.34 200.69 233.97 208.94 235.29 210.6C238 205.06 240.38 199.36 242.41 193.54C238.48 189.59 207.03 157.99 203.09 154.05C203.22 153.74 203.34 153.42 203.47 153.09C206.08 155.72 219.17 168.87 242.73 192.54C242.75 192.52 242.76 192.52 242.76 192.52C245.18 185.44 247.21 178.25 248.85 170.96C244.95 167.1 213.76 136.22 209.86 132.36C209.94 132 210.02 131.64 210.1 131.28C233.5 154.44 246.5 167.3 249.1 169.88C249.46 168.26 249.8 166.65 250.12 165.06C226.79 141.3 213.83 128.11 211.24 125.47C211.31 125.09 211.37 124.71 211.43 124.33C234.78 148.1 247.75 161.31 250.34 163.95C251.65 157.32 252.64 150.91 253.39 144.94C250.85 142.23 238.15 128.68 215.28 104.28C215.39 103.99 215.46 103.84 215.47 103.8C214.56 105.12 213.69 106.5 212.83 107.93C212.85 103.41 212.49 98.9 211.73 94.44C210.27 98.1 198.59 127.41 197.13 131.07C198.31 136.12 199.16 141.24 199.66 146.4C199.57 147.27 199.49 148.15 199.43 149.04C199.48 149.09 199.86 149.47 199.91 149.52C199.94 149.99 199.97 150.46 199.99 150.93C199.93 150.87 199.42 150.35 199.35 150.29C199.32 150.8 199.3 151.32 199.28 151.84C198.98 144.87 198.03 137.95 196.43 131.16C190.92 130.03 146.82 120.96 141.31 119.82C144.08 122.67 146.99 125.44 149.97 128.11C144.2 126.3 138.21 125.28 132.16 125.07C132.19 125.08 132.33 125.1 132.59 125.15C137.47 138.04 140.18 145.2 140.73 146.63C146.94 151 153.77 156.1 160.74 161.82C159.74 158.51 151.72 132.09 150.72 128.79C151.09 129.12 151.46 129.45 151.84 129.77C157.83 149.54 161.16 160.52 161.83 162.72C168.33 168.1 174.35 173.53 179.88 179.01C177.13 160.4 175.6 150.07 175.29 148C175.61 148.23 175.93 148.45 176.25 148.67C179.04 167.47 180.59 177.92 180.89 180.01C184.57 183.68 188 187.36 191.21 191.04C189.88 170.65 189.14 159.32 188.99 157.05C189.3 157.25 189.61 157.44 189.92 157.63L192.17 191.98C192.04 191.93 191.97 191.9 191.95 191.89C193.21 193.36 194.44 194.82 195.63 196.29C195.88 175.32 196.03 163.67 196.06 161.34C196.39 161.53 196.69 161.71 196.97 161.87C196.71 183.21 196.57 195.06 196.54 197.43C196.9 197.89 197.27 198.35 197.62 198.8C201.05 203.18 204.24 207.74 207.17 212.47C207.19 212.15 207.36 209.61 207.38 209.29C207.64 210.23 207.89 211.16 208.15 212.07C208.08 213.15 208.04 213.76 208.03 213.88C208.46 214.59 208.87 215.3 209.28 216.01C209.76 217.63 210.13 218.85 210.23 219.17C209.32 217.49 208.38 215.83 207.39 214.19C173.84 217.94 155.19 220.02 151.46 220.44C180.87 235.91 217.36 243.24 219.69 243.7C219.14 241.26 218.46 238.84 217.69 236.44C217.89 236.23 218.09 236.02 218.29 235.81C218.39 236.09 218.48 236.38 218.58 236.67C218.47 236.78 218.37 236.89 218.27 237C218.44 236.92 218.59 236.85 218.63 236.83C219.43 239.36 219.93 241.36 220.07 241.87C220.24 240.51 220.47 238.44 220.67 235.83C230.74 230.79 256.82 216.05 270.07 192.95C266.61 194.84 238.92 209.96 235.46 211.85C231.52 219.88 226.58 227.4 220.78 234.22C220.82 233.59 220.85 233.06 220.86 232.93ZM209.32 179.64L209.4 178.33L210.28 179.42L210.19 180.74L209.32 179.64Z" id="a7bJeDFEr"></path><path d="M255.97 86.47C248.33 82.6 240.16 83.22 232.42 87.48C234.75 90.5 253.36 114.63 255.69 117.65C256.49 99.42 255.68 86.79 255.66 86.61C255.72 86.58 255.94 86.48 255.97 86.47Z" id="d1OCWUrdxu"></path><path d="M236.19 210.37C238.48 209.12 249.9 202.88 270.47 191.65C270.5 191.95 270.51 192.12 270.52 192.15C273.03 187.68 274.97 182.91 276.28 177.95C276.79 176 277.25 174.04 277.66 172.08C256.98 184.83 245.5 191.92 243.2 193.33C243.01 193.89 242.82 194.44 242.62 194.99C240.76 200.23 238.61 205.36 236.19 210.37Z" id="gjbmQv2bO"></path><path d="M231.82 88.15C231.95 87.88 232.02 87.73 232.03 87.7C226.22 91 220.65 96.36 215.74 103.42C219.52 107.45 249.76 139.72 253.54 143.75C254.62 134.91 255.26 126.51 255.62 119.01C252.45 114.89 244.52 104.61 231.82 88.15Z" id="cmRqdp2vI"></path><path d="M131.75 125.06C125.15 124.97 119.16 126.17 114.19 128.82C113.93 128.96 113.68 129.11 113.43 129.25C115.23 130.25 125.8 136.21 139.63 145.86C138.06 141.7 133.33 129.22 131.75 125.06Z" id="b1BPzmI36W"></path><path d="M106.37 173.34C106.19 173.09 106.09 172.95 106.07 172.93C108.48 178.46 111.44 183.74 114.92 188.68C120.98 187.38 169.48 176.97 175.54 175.67C170.64 171.02 165.76 166.75 161.12 162.91C153.82 164.3 135.57 167.78 106.37 173.34Z" id="a8flQqZ2P"></path><path d="M179.88 179.89C178.71 178.72 177.53 177.57 176.36 176.45L115.51 189.51C115.33 189.26 115.22 189.12 115.2 189.1C116.43 190.84 117.73 192.58 119.11 194.32L118.8 193.91C151.38 186.43 171.74 181.76 179.88 179.89Z" id="cRbtRon5b"></path><path d="M206.88 213.35C203.66 208.09 200.12 203.04 196.28 198.21C190.33 199.53 142.66 210.1 136.71 211.42C141.22 214.63 145.95 217.53 150.85 220.11C150.83 220.08 150.73 219.93 150.54 219.65C180.59 216.29 199.37 214.19 206.88 213.35Z" id="a5zsnG0f04"></path><path d="M113.11 129.44C105.75 133.82 101.9 141.04 101.36 149.87C105.15 149.52 135.5 146.72 139.29 146.37C124.33 135.92 113.23 129.86 113.07 129.77C113.08 129.7 113.1 129.47 113.11 129.44Z" id="dNar6JMk8"></path><path d="M101.6 150.73C101.44 150.48 101.35 150.34 101.33 150.31C101.01 156.99 102.55 164.56 105.89 172.49C111.32 171.46 154.76 163.19 160.19 162.15C153.31 156.51 146.55 151.47 140.41 147.15C135.23 147.63 122.3 148.82 101.6 150.73Z" id="bitSHYvtB"></path><path d="M180.66 180.68C174.54 182.08 125.55 193.32 119.43 194.73C122.25 198.25 124.89 201.03 125.49 201.73C128.61 205.02 132.03 208.02 135.69 210.69C139.69 209.8 159.66 205.37 195.61 197.4C189.16 189.78 184.18 184.2 180.66 180.68Z" id="c3NBX9iTnz"></path><path d="M153.91 46.31C158.47 52.39 163.39 59.35 168.25 66.94C168.29 64.61 168.52 52.94 168.94 31.94C169.17 32.09 169.3 32.17 169.32 32.19C164.14 28.4 158.45 25.36 152.43 23.16C152.45 23.17 152.58 23.24 152.81 23.37C153.4 35.6 153.76 43.25 153.91 46.31Z" id="b7hsuMlqf"></path><path d="M152.04 23.02C145.79 20.89 139.72 20.18 134.17 21.17C133.88 21.22 133.6 21.28 133.32 21.34C134.73 22.85 142.94 31.78 153.11 45.24C152.89 40.8 152.25 27.47 152.04 23.02Z" id="btY03lTcw"></path><path d="M188.64 105.19C189.38 106.97 190.09 108.75 190.77 110.51L203.6 72.61C203.83 72.82 203.95 72.94 203.97 72.96C202.46 70.11 200.85 67.34 199.15 64.65L188.81 105.34C188.72 105.26 188.66 105.21 188.64 105.19Z" id="anOhQqgIU"></path><path d="M187.85 49.47C188.08 49.65 188.2 49.76 188.23 49.78C182.76 43.3 176.55 37.49 169.71 32.47C169.64 36.04 169.07 64.57 169 68.13C173.52 75.26 177.57 82.29 181.14 89.21L187.85 49.47Z" id="eooN1PDjv"></path><path d="M112.98 61.09C112.88 60.8 112.83 60.64 112.82 60.6C113.4 66.62 114.59 72.55 116.36 78.32C122.53 78.96 171.87 84.05 178.04 84.69C174.82 78.75 171.5 73.18 168.27 68.1C160.9 67.17 142.47 64.83 112.98 61.09Z" id="b6UplLYLly"></path><path d="M116.67 79.29C116.57 79 116.52 78.84 116.51 78.81C117.13 80.84 117.83 82.9 118.61 84.98L118.44 84.5C155.9 87.83 176.7 89.67 180.86 90.04C180.11 88.57 179.35 87.11 178.58 85.68L116.67 79.29Z" id="jUp416Uwj"></path><path d="M198.45 63.8C198.68 64 198.8 64.11 198.83 64.13C195.73 59.26 192.31 54.61 188.59 50.2C187.91 54.23 182.47 86.44 181.79 90.47C184.15 95.1 186.28 99.66 188.19 104.15L198.45 63.8Z" id="adNcmmR1G"></path><path d="M130.06 106.68C133.36 111.13 136.96 115.36 140.83 119.32C140.82 119.29 140.77 119.11 140.68 118.79C173.99 125.64 192.5 129.45 196.2 130.21C194.76 124.21 192.96 118.31 190.8 112.53C190.8 112.53 136.13 107.27 130.06 106.68Z" id="aolFOYuE"></path><path d="M132.96 21.42C124.61 23.32 118.71 29 115.47 37.22C119.18 38.06 148.91 44.78 152.63 45.62C141.62 31.06 132.94 21.86 132.82 21.73C132.84 21.67 132.94 21.45 132.96 21.42Z" id="g7RUMCc8X0"></path><path d="M196.75 129.46C197.72 127.04 202.54 114.95 211.22 93.18C211.43 93.4 211.55 93.51 211.57 93.54C210.65 88.49 209.1 83.58 206.95 78.92C206.1 77.09 205.21 75.29 204.27 73.52C196.48 96.53 192.15 109.32 191.28 111.87C191.49 112.42 191.7 112.97 191.89 113.51C193.8 118.74 195.42 124.06 196.75 129.46Z" id="eGL9lga5T"></path><path d="M167.62 67.09C162.82 59.59 157.95 52.71 153.45 46.7C150.91 46.13 138.24 43.27 115.43 38.11C115.36 37.83 115.31 37.67 115.3 37.63C112.93 43.88 112.06 51.56 112.78 60.14C123.75 61.53 156.66 65.7 167.62 67.09Z" id="d1fHl7I8Zs"></path><path d="M190.41 111.56C190.42 111.53 190.43 111.52 190.43 111.52C187.78 104.53 184.75 97.69 181.37 91.03C175.11 90.48 125.05 86.03 118.79 85.47C120.38 89.69 122.03 93.15 122.39 94C124.34 98.09 126.66 102 129.32 105.67C137.47 106.46 157.83 108.42 190.41 111.56Z" id="cEnF6J9KP"></path><path d="M276.97 117.52C277.05 117.78 277.1 117.93 277.11 117.96C275.53 111.73 273.09 105.76 269.85 100.22C269.87 100.25 269.92 100.39 270.01 100.63C261.74 111.65 257.15 117.77 256.23 119C255.86 126.59 255.21 135.09 254.11 144.03C257.16 140.5 264.78 131.66 276.97 117.52Z" id="bnN1DcohG"></path><path d="M269.64 99.87C266.19 94.24 261.97 89.83 257.06 87.05C256.81 86.91 256.55 86.77 256.29 86.64C256.42 88.7 257.05 100.82 256.29 117.67C258.96 114.11 266.97 103.43 269.64 99.87Z" id="a11b35nHCP"></path><path d="M245.42 186.5C244.86 188.35 244.28 190.17 243.67 191.95L277.73 170.95C277.77 171.26 277.79 171.43 277.79 171.46C278.44 168.3 278.97 165.14 279.38 161.98L245.46 186.73C245.44 186.6 245.43 186.53 245.42 186.5Z" id="ckJbhMMVt"></path><path d="M280.35 143.08C280.41 143.37 280.45 143.53 280.45 143.56C280.37 135.08 279.29 126.64 277.23 118.42C274.9 121.12 256.27 142.73 253.94 145.44C252.87 153.81 251.5 161.8 249.84 169.41L280.35 143.08Z" id="c20PfEJHsG"></path><path d="M249.54 170.8C248.4 175.86 247.14 180.74 245.74 185.42L279.38 160.88C279.43 161.18 279.46 161.34 279.46 161.37C280.18 155.65 280.52 149.89 280.46 144.12C280.46 144.12 252.63 168.13 249.54 170.8Z" id="c3qDuBglmd"></path><path d="M220.86 232.93C226.37 226.37 231.07 219.16 234.86 211.47C232.99 209.15 218.05 190.53 216.18 188.2C215.94 187.41 215.68 186.61 215.41 185.82C227.34 200.69 233.97 208.94 235.29 210.6C238 205.06 240.38 199.36 242.41 193.54C238.48 189.59 207.03 157.99 203.09 154.05C203.22 153.74 203.34 153.42 203.47 153.09C206.08 155.72 219.17 168.87 242.73 192.54C242.75 192.52 242.76 192.52 242.76 192.52C245.18 185.44 247.21 178.25 248.85 170.96C244.95 167.1 213.76 136.22 209.86 132.36C209.94 132 210.02 131.64 210.1 131.28C233.5 154.44 246.5 167.3 249.1 169.88C249.46 168.26 249.8 166.65 250.12 165.06C226.79 141.3 213.83 128.11 211.24 125.47C211.31 125.09 211.37 124.71 211.43 124.33C234.78 148.1 247.75 161.31 250.34 163.95C251.65 157.32 252.64 150.91 253.39 144.94C250.85 142.23 238.15 128.68 215.28 104.28C215.39 103.99 215.46 103.84 215.47 103.8C214.56 105.12 213.69 106.5 212.83 107.93C212.85 103.41 212.49 98.9 211.73 94.44C210.27 98.1 198.59 127.41 197.13 131.07C198.31 136.12 199.16 141.24 199.66 146.4C199.57 147.27 199.49 148.15 199.43 149.04C199.48 149.09 199.86 149.47 199.91 149.52C199.94 149.99 199.97 150.46 199.99 150.93C199.93 150.87 199.42 150.35 199.35 150.29C199.32 150.8 199.3 151.32 199.28 151.84C198.98 144.87 198.03 137.95 196.43 131.16C190.92 130.03 146.82 120.96 141.31 119.82C144.08 122.67 146.99 125.44 149.97 128.11C144.2 126.3 138.21 125.28 132.16 125.07C132.19 125.08 132.33 125.1 132.59 125.15C137.47 138.04 140.18 145.2 140.73 146.63C146.94 151 153.77 156.1 160.74 161.82C159.74 158.51 151.72 132.09 150.72 128.79C151.09 129.12 151.46 129.45 151.84 129.77C157.83 149.54 161.16 160.52 161.83 162.72C168.33 168.1 174.35 173.53 179.88 179.01C177.13 160.4 175.6 150.07 175.29 148C175.61 148.23 175.93 148.45 176.25 148.67C179.04 167.47 180.59 177.92 180.89 180.01C184.57 183.68 188 187.36 191.21 191.04C189.88 170.65 189.14 159.32 188.99 157.05C189.3 157.25 189.61 157.44 189.92 157.63L192.17 191.98C192.04 191.93 191.97 191.9 191.95 191.89C193.21 193.36 194.44 194.82 195.63 196.29C195.88 175.32 196.03 163.67 196.06 161.34C196.39 161.53 196.69 161.71 196.97 161.87C196.71 183.21 196.57 195.06 196.54 197.43C196.9 197.89 197.27 198.35 197.62 198.8C201.05 203.18 204.24 207.74 207.17 212.47C207.19 212.15 207.36 209.61 207.38 209.29C207.64 210.23 207.89 211.16 208.15 212.07C208.08 213.15 208.04 213.76 208.03 213.88C208.46 214.59 208.87 215.3 209.28 216.01C209.76 217.63 210.13 218.85 210.23 219.17C209.32 217.49 208.38 215.83 207.39 214.19C173.84 217.94 155.19 220.02 151.46 220.44C180.87 235.91 217.36 243.24 219.69 243.7C219.14 241.26 218.46 238.84 217.69 236.44C217.89 236.23 218.09 236.02 218.29 235.81C218.39 236.09 218.48 236.38 218.58 236.67C218.47 236.78 218.37 236.89 218.27 237C218.44 236.92 218.59 236.85 218.63 236.83C219.43 239.36 219.93 241.36 220.07 241.87C220.24 240.51 220.47 238.44 220.67 235.83C230.74 230.79 256.82 216.05 270.07 192.95C266.61 194.84 238.92 209.96 235.46 211.85C231.52 219.88 226.58 227.4 220.78 234.22C220.82 233.59 220.85 233.06 220.86 232.93ZM209.32 179.64L209.4 178.33L210.28 179.42L210.19 180.74L209.32 179.64Z" id="db0goBbAR"></path><path d="M255.97 86.47C248.33 82.6 240.16 83.22 232.42 87.48C234.75 90.5 253.36 114.63 255.69 117.65C256.49 99.42 255.68 86.79 255.66 86.61C255.72 86.58 255.94 86.48 255.97 86.47Z" id="cjlH2ixAb"></path><path d="M236.19 210.37C238.48 209.12 249.9 202.88 270.47 191.65C270.5 191.95 270.51 192.12 270.52 192.15C273.03 187.68 274.97 182.91 276.28 177.95C276.79 176 277.25 174.04 277.66 172.08C256.98 184.83 245.5 191.92 243.2 193.33C243.01 193.89 242.82 194.44 242.62 194.99C240.76 200.23 238.61 205.36 236.19 210.37Z" id="d1vCv9gVKC"></path><path d="M231.82 88.15C231.95 87.88 232.02 87.73 232.03 87.7C226.22 91 220.65 96.36 215.74 103.42C219.52 107.45 249.76 139.72 253.54 143.75C254.62 134.91 255.26 126.51 255.62 119.01C252.45 114.89 244.52 104.61 231.82 88.15Z" id="b1UQRrQDFo"></path><path d="M131.75 125.06C125.15 124.97 119.16 126.17 114.19 128.82C113.93 128.96 113.68 129.11 113.43 129.25C115.23 130.25 125.8 136.21 139.63 145.86C138.06 141.7 133.33 129.22 131.75 125.06Z" id="drpzTekl"></path><path d="M106.37 173.34C106.19 173.09 106.09 172.95 106.07 172.93C108.48 178.46 111.44 183.74 114.92 188.68C120.98 187.38 169.48 176.97 175.54 175.67C170.64 171.02 165.76 166.75 161.12 162.91C153.82 164.3 135.57 167.78 106.37 173.34Z" id="amoZ8EMTt"></path><path d="M179.88 179.89C178.71 178.72 177.53 177.57 176.36 176.45L115.51 189.51C115.33 189.26 115.22 189.12 115.2 189.1C116.43 190.84 117.73 192.58 119.11 194.32L118.8 193.91C151.38 186.43 171.74 181.76 179.88 179.89Z" id="d1fIZNxrj"></path><path d="M206.88 213.35C203.66 208.09 200.12 203.04 196.28 198.21C190.33 199.53 142.66 210.1 136.71 211.42C141.22 214.63 145.95 217.53 150.85 220.11C150.83 220.08 150.73 219.93 150.54 219.65C180.59 216.29 199.37 214.19 206.88 213.35Z" id="a1ipwguwca"></path><path d="M113.11 129.44C105.75 133.82 101.9 141.04 101.36 149.87C105.15 149.52 135.5 146.72 139.29 146.37C124.33 135.92 113.23 129.86 113.07 129.77C113.08 129.7 113.1 129.47 113.11 129.44Z" id="d2hZ0yijWc"></path><path d="M101.6 150.73C101.44 150.48 101.35 150.34 101.33 150.31C101.01 156.99 102.55 164.56 105.89 172.49C111.32 171.46 154.76 163.19 160.19 162.15C153.31 156.51 146.55 151.47 140.41 147.15C135.23 147.63 122.3 148.82 101.6 150.73Z" id="b62vwdJV01"></path><path d="M180.66 180.68C174.54 182.08 125.55 193.32 119.43 194.73C122.25 198.25 124.89 201.03 125.49 201.73C128.61 205.02 132.03 208.02 135.69 210.69C139.69 209.8 159.66 205.37 195.61 197.4C189.16 189.78 184.18 184.2 180.66 180.68Z" id="m3kmGaZo9P"></path><path d="M546.54 67.47C546.54 67.47 527.89 103.5 527.89 103.5C525.96 102.98 516.29 100.36 498.89 95.64C508.42 79.52 513.72 70.57 514.78 68.78C514.78 68.78 516.85 41.92 516.85 37.99C516.85 34.06 549.99 37.99 549.99 37.99C549.3 43.89 541.01 63.54 546.54 67.47Z" id="d4f07Rc71Z"></path><path d="M546.54 67.47C546.54 67.47 527.89 103.5 527.89 103.5C525.96 102.98 516.29 100.36 498.89 95.64C508.42 79.52 513.72 70.57 514.78 68.78C514.78 68.78 516.85 41.92 516.85 37.99C516.85 34.06 549.99 37.99 549.99 37.99C549.3 43.89 541.01 63.54 546.54 67.47Z" id="c1htzsIcEJ"></path><path d="M565.06 220.1C565.06 220.1 567.68 252.85 565.06 269.89C565.06 269.89 558.51 334.08 558.51 334.08C558.51 334.08 558.51 423.17 544.09 424.48C544.09 424.48 519.2 427.1 517.89 421.86C517.89 421.86 524.44 414 520.51 411.38C520.51 411.38 515.27 399.59 520.51 389.11C520.51 389.11 520.51 272.51 520.51 272.51C518.02 279.19 498.11 332.64 495.62 339.32C495.62 339.32 493 394.35 490.38 402.21C490.38 402.21 493 424.48 483.83 425.79C483.83 425.79 464.18 419.24 458.94 416.62C458.94 416.62 466.8 414 464.18 412.69C464.18 412.69 453.7 407.45 456.32 406.14C456.32 406.14 461.56 341.94 461.56 341.94C461.56 341.94 468.76 207.65 477.93 202.41C487.1 197.17 493 206.2 493 206.2C507.41 208.98 550.64 217.32 565.06 220.1Z" id="b29IB6Ks5T"></path><path d="M541.47 419.94C541.47 426.23 541.47 429.73 541.47 430.43C541.47 430.43 553.26 458.92 541.47 458.92C541.47 458.92 520.51 461.87 520.51 457.94C520.51 455.58 520.51 443.79 520.51 422.56L541.47 419.94Z" id="a22CDVBqKf"></path><path d="M464.18 419.22C464.18 425.51 464.18 429 464.18 429.7C464.18 429.7 452.39 458.19 464.18 458.19C464.18 458.19 485.14 461.15 485.14 457.21C485.14 454.86 485.14 443.07 485.14 421.84L464.18 419.22Z" id="b10GO4b6WI"></path><path d="M531.65 9.83C518.62 9.83 508.07 20.38 508.07 33.41C508.07 46.43 518.62 56.99 531.65 56.99C544.67 56.99 555.23 46.43 555.23 33.41C555.23 20.38 544.67 9.83 531.65 9.83Z" id="cs2i9nAF3"></path><path d="M521.82 93.02C521.12 92.76 517.63 91.45 511.34 89.09C500.34 164.55 494.22 206.48 493 214.86C493 214.86 507.41 235.82 528.37 222.72C549.33 209.62 538.85 77.3 538.85 77.3C535.45 80.44 532.3 96.95 521.82 93.02Z" id="cADcISGUx"></path><path d="M520.51 73.37C516.97 65.9 515.01 61.75 514.62 60.92C514.62 60.92 479.9 77.3 474.66 82.54C474.66 82.54 469.42 95.64 469.42 95.64C470.33 98.91 477.67 125.12 478.59 128.39C478.59 128.39 475.97 200.45 475.97 203.07C475.97 203.07 466.8 220.1 473.35 214.86C473.35 214.86 481.21 204.38 486.45 212.24C486.45 212.24 503.48 229.27 503.48 229.27C505.75 208.48 511.43 156.52 520.51 73.37Z" id="be06TO8wU"></path><path d="M474.66 167.7C477.02 189.71 478.33 201.93 478.59 204.38C478.59 204.38 502.17 225.34 496.93 226.65C491.69 227.96 489.07 222.72 489.07 222.72C489.07 222.72 479.9 231.89 474.66 226.65C469.42 221.41 456.32 171.63 456.32 171.63C458.76 171.1 464.87 169.79 474.66 167.7Z" id="eLzQoBTB6"></path><path d="M546.38 2.62C548.4 4.03 550.18 5.77 551.64 7.77C555.93 13.2 559.64 20.03 558.05 26.76C557.86 26.69 556.38 26.11 556.19 26.04C556.19 27.83 556.59 29.61 557.36 31.23C557.1 30.47 556.23 31.7 556.46 32.47C556.67 33.14 558.3 38.49 558.5 39.16C555.15 37.93 550.98 40.42 550.47 43.96C550.23 36.18 549.43 27.27 543.12 22.72C539.94 20.42 535.92 19.72 532.04 19.1C528.47 18.52 524.73 17.98 521.3 19.15C517.88 20.33 514.97 23.83 515.74 27.36C514.17 26.82 512.4 27.92 511.62 29.39C510.84 30.87 510.8 32.61 510.78 34.28C509.1 35.47 507.18 33.11 506.5 31.16C504.89 26.6 503.46 21.75 504.32 17C505.19 12.24 509.07 7.7 513.9 7.68C513.31 7.03 513 6.19 513.03 5.32C513.43 5.28 516.61 5.01 517.01 4.98C516 4.84 515.07 4.35 514.38 3.59C515.98 5.35 528.56 0.17 531.15 0.08C536.37 -0.11 541.97 -0.2 546.38 2.62Z" id="a8M4wFqIt"></path><path d="M546.81 59.63C546.81 59.63 555.88 69.44 555.88 69.44C555.88 69.44 587.33 79.92 586.02 90.4C586.02 90.4 570.3 151.97 570.3 151.97C570.3 151.97 558.51 213.55 568.99 220.1C579.47 226.65 519.2 243.68 517.89 235.82C516.58 227.96 513.96 149.35 517.89 137.56C521.82 125.77 532.3 69.44 532.3 69.44C535.2 67.47 542.97 58.99 546.81 59.63Z" id="c1hGXCUga0"></path><path d="M486.45 90.4C476.73 90.4 471.33 90.4 470.25 90.4C470.25 90.4 458.94 140.18 457.63 145.42C457.63 145.42 453.7 175.56 455.01 175.56C455.01 175.56 482.52 170.32 482.52 174.25C483.04 163.07 484.35 135.12 486.45 90.4Z" id="f5nkhWyTJ"></path><path d="M19.29 92.84C12.3 92.84 6.63 98.51 6.63 105.5C6.63 112.49 12.3 118.16 19.29 118.16C26.28 118.16 31.95 112.49 31.95 105.5C31.95 98.51 26.28 92.84 19.29 92.84Z" id="a1xPzKaqU3"></path><path d="M19.29 141.67C12.3 141.67 6.63 147.33 6.63 154.32C6.63 161.32 12.3 166.98 19.29 166.98C26.28 166.98 31.95 161.32 31.95 154.32C31.95 147.33 26.28 141.67 19.29 141.67Z" id="a1ZeUBzb6"></path><path d="M19.29 190.49C12.3 190.49 6.63 196.16 6.63 203.15C6.63 210.14 12.3 215.81 19.29 215.81C26.28 215.81 31.95 210.14 31.95 203.15C31.95 196.16 26.28 190.49 19.29 190.49Z" id="bbBhBWIJp"></path><path d="M19.29 239.32C12.3 239.32 6.63 244.98 6.63 251.98C6.63 258.97 12.3 264.63 19.29 264.63C26.28 264.63 31.95 258.97 31.95 251.98C31.95 244.98 26.28 239.32 19.29 239.32Z" id="a3F0ekZ22"></path><path d="M19.29 288.14C12.3 288.14 6.63 293.81 6.63 300.8C6.63 307.79 12.3 313.46 19.29 313.46C26.28 313.46 31.95 307.79 31.95 300.8C31.95 293.81 26.28 288.14 19.29 288.14Z" id="b5k0Q9PCK"></path><path d="M605.82 458.59C605.82 458.59 605.82 458.59 605.82 458.59C605.82 459.44 605.82 459.91 605.82 460C605.82 460 605.82 460 605.82 460C252.89 460 56.82 460 17.61 460C17.61 460 17.61 460 17.61 460C17.61 459.15 17.61 458.69 17.61 458.59C17.61 458.59 17.61 458.59 17.61 458.59C370.54 458.59 566.61 458.59 605.82 458.59Z" id="ahDPP56IG"></path><path d="M12.4 102.54L13.82 101.47L18.73 108.01L38.05 92.21L39.18 93.59L18.42 110.57L18.42 110.57L12.4 102.54Z" id="c1hCIcSqw4"></path><path d="M53.05 152.52L97.05 170.44L97.05 459.33L534.67 459.33L534.67 151.91L97.05 151.91L97.05 151.91L53.05 152.52Z" id="gJCfny0wL"></path><path d="M39.18 117.55C39.18 117.55 39.18 117.55 39.18 117.55C39.18 118.28 39.18 118.68 39.18 118.76C39.18 118.76 39.18 118.76 39.18 118.76C15.67 118.76 2.61 118.76 0 118.76C0 118.76 0 118.76 0 118.76C0 118.04 0 117.64 0 117.55C0 117.55 0 117.55 0 117.55C23.51 117.55 36.57 117.55 39.18 117.55Z" id="cDxC3vMnr"></path><path d="M39.18 166.38C39.18 166.38 39.18 166.38 39.18 166.38C39.18 167.1 39.18 167.51 39.18 167.59C39.18 167.59 39.18 167.59 39.18 167.59C15.67 167.59 2.61 167.59 0 167.59C0 167.59 0 167.59 0 167.59C0 166.86 0 166.46 0 166.38C0 166.38 0 166.38 0 166.38C23.51 166.38 36.57 166.38 39.18 166.38Z" id="b37zqFlZRQ"></path><path d="M39.18 215.21C39.18 215.21 39.18 215.21 39.18 215.21C39.18 215.93 39.18 216.33 39.18 216.41C39.18 216.41 39.18 216.41 39.18 216.41C15.67 216.41 2.61 216.41 0 216.41C0 216.41 0 216.41 0 216.41C0 215.69 0 215.29 0 215.21C0 215.21 0 215.21 0 215.21C23.51 215.21 36.57 215.21 39.18 215.21Z" id="cfIoBn9sN"></path><path d="M39.18 264.03C39.18 264.03 39.18 264.03 39.18 264.03C39.18 264.76 39.18 265.16 39.18 265.24C39.18 265.24 39.18 265.24 39.18 265.24C15.67 265.24 2.61 265.24 0 265.24C0 265.24 0 265.24 0 265.24C0 264.51 0 264.11 0 264.03C0 264.03 0 264.03 0 264.03C23.51 264.03 36.57 264.03 39.18 264.03Z" id="akK44kQir"></path><path d="M39.18 312.86C39.18 312.86 39.18 312.86 39.18 312.86C39.18 313.58 39.18 313.98 39.18 314.06C39.18 314.06 39.18 314.06 39.18 314.06C15.67 314.06 2.61 314.06 0 314.06C0 314.06 0 314.06 0 314.06C0 313.34 0 312.94 0 312.86C0 312.86 0 312.86 0 312.86C23.51 312.86 36.57 312.86 39.18 312.86Z" id="a5VJSeBUjW"></path><path d="M19.29 148.3C15.96 148.3 13.26 151 13.26 154.32C13.26 157.65 15.96 160.35 19.29 160.35C22.62 160.35 25.32 157.65 25.32 154.32C25.32 151 22.62 148.3 19.29 148.3Z" id="amU9xEOy6"></path><path d="M453.3 168.19C453.3 168.19 453.3 168.19 453.3 168.19C453.3 181.93 453.3 189.57 453.3 191.09C453.3 191.09 453.3 191.09 453.3 191.09C288.37 191.09 196.75 191.09 178.42 191.09C178.42 191.09 178.42 191.09 178.42 191.09C178.42 177.35 178.42 169.72 178.42 168.19C178.42 168.19 178.42 168.19 178.42 168.19C343.35 168.19 434.97 168.19 453.3 168.19Z" id="hOdykMINj"></path><path d="M514.18 412.32C514.18 412.32 514.18 412.32 514.18 412.32C514.18 428.95 514.18 438.2 514.18 440.05C514.18 440.05 514.18 440.05 514.18 440.05C465.35 440.05 438.23 440.05 432.8 440.05C432.8 440.05 432.8 440.05 432.8 440.05C432.8 423.41 432.8 414.17 432.8 412.32C432.8 412.32 432.8 412.32 432.8 412.32C481.63 412.32 508.75 412.32 514.18 412.32Z" id="h2m6Yh5FV5"></path><path d="M321.89 225.45C321.89 225.45 321.89 225.45 321.89 225.45C321.89 325.27 321.89 380.73 321.89 391.82C321.89 391.82 321.89 391.82 321.89 391.82C199.28 391.82 131.17 391.82 117.54 391.82C117.54 391.82 117.54 391.82 117.54 391.82C117.54 292 117.54 236.54 117.54 225.45C117.54 225.45 117.54 225.45 117.54 225.45C240.15 225.45 308.26 225.45 321.89 225.45Z" id="crSmvSOYX"></path><path d="M117.92 224.99C117.92 224.99 117.92 224.99 117.92 224.99C240.53 324.81 308.65 380.26 322.27 391.35C322.27 391.35 322.27 391.35 322.27 391.35C321.81 391.92 321.56 392.23 321.51 392.29C321.51 392.29 321.51 392.29 321.51 392.29C198.9 292.47 130.79 237.01 117.16 225.92C117.16 225.92 117.16 225.92 117.16 225.92C117.62 225.36 117.87 225.05 117.92 224.99Z" id="b34gnyfsHQ"></path><path d="M321.5 224.98C321.5 224.98 321.5 224.98 321.5 224.98C321.96 225.54 322.21 225.85 322.26 225.92C322.26 225.92 322.26 225.92 322.26 225.92C199.66 325.74 131.55 381.2 117.93 392.29C117.93 392.29 117.93 392.29 117.93 392.29C117.47 391.73 117.22 391.42 117.17 391.36C117.17 391.36 117.17 391.36 117.17 391.36C239.77 291.53 307.88 236.07 321.5 224.98Z" id="e19KuqkEjP"></path><path d="M514.78 239.92C514.78 239.92 514.78 239.92 514.78 239.92C514.78 242.45 514.78 243.86 514.78 244.14C514.78 244.14 514.78 244.14 514.78 244.14C426.53 244.14 377.5 244.14 367.7 244.14C367.7 244.14 367.7 244.14 367.7 244.14C367.7 241.61 367.7 240.2 367.7 239.92C367.7 239.92 367.7 239.92 367.7 239.92C455.95 239.92 504.97 239.92 514.78 239.92Z" id="e2vf5i6RM"></path><path d="M514.78 253.18C514.78 253.18 514.78 253.18 514.78 253.18C514.78 255.71 514.78 257.12 514.78 257.4C514.78 257.4 514.78 257.4 514.78 257.4C426.53 257.4 377.5 257.4 367.7 257.4C367.7 257.4 367.7 257.4 367.7 257.4C367.7 254.87 367.7 253.46 367.7 253.18C367.7 253.18 367.7 253.18 367.7 253.18C455.95 253.18 504.97 253.18 514.78 253.18Z" id="b5QtDAK3Z"></path><path d="M514.78 266.44C514.78 266.44 514.78 266.44 514.78 266.44C514.78 268.97 514.78 270.38 514.78 270.66C514.78 270.66 514.78 270.66 514.78 270.66C426.53 270.66 377.5 270.66 367.7 270.66C367.7 270.66 367.7 270.66 367.7 270.66C367.7 268.13 367.7 266.72 367.7 266.44C367.7 266.44 367.7 266.44 367.7 266.44C455.95 266.44 504.97 266.44 514.78 266.44Z" id="aH3BkHpi9"></path><path d="M514.78 279.7C514.78 279.7 514.78 279.7 514.78 279.7C514.78 282.24 514.78 283.64 514.78 283.92C514.78 283.92 514.78 283.92 514.78 283.92C426.53 283.92 377.5 283.92 367.7 283.92C367.7 283.92 367.7 283.92 367.7 283.92C367.7 281.39 367.7 279.99 367.7 279.7C367.7 279.7 367.7 279.7 367.7 279.7C455.95 279.7 504.97 279.7 514.78 279.7Z" id="al0IZxOz"></path><path d="M514.78 292.97C514.78 292.97 514.78 292.97 514.78 292.97C514.78 295.5 514.78 296.9 514.78 297.18C514.78 297.18 514.78 297.18 514.78 297.18C426.53 297.18 377.5 297.18 367.7 297.18C367.7 297.18 367.7 297.18 367.7 297.18C367.7 294.65 367.7 293.25 367.7 292.97C367.7 292.97 367.7 292.97 367.7 292.97C455.95 292.97 504.97 292.97 514.78 292.97Z" id="c1siFjfAGV"></path><path d="M514.78 306.23C514.78 306.23 514.78 306.23 514.78 306.23C514.78 308.76 514.78 310.16 514.78 310.45C514.78 310.45 514.78 310.45 514.78 310.45C426.53 310.45 377.5 310.45 367.7 310.45C367.7 310.45 367.7 310.45 367.7 310.45C367.7 307.91 367.7 306.51 367.7 306.23C367.7 306.23 367.7 306.23 367.7 306.23C455.95 306.23 504.97 306.23 514.78 306.23Z" id="bfhGZoGnA"></path><path d="M514.78 319.49C514.78 319.49 514.78 319.49 514.78 319.49C514.78 322.02 514.78 323.43 514.78 323.71C514.78 323.71 514.78 323.71 514.78 323.71C426.53 323.71 377.5 323.71 367.7 323.71C367.7 323.71 367.7 323.71 367.7 323.71C367.7 321.18 367.7 319.77 367.7 319.49C367.7 319.49 367.7 319.49 367.7 319.49C455.95 319.49 504.97 319.49 514.78 319.49Z" id="b3bMLWRagT"></path><path d="M514.78 332.75C514.78 332.75 514.78 332.75 514.78 332.75C514.78 335.28 514.78 336.69 514.78 336.97C514.78 336.97 514.78 336.97 514.78 336.97C426.53 336.97 377.5 336.97 367.7 336.97C367.7 336.97 367.7 336.97 367.7 336.97C367.7 334.44 367.7 333.03 367.7 332.75C367.7 332.75 367.7 332.75 367.7 332.75C455.95 332.75 504.97 332.75 514.78 332.75Z" id="c21GXXwV6Y"></path><path d="M514.78 346.01C514.78 346.01 514.78 346.01 514.78 346.01C514.78 348.54 514.78 349.95 514.78 350.23C514.78 350.23 514.78 350.23 514.78 350.23C426.53 350.23 377.5 350.23 367.7 350.23C367.7 350.23 367.7 350.23 367.7 350.23C367.7 347.7 367.7 346.29 367.7 346.01C367.7 346.01 367.7 346.01 367.7 346.01C455.95 346.01 504.97 346.01 514.78 346.01Z" id="aXfIbeSIN"></path><path d="M514.78 359.27C514.78 359.27 514.78 359.27 514.78 359.27C514.78 361.8 514.78 363.21 514.78 363.49C514.78 363.49 514.78 363.49 514.78 363.49C426.53 363.49 377.5 363.49 367.7 363.49C367.7 363.49 367.7 363.49 367.7 363.49C367.7 360.96 367.7 359.55 367.7 359.27C367.7 359.27 367.7 359.27 367.7 359.27C455.95 359.27 504.97 359.27 514.78 359.27Z" id="dLZKPFT6d"></path><path d="M514.78 372.53C514.78 372.53 514.78 372.53 514.78 372.53C514.78 375.06 514.78 376.47 514.78 376.75C514.78 376.75 514.78 376.75 514.78 376.75C426.53 376.75 377.5 376.75 367.7 376.75C367.7 376.75 367.7 376.75 367.7 376.75C367.7 374.22 367.7 372.81 367.7 372.53C367.7 372.53 367.7 372.53 367.7 372.53C455.95 372.53 504.97 372.53 514.78 372.53Z" id="b3DER9Aqj"></path><path d="M514.78 385.79C514.78 385.79 514.78 385.79 514.78 385.79C514.78 388.33 514.78 389.73 514.78 390.01C514.78 390.01 514.78 390.01 514.78 390.01C426.53 390.01 377.5 390.01 367.7 390.01C367.7 390.01 367.7 390.01 367.7 390.01C367.7 387.48 367.7 386.08 367.7 385.79C367.7 385.79 367.7 385.79 367.7 385.79C455.95 385.79 504.97 385.79 514.78 385.79Z" id="agaNb2OsD"></path><path d="M574.23 179.49C563.22 184.2 557.11 186.82 555.88 187.35C555.88 187.35 520.51 192.59 520.51 178.18C520.51 178.18 555.88 171.63 555.88 171.63C556.67 171.37 560.6 170.12 567.68 167.86L574.23 179.49Z" id="b471GAwgcy"></path><path d="M570.3 82.54L586.02 86.47C593.09 128.13 597.02 151.28 597.81 155.9C597.81 155.9 601.74 174.25 595.19 175.56C588.64 176.87 570.3 187.35 570.3 187.35C570.3 187.35 567.68 167.7 562.44 167.7C563.31 167 567.68 163.5 575.54 157.21L567.68 111.36L570.3 82.54Z" id="b9nRwNWK"></path></defs><g><g><g><use xlink:href="#f2ryUkGpYc" opacity="1" fill="#e6e6e6" fill-opacity="1"></use><g><use xlink:href="#f2ryUkGpYc" opacity="1" fill-opacity="0" stroke="#000000" stroke-width="1" stroke-opacity="0"></use></g></g><g><use xlink:href="#b27MjOq7Tq" opacity="1" fill="#e6e6e6" fill-opacity="1"></use><g><use xlink:href="#b27MjOq7Tq" opacity="1" fill-opacity="0" stroke="#000000" stroke-width="1" stroke-opacity="0"></use></g></g><g><use xlink:href="#giIZlLe49" opacity="1" fill="#e6e6e6" fill-opacity="1"></use><g><use xlink:href="#giIZlLe49" opacity="1" fill-opacity="0" stroke="#000000" stroke-width="1" stroke-opacity="0"></use></g></g><g><use xlink:href="#b2oE6HwzF0" opacity="1" fill="#e6e6e6" fill-opacity="1"></use><g><use xlink:href="#b2oE6HwzF0" opacity="1" fill-opacity="0" stroke="#000000" stroke-width="1" stroke-opacity="0"></use></g></g><g><use xlink:href="#dKfFx1wdK" opacity="1" fill="#e6e6e6" fill-opacity="1"></use><g><use xlink:href="#dKfFx1wdK" opacity="1" fill-opacity="0" stroke="#000000" stroke-width="1" stroke-opacity="0"></use></g></g><g><use xlink:href="#b7OCJn6SK" opacity="1" fill="#e6e6e6" fill-opacity="1"></use><g><use xlink:href="#b7OCJn6SK" opacity="1" fill-opacity="0" stroke="#000000" stroke-width="1" stroke-opacity="0"></use></g></g><g><use xlink:href="#akwhZ7EsL" opacity="1" fill="#e6e6e6" fill-opacity="1"></use><g><use xlink:href="#akwhZ7EsL" opacity="1" fill-opacity="0" stroke="#000000" stroke-width="1" stroke-opacity="0"></use></g></g><g><use xlink:href="#e3mw7zKCsz" opacity="1" fill="#e6e6e6" fill-opacity="1"></use><g><use xlink:href="#e3mw7zKCsz" opacity="1" fill-opacity="0" stroke="#000000" stroke-width="1" stroke-opacity="0"></use></g></g><g><use xlink:href="#d3UuNKMYFG" opacity="1" fill="#e6e6e6" fill-opacity="1"></use><g><use xlink:href="#d3UuNKMYFG" opacity="1" fill-opacity="0" stroke="#000000" stroke-width="1" stroke-opacity="0"></use></g></g><g><use xlink:href="#aqztGdLhP" opacity="1" fill="#e6e6e6" fill-opacity="1"></use><g><use xlink:href="#aqztGdLhP" opacity="1" fill-opacity="0" stroke="#000000" stroke-width="1" stroke-opacity="0"></use></g></g><g><use xlink:href="#a6hhRP2L55" opacity="1" fill="#e6e6e6" fill-opacity="1"></use><g><use xlink:href="#a6hhRP2L55" opacity="1" fill-opacity="0" stroke="#000000" stroke-width="1" stroke-opacity="0"></use></g></g><g><use xlink:href="#aVVp37RH6" opacity="1" fill="#e6e6e6" fill-opacity="1"></use><g><use xlink:href="#aVVp37RH6" opacity="1" fill-opacity="0" stroke="#000000" stroke-width="1" stroke-opacity="0"></use></g></g><g><use xlink:href="#cRh72uXP" opacity="1" fill="#e6e6e6" fill-opacity="1"></use><g><use xlink:href="#cRh72uXP" opacity="1" fill-opacity="0" stroke="#000000" stroke-width="1" stroke-opacity="0"></use></g></g><g><use xlink:href="#bV0a4LIkh" opacity="1" fill="#e6e6e6" fill-opacity="1"></use><g><use xlink:href="#bV0a4LIkh" opacity="1" fill-opacity="0" stroke="#000000" stroke-width="1" stroke-opacity="0"></use></g></g><g><use xlink:href="#awgw54dWB" opacity="1" fill="#e6e6e6" fill-opacity="1"></use><g><use xlink:href="#awgw54dWB" opacity="1" fill-opacity="0" stroke="#000000" stroke-width="1" stroke-opacity="0"></use></g></g><g><use xlink:href="#aMYGnQ0Fo" opacity="1" fill="#e6e6e6" fill-opacity="1"></use><g><use xlink:href="#aMYGnQ0Fo" opacity="1" fill-opacity="0" stroke="#000000" stroke-width="1" stroke-opacity="0"></use></g></g><g><use xlink:href="#a2wPMGMq1S" opacity="1" fill="#e6e6e6" fill-opacity="1"></use><g><use xlink:href="#a2wPMGMq1S" opacity="1" fill-opacity="0" stroke="#000000" stroke-width="1" stroke-opacity="0"></use></g></g><g><use xlink:href="#a7bJeDFEr" opacity="1" fill="#e6e6e6" fill-opacity="1"></use><g><use xlink:href="#a7bJeDFEr" opacity="1" fill-opacity="0" stroke="#000000" stroke-width="1" stroke-opacity="0"></use></g></g><g><use xlink:href="#d1OCWUrdxu" opacity="1" fill="#e6e6e6" fill-opacity="1"></use><g><use xlink:href="#d1OCWUrdxu" opacity="1" fill-opacity="0" stroke="#000000" stroke-width="1" stroke-opacity="0"></use></g></g><g><use xlink:href="#gjbmQv2bO" opacity="1" fill="#e6e6e6" fill-opacity="1"></use><g><use xlink:href="#gjbmQv2bO" opacity="1" fill-opacity="0" stroke="#000000" stroke-width="1" stroke-opacity="0"></use></g></g><g><use xlink:href="#cmRqdp2vI" opacity="1" fill="#e6e6e6" fill-opacity="1"></use><g><use xlink:href="#cmRqdp2vI" opacity="1" fill-opacity="0" stroke="#000000" stroke-width="1" stroke-opacity="0"></use></g></g><g><use xlink:href="#b1BPzmI36W" opacity="1" fill="#e6e6e6" fill-opacity="1"></use><g><use xlink:href="#b1BPzmI36W" opacity="1" fill-opacity="0" stroke="#000000" stroke-width="1" stroke-opacity="0"></use></g></g><g><use xlink:href="#a8flQqZ2P" opacity="1" fill="#e6e6e6" fill-opacity="1"></use><g><use xlink:href="#a8flQqZ2P" opacity="1" fill-opacity="0" stroke="#000000" stroke-width="1" stroke-opacity="0"></use></g></g><g><use xlink:href="#cRbtRon5b" opacity="1" fill="#e6e6e6" fill-opacity="1"></use><g><use xlink:href="#cRbtRon5b" opacity="1" fill-opacity="0" stroke="#000000" stroke-width="1" stroke-opacity="0"></use></g></g><g><use xlink:href="#a5zsnG0f04" opacity="1" fill="#e6e6e6" fill-opacity="1"></use><g><use xlink:href="#a5zsnG0f04" opacity="1" fill-opacity="0" stroke="#000000" stroke-width="1" stroke-opacity="0"></use></g></g><g><use xlink:href="#dNar6JMk8" opacity="1" fill="#e6e6e6" fill-opacity="1"></use><g><use xlink:href="#dNar6JMk8" opacity="1" fill-opacity="0" stroke="#000000" stroke-width="1" stroke-opacity="0"></use></g></g><g><use xlink:href="#bitSHYvtB" opacity="1" fill="#e6e6e6" fill-opacity="1"></use><g><use xlink:href="#bitSHYvtB" opacity="1" fill-opacity="0" stroke="#000000" stroke-width="1" stroke-opacity="0"></use></g></g><g><use xlink:href="#c3NBX9iTnz" opacity="1" fill="#e6e6e6" fill-opacity="1"></use><g><use xlink:href="#c3NBX9iTnz" opacity="1" fill-opacity="0" stroke="#000000" stroke-width="1" stroke-opacity="0"></use></g></g><g><use xlink:href="#b7hsuMlqf" opacity="1" fill="#6982ff" fill-opacity="1"></use><g><use xlink:href="#b7hsuMlqf" opacity="1" fill-opacity="0" stroke="#000000" stroke-width="1" stroke-opacity="0"></use></g></g><g><use xlink:href="#btY03lTcw" opacity="1" fill="#6982ff" fill-opacity="1"></use><g><use xlink:href="#btY03lTcw" opacity="1" fill-opacity="0" stroke="#000000" stroke-width="1" stroke-opacity="0"></use></g></g><g><use xlink:href="#anOhQqgIU" opacity="1" fill="#6982ff" fill-opacity="1"></use><g><use xlink:href="#anOhQqgIU" opacity="1" fill-opacity="0" stroke="#000000" stroke-width="1" stroke-opacity="0"></use></g></g><g><use xlink:href="#eooN1PDjv" opacity="1" fill="#6982ff" fill-opacity="1"></use><g><use xlink:href="#eooN1PDjv" opacity="1" fill-opacity="0" stroke="#000000" stroke-width="1" stroke-opacity="0"></use></g></g><g><use xlink:href="#b6UplLYLly" opacity="1" fill="#6982ff" fill-opacity="1"></use><g><use xlink:href="#b6UplLYLly" opacity="1" fill-opacity="0" stroke="#000000" stroke-width="1" stroke-opacity="0"></use></g></g><g><use xlink:href="#jUp416Uwj" opacity="1" fill="#6982ff" fill-opacity="1"></use><g><use xlink:href="#jUp416Uwj" opacity="1" fill-opacity="0" stroke="#000000" stroke-width="1" stroke-opacity="0"></use></g></g><g><use xlink:href="#adNcmmR1G" opacity="1" fill="#6982ff" fill-opacity="1"></use><g><use xlink:href="#adNcmmR1G" opacity="1" fill-opacity="0" stroke="#000000" stroke-width="1" stroke-opacity="0"></use></g></g><g><use xlink:href="#aolFOYuE" opacity="1" fill="#6982ff" fill-opacity="1"></use><g><use xlink:href="#aolFOYuE" opacity="1" fill-opacity="0" stroke="#000000" stroke-width="1" stroke-opacity="0"></use></g></g><g><use xlink:href="#g7RUMCc8X0" opacity="1" fill="#6982ff" fill-opacity="1"></use><g><use xlink:href="#g7RUMCc8X0" opacity="1" fill-opacity="0" stroke="#000000" stroke-width="1" stroke-opacity="0"></use></g></g><g><use xlink:href="#eGL9lga5T" opacity="1" fill="#6982ff" fill-opacity="1"></use><g><use xlink:href="#eGL9lga5T" opacity="1" fill-opacity="0" stroke="#000000" stroke-width="1" stroke-opacity="0"></use></g></g><g><use xlink:href="#d1fHl7I8Zs" opacity="1" fill="#6982ff" fill-opacity="1"></use><g><use xlink:href="#d1fHl7I8Zs" opacity="1" fill-opacity="0" stroke="#000000" stroke-width="1" stroke-opacity="0"></use></g></g><g><use xlink:href="#cEnF6J9KP" opacity="1" fill="#6982ff" fill-opacity="1"></use><g><use xlink:href="#cEnF6J9KP" opacity="1" fill-opacity="0" stroke="#000000" stroke-width="1" stroke-opacity="0"></use></g></g><g><use xlink:href="#bnN1DcohG" opacity="1" fill="#6982ff" fill-opacity="1"></use><g><use xlink:href="#bnN1DcohG" opacity="1" fill-opacity="0" stroke="#000000" stroke-width="1" stroke-opacity="0"></use></g></g><g><use xlink:href="#a11b35nHCP" opacity="1" fill="#6982ff" fill-opacity="1"></use><g><use xlink:href="#a11b35nHCP" opacity="1" fill-opacity="0" stroke="#000000" stroke-width="1" stroke-opacity="0"></use></g></g><g><use xlink:href="#ckJbhMMVt" opacity="1" fill="#6982ff" fill-opacity="1"></use><g><use xlink:href="#ckJbhMMVt" opacity="1" fill-opacity="0" stroke="#000000" stroke-width="1" stroke-opacity="0"></use></g></g><g><use xlink:href="#c20PfEJHsG" opacity="1" fill="#6982ff" fill-opacity="1"></use><g><use xlink:href="#c20PfEJHsG" opacity="1" fill-opacity="0" stroke="#000000" stroke-width="1" stroke-opacity="0"></use></g></g><g><use xlink:href="#c3qDuBglmd" opacity="1" fill="#6982ff" fill-opacity="1"></use><g><use xlink:href="#c3qDuBglmd" opacity="1" fill-opacity="0" stroke="#000000" stroke-width="1" stroke-opacity="0"></use></g></g><g><use xlink:href="#db0goBbAR" opacity="1" fill="#6982ff" fill-opacity="1"></use><g><use xlink:href="#db0goBbAR" opacity="1" fill-opacity="0" stroke="#000000" stroke-width="1" stroke-opacity="0"></use></g></g><g><use xlink:href="#cjlH2ixAb" opacity="1" fill="#6982ff" fill-opacity="1"></use><g><use xlink:href="#cjlH2ixAb" opacity="1" fill-opacity="0" stroke="#000000" stroke-width="1" stroke-opacity="0"></use></g></g><g><use xlink:href="#d1vCv9gVKC" opacity="1" fill="#6982ff" fill-opacity="1"></use><g><use xlink:href="#d1vCv9gVKC" opacity="1" fill-opacity="0" stroke="#000000" stroke-width="1" stroke-opacity="0"></use></g></g><g><use xlink:href="#b1UQRrQDFo" opacity="1" fill="#6982ff" fill-opacity="1"></use><g><use xlink:href="#b1UQRrQDFo" opacity="1" fill-opacity="0" stroke="#000000" stroke-width="1" stroke-opacity="0"></use></g></g><g><use xlink:href="#drpzTekl" opacity="1" fill="#6982ff" fill-opacity="1"></use><g><use xlink:href="#drpzTekl" opacity="1" fill-opacity="0" stroke="#000000" stroke-width="1" stroke-opacity="0"></use></g></g><g><use xlink:href="#amoZ8EMTt" opacity="1" fill="#6982ff" fill-opacity="1"></use><g><use xlink:href="#amoZ8EMTt" opacity="1" fill-opacity="0" stroke="#000000" stroke-width="1" stroke-opacity="0"></use></g></g><g><use xlink:href="#d1fIZNxrj" opacity="1" fill="#6982ff" fill-opacity="1"></use><g><use xlink:href="#d1fIZNxrj" opacity="1" fill-opacity="0" stroke="#000000" stroke-width="1" stroke-opacity="0"></use></g></g><g><use xlink:href="#a1ipwguwca" opacity="1" fill="#6982ff" fill-opacity="1"></use><g><use xlink:href="#a1ipwguwca" opacity="1" fill-opacity="0" stroke="#000000" stroke-width="1" stroke-opacity="0"></use></g></g><g><use xlink:href="#d2hZ0yijWc" opacity="1" fill="#6982ff" fill-opacity="1"></use><g><use xlink:href="#d2hZ0yijWc" opacity="1" fill-opacity="0" stroke="#000000" stroke-width="1" stroke-opacity="0"></use></g></g><g><use xlink:href="#b62vwdJV01" opacity="1" fill="#6982ff" fill-opacity="1"></use><g><use xlink:href="#b62vwdJV01" opacity="1" fill-opacity="0" stroke="#000000" stroke-width="1" stroke-opacity="0"></use></g></g><g><use xlink:href="#m3kmGaZo9P" opacity="1" fill="#6982ff" fill-opacity="1"></use><g><use xlink:href="#m3kmGaZo9P" opacity="1" fill-opacity="0" stroke="#000000" stroke-width="1" stroke-opacity="0"></use></g></g><g><use xlink:href="#d4f07Rc71Z" opacity="1" fill="#ffb8b8" fill-opacity="1"></use><g><use xlink:href="#d4f07Rc71Z" opacity="1" fill-opacity="0" stroke="#000000" stroke-width="1" stroke-opacity="0"></use></g></g><g><use xlink:href="#c1htzsIcEJ" opacity="1" fill="#000000" fill-opacity="1"></use><g><use xlink:href="#c1htzsIcEJ" opacity="1" fill-opacity="0" stroke="#000000" stroke-width="1" stroke-opacity="0"></use></g></g><g><use xlink:href="#b29IB6Ks5T" opacity="1" fill="#2f2e41" fill-opacity="1"></use><g><use xlink:href="#b29IB6Ks5T" opacity="1" fill-opacity="0" stroke="#000000" stroke-width="1" stroke-opacity="0"></use></g></g><g><use xlink:href="#a22CDVBqKf" opacity="1" fill="#2f2e41" fill-opacity="1"></use><g><use xlink:href="#a22CDVBqKf" opacity="1" fill-opacity="0" stroke="#000000" stroke-width="1" stroke-opacity="0"></use></g></g><g><use xlink:href="#b10GO4b6WI" opacity="1" fill="#2f2e41" fill-opacity="1"></use><g><use xlink:href="#b10GO4b6WI" opacity="1" fill-opacity="0" stroke="#000000" stroke-width="1" stroke-opacity="0"></use></g></g><g><use xlink:href="#cs2i9nAF3" opacity="1" fill="#ffeaea" fill-opacity="1"></use><g><use xlink:href="#cs2i9nAF3" opacity="1" fill-opacity="0" stroke="#000000" stroke-width="1" stroke-opacity="0"></use></g></g><g><use xlink:href="#cADcISGUx" opacity="1" fill="#d0cde1" fill-opacity="1"></use><g><use xlink:href="#cADcISGUx" opacity="1" fill-opacity="0" stroke="#000000" stroke-width="1" stroke-opacity="0"></use></g></g><g><use xlink:href="#be06TO8wU" opacity="1" fill="#6982ff" fill-opacity="1"></use><g><use xlink:href="#be06TO8wU" opacity="1" fill-opacity="0" stroke="#000000" stroke-width="1" stroke-opacity="0"></use></g></g><g><use xlink:href="#eLzQoBTB6" opacity="1" fill="#ffb8b8" fill-opacity="1"></use><g><use xlink:href="#eLzQoBTB6" opacity="1" fill-opacity="0" stroke="#000000" stroke-width="1" stroke-opacity="0"></use></g></g><g><use xlink:href="#a8M4wFqIt" opacity="1" fill="#2f2e41" fill-opacity="1"></use><g><use xlink:href="#a8M4wFqIt" opacity="1" fill-opacity="0" stroke="#000000" stroke-width="1" stroke-opacity="0"></use></g></g><g><use xlink:href="#c1hGXCUga0" opacity="1" fill="#6982ff" fill-opacity="1"></use><g><use xlink:href="#c1hGXCUga0" opacity="1" fill-opacity="0" stroke="#000000" stroke-width="1" stroke-opacity="0"></use></g></g><g><use xlink:href="#f5nkhWyTJ" opacity="1" fill="#6982ff" fill-opacity="1"></use><g><use xlink:href="#f5nkhWyTJ" opacity="1" fill-opacity="0" stroke="#000000" stroke-width="1" stroke-opacity="0"></use></g></g><g><use xlink:href="#a1xPzKaqU3" opacity="1" fill="#3f3d56" fill-opacity="1"></use><g><use xlink:href="#a1xPzKaqU3" opacity="1" fill-opacity="0" stroke="#000000" stroke-width="1" stroke-opacity="0"></use></g></g><g><use xlink:href="#a1ZeUBzb6" opacity="1" fill="#6982ff" fill-opacity="1"></use><g><use xlink:href="#a1ZeUBzb6" opacity="1" fill-opacity="0" stroke="#000000" stroke-width="1" stroke-opacity="0"></use></g></g><g><use xlink:href="#bbBhBWIJp" opacity="1" fill="#3f3d56" fill-opacity="1"></use><g><use xlink:href="#bbBhBWIJp" opacity="1" fill-opacity="0" stroke="#000000" stroke-width="1" stroke-opacity="0"></use></g></g><g><use xlink:href="#a3F0ekZ22" opacity="1" fill="#3f3d56" fill-opacity="1"></use><g><use xlink:href="#a3F0ekZ22" opacity="1" fill-opacity="0" stroke="#000000" stroke-width="1" stroke-opacity="0"></use></g></g><g><use xlink:href="#b5k0Q9PCK" opacity="1" fill="#3f3d56" fill-opacity="1"></use><g><use xlink:href="#b5k0Q9PCK" opacity="1" fill-opacity="0" stroke="#000000" stroke-width="1" stroke-opacity="0"></use></g></g><g><use xlink:href="#ahDPP56IG" opacity="1" fill="#3f3d56" fill-opacity="1"></use><g><use xlink:href="#ahDPP56IG" opacity="1" fill-opacity="0" stroke="#000000" stroke-width="1" stroke-opacity="0"></use></g></g><g><use xlink:href="#c1hCIcSqw4" opacity="1" fill="#6982ff" fill-opacity="1"></use><g><use xlink:href="#c1hCIcSqw4" opacity="1" fill-opacity="0" stroke="#000000" stroke-width="1" stroke-opacity="0"></use></g></g><g><use xlink:href="#gJCfny0wL" opacity="1" fill="#3f3d56" fill-opacity="1"></use><g><use xlink:href="#gJCfny0wL" opacity="1" fill-opacity="0" stroke="#000000" stroke-width="1" stroke-opacity="0"></use></g></g><g><use xlink:href="#cDxC3vMnr" opacity="1" fill="#3f3d56" fill-opacity="1"></use><g><use xlink:href="#cDxC3vMnr" opacity="1" fill-opacity="0" stroke="#000000" stroke-width="1" stroke-opacity="0"></use></g></g><g><use xlink:href="#b37zqFlZRQ" opacity="1" fill="#3f3d56" fill-opacity="1"></use><g><use xlink:href="#b37zqFlZRQ" opacity="1" fill-opacity="0" stroke="#000000" stroke-width="1" stroke-opacity="0"></use></g></g><g><use xlink:href="#cfIoBn9sN" opacity="1" fill="#3f3d56" fill-opacity="1"></use><g><use xlink:href="#cfIoBn9sN" opacity="1" fill-opacity="0" stroke="#000000" stroke-width="1" stroke-opacity="0"></use></g></g><g><use xlink:href="#akK44kQir" opacity="1" fill="#3f3d56" fill-opacity="1"></use><g><use xlink:href="#akK44kQir" opacity="1" fill-opacity="0" stroke="#000000" stroke-width="1" stroke-opacity="0"></use></g></g><g><use xlink:href="#a5VJSeBUjW" opacity="1" fill="#3f3d56" fill-opacity="1"></use><g><use xlink:href="#a5VJSeBUjW" opacity="1" fill-opacity="0" stroke="#000000" stroke-width="1" stroke-opacity="0"></use></g></g><g><use xlink:href="#amU9xEOy6" opacity="1" fill="#f2f2f2" fill-opacity="1"></use><g><use xlink:href="#amU9xEOy6" opacity="1" fill-opacity="0" stroke="#000000" stroke-width="1" stroke-opacity="0"></use></g></g><g><use xlink:href="#hOdykMINj" opacity="1" fill="#ffffff" fill-opacity="1"></use><g><use xlink:href="#hOdykMINj" opacity="1" fill-opacity="0" stroke="#000000" stroke-width="1" stroke-opacity="0"></use></g></g><g><use xlink:href="#h2m6Yh5FV5" opacity="1" fill="#6982ff" fill-opacity="1"></use><g><use xlink:href="#h2m6Yh5FV5" opacity="1" fill-opacity="0" stroke="#000000" stroke-width="1" stroke-opacity="0"></use></g></g><g><use xlink:href="#crSmvSOYX" opacity="1" fill="#ffffff" fill-opacity="1"></use><g><use xlink:href="#crSmvSOYX" opacity="1" fill-opacity="0" stroke="#000000" stroke-width="1" stroke-opacity="0"></use></g></g><g><use xlink:href="#b34gnyfsHQ" opacity="1" fill="#f2f2f2" fill-opacity="1"></use><g><use xlink:href="#b34gnyfsHQ" opacity="1" fill-opacity="0" stroke="#000000" stroke-width="1" stroke-opacity="0"></use></g></g><g><use xlink:href="#e19KuqkEjP" opacity="1" fill="#f2f2f2" fill-opacity="1"></use><g><use xlink:href="#e19KuqkEjP" opacity="1" fill-opacity="0" stroke="#000000" stroke-width="1" stroke-opacity="0"></use></g></g><g><use xlink:href="#e2vf5i6RM" opacity="1" fill="#ffffff" fill-opacity="1"></use><g><use xlink:href="#e2vf5i6RM" opacity="1" fill-opacity="0" stroke="#000000" stroke-width="1" stroke-opacity="0"></use></g></g><g><use xlink:href="#b5QtDAK3Z" opacity="1" fill="#ffffff" fill-opacity="1"></use><g><use xlink:href="#b5QtDAK3Z" opacity="1" fill-opacity="0" stroke="#000000" stroke-width="1" stroke-opacity="0"></use></g></g><g><use xlink:href="#aH3BkHpi9" opacity="1" fill="#ffffff" fill-opacity="1"></use><g><use xlink:href="#aH3BkHpi9" opacity="1" fill-opacity="0" stroke="#000000" stroke-width="1" stroke-opacity="0"></use></g></g><g><use xlink:href="#al0IZxOz" opacity="1" fill="#ffffff" fill-opacity="1"></use><g><use xlink:href="#al0IZxOz" opacity="1" fill-opacity="0" stroke="#000000" stroke-width="1" stroke-opacity="0"></use></g></g><g><use xlink:href="#c1siFjfAGV" opacity="1" fill="#ffffff" fill-opacity="1"></use><g><use xlink:href="#c1siFjfAGV" opacity="1" fill-opacity="0" stroke="#000000" stroke-width="1" stroke-opacity="0"></use></g></g><g><use xlink:href="#bfhGZoGnA" opacity="1" fill="#ffffff" fill-opacity="1"></use><g><use xlink:href="#bfhGZoGnA" opacity="1" fill-opacity="0" stroke="#000000" stroke-width="1" stroke-opacity="0"></use></g></g><g><use xlink:href="#b3bMLWRagT" opacity="1" fill="#ffffff" fill-opacity="1"></use><g><use xlink:href="#b3bMLWRagT" opacity="1" fill-opacity="0" stroke="#000000" stroke-width="1" stroke-opacity="0"></use></g></g><g><use xlink:href="#c21GXXwV6Y" opacity="1" fill="#ffffff" fill-opacity="1"></use><g><use xlink:href="#c21GXXwV6Y" opacity="1" fill-opacity="0" stroke="#000000" stroke-width="1" stroke-opacity="0"></use></g></g><g><use xlink:href="#aXfIbeSIN" opacity="1" fill="#ffffff" fill-opacity="1"></use><g><use xlink:href="#aXfIbeSIN" opacity="1" fill-opacity="0" stroke="#000000" stroke-width="1" stroke-opacity="0"></use></g></g><g><use xlink:href="#dLZKPFT6d" opacity="1" fill="#ffffff" fill-opacity="1"></use><g><use xlink:href="#dLZKPFT6d" opacity="1" fill-opacity="0" stroke="#000000" stroke-width="1" stroke-opacity="0"></use></g></g><g><use xlink:href="#b3DER9Aqj" opacity="1" fill="#ffffff" fill-opacity="1"></use><g><use xlink:href="#b3DER9Aqj" opacity="1" fill-opacity="0" stroke="#000000" stroke-width="1" stroke-opacity="0"></use></g></g><g><use xlink:href="#agaNb2OsD" opacity="1" fill="#ffffff" fill-opacity="1"></use><g><use xlink:href="#agaNb2OsD" opacity="1" fill-opacity="0" stroke="#000000" stroke-width="1" stroke-opacity="0"></use></g></g><g><use xlink:href="#b471GAwgcy" opacity="1" fill="#ffeaea" fill-opacity="1"></use><g><use xlink:href="#b471GAwgcy" opacity="1" fill-opacity="0" stroke="#000000" stroke-width="1" stroke-opacity="0"></use></g></g><g><use xlink:href="#b9nRwNWK" opacity="1" fill="#6982ff" fill-opacity="1"></use><g><use xlink:href="#b9nRwNWK" opacity="1" fill-opacity="0" stroke="#000000" stroke-width="1" stroke-opacity="0"></use></g></g></g></g></svg>